<svg width="102" height="63" viewBox="0 0 102 63" fill="none" xmlns="http://www.w3.org/2000/svg">
<g clip-path="url(#clip0_10_44)">
<path d="M100.902 41.3534H29.9027C29.6114 41.353 29.3322 41.2369 29.1263 41.0305C28.9204 40.8242 28.8046 40.5443 28.8042 40.2524V1.10092C28.8046 0.809038 28.9204 0.529206 29.1263 0.322816C29.3322 0.116425 29.6114 0.000329883 29.9027 0H100.902C101.193 0.000330469 101.472 0.116427 101.678 0.322817C101.884 0.529208 102 0.809038 102 1.10092V40.2524C102 40.5443 101.884 40.8242 101.678 41.0305C101.472 41.2369 101.193 41.353 100.902 41.3534Z" fill="#E6E6E6"/>
<path d="M99.4037 39.8521H31.4005C31.1093 39.8518 30.8301 39.7357 30.6242 39.5293C30.4183 39.3229 30.3024 39.0431 30.3021 38.7512V2.60217C30.3024 2.31029 30.4183 2.03046 30.6242 1.82407C30.8301 1.61768 31.1093 1.50158 31.4005 1.50125H99.4037C99.6949 1.50158 99.9741 1.61768 100.18 1.82407C100.386 2.03046 100.502 2.31029 100.502 2.60217V38.7512C100.502 39.0431 100.386 39.3229 100.18 39.5293C99.9741 39.7357 99.6949 39.8518 99.4037 39.8521Z" fill="white"/>
<path d="M50.4294 23.8058H37.6357C37.4944 23.8057 37.3589 23.7493 37.2589 23.6492C37.159 23.549 37.1028 23.4132 37.1026 23.2716V9.9173C37.1028 9.77565 37.159 9.63985 37.2589 9.53969C37.3589 9.43953 37.4944 9.38319 37.6357 9.38303H50.4294C50.5707 9.38319 50.7062 9.43954 50.8062 9.5397C50.9061 9.63986 50.9623 9.77565 50.9625 9.9173V23.2716C50.9623 23.4132 50.9061 23.549 50.8062 23.6492C50.7062 23.7493 50.5707 23.8057 50.4294 23.8058ZM37.6357 9.59674C37.5509 9.59683 37.4696 9.63063 37.4096 9.69073C37.3497 9.75083 37.3159 9.83231 37.3158 9.9173V23.2716C37.3159 23.3566 37.3497 23.438 37.4096 23.4981C37.4696 23.5582 37.5509 23.592 37.6357 23.5921H50.4294C50.5142 23.592 50.5955 23.5582 50.6555 23.4981C50.7154 23.438 50.7492 23.3566 50.7492 23.2716V9.9173C50.7492 9.83231 50.7154 9.75083 50.6555 9.69073C50.5955 9.63063 50.5142 9.59683 50.4294 9.59674H37.6357Z" fill="#3F3D56"/>
<path d="M71.799 23.8058H59.0053C58.8639 23.8057 58.7284 23.7493 58.6285 23.6492C58.5286 23.549 58.4724 23.4132 58.4722 23.2716V9.9173C58.4724 9.77565 58.5286 9.63986 58.6285 9.5397C58.7284 9.43954 58.8639 9.38319 59.0053 9.38303H71.799C71.9403 9.38319 72.0758 9.43954 72.1757 9.5397C72.2757 9.63986 72.3319 9.77565 72.332 9.9173V23.2716C72.3319 23.4132 72.2757 23.549 72.1757 23.6492C72.0758 23.7493 71.9403 23.8057 71.799 23.8058ZM59.0053 9.59674C58.9205 9.59683 58.8392 9.63064 58.7792 9.69073C58.7192 9.75083 58.6855 9.83231 58.6854 9.9173V23.2716C58.6855 23.3566 58.7192 23.438 58.7792 23.4981C58.8392 23.5582 58.9205 23.592 59.0053 23.5921H71.799C71.8838 23.592 71.9651 23.5582 72.025 23.4981C72.085 23.438 72.1187 23.3566 72.1188 23.2716V9.9173C72.1187 9.83231 72.085 9.75083 72.025 9.69073C71.9651 9.63064 71.8838 9.59683 71.799 9.59674H59.0053Z" fill="#3F3D56"/>
<path d="M93.1685 23.8058H80.3748C80.2335 23.8057 80.098 23.7493 79.9981 23.6492C79.8981 23.549 79.8419 23.4132 79.8418 23.2716V9.9173C79.8419 9.77565 79.8981 9.63986 79.9981 9.5397C80.098 9.43954 80.2335 9.38319 80.3748 9.38303H93.1685C93.3099 9.38319 93.4454 9.43954 93.5453 9.5397C93.6452 9.63986 93.7014 9.77565 93.7016 9.9173V23.2716C93.7014 23.4132 93.6452 23.549 93.5453 23.6492C93.4454 23.7493 93.3099 23.8057 93.1685 23.8058ZM80.3748 9.59674C80.29 9.59683 80.2087 9.63063 80.1488 9.69073C80.0888 9.75083 80.0551 9.83231 80.055 9.9173V23.2716C80.0551 23.3566 80.0888 23.438 80.1488 23.4981C80.2087 23.5582 80.29 23.592 80.3748 23.5921H93.1685C93.2533 23.592 93.3346 23.5582 93.3946 23.4981C93.4546 23.438 93.4883 23.3566 93.4884 23.2716V9.9173C93.4883 9.83231 93.4546 9.75083 93.3946 9.69073C93.3346 9.63063 93.2533 9.59683 93.1685 9.59674H80.3748Z" fill="#3F3D56"/>
<path d="M41.5621 31.9704C41.6096 31.9704 41.6567 31.961 41.7006 31.9428C41.7445 31.9246 41.7844 31.8979 41.818 31.8642C41.8516 31.8306 41.8783 31.7906 41.8965 31.7466C41.9147 31.7026 41.9241 31.6554 41.9241 31.6078C41.9241 31.5601 41.9148 31.513 41.8966 31.469C41.8785 31.4249 41.8518 31.3849 41.8182 31.3512C41.7846 31.3176 41.7447 31.2908 41.7008 31.2726C41.6569 31.2543 41.6099 31.2449 41.5624 31.2449H38.3147C38.2187 31.2449 38.1266 31.2831 38.0588 31.3511C37.9909 31.4192 37.9528 31.5114 37.9528 31.6076C37.9528 31.7038 37.9909 31.7961 38.0588 31.8641C38.1266 31.9321 38.2187 31.9704 38.3147 31.9704H41.5621Z" fill="#E6E6E6"/>
<path d="M49.7504 29.8332C49.8464 29.8334 49.9385 29.7954 50.0065 29.7275C50.0745 29.6596 50.1128 29.5674 50.113 29.4712C50.1131 29.375 50.0752 29.2826 50.0074 29.2145C49.9397 29.1464 49.8477 29.108 49.7517 29.1078H38.3147C38.2188 29.108 38.1269 29.1462 38.0592 29.2143C37.9915 29.2823 37.9534 29.3744 37.9534 29.4705C37.9534 29.5666 37.9915 29.6588 38.0592 29.7268C38.1269 29.7948 38.2188 29.8331 38.3147 29.8332H49.7504Z" fill="#E6E6E6"/>
<path d="M62.9316 31.9704C63.0276 31.9704 63.1197 31.9321 63.1875 31.8641C63.2554 31.7961 63.2935 31.7038 63.2935 31.6076C63.2935 31.5114 63.2554 31.4192 63.1875 31.3511C63.1197 31.2831 63.0276 31.2449 62.9316 31.2449H59.6843C59.5883 31.2449 59.4962 31.2831 59.4284 31.3511C59.3605 31.4192 59.3223 31.5114 59.3223 31.6076C59.3223 31.7038 59.3605 31.7961 59.4284 31.8641C59.4962 31.9321 59.5883 31.9704 59.6843 31.9704H62.9316Z" fill="#E6E6E6"/>
<path d="M71.12 29.8332C71.2158 29.8331 71.3077 29.7948 71.3755 29.7268C71.4432 29.6588 71.4812 29.5666 71.4812 29.4705C71.4812 29.3744 71.4432 29.2823 71.3755 29.2143C71.3077 29.1462 71.2158 29.108 71.12 29.1078H59.6843C59.5884 29.108 59.4965 29.1462 59.4288 29.2143C59.361 29.2823 59.323 29.3744 59.323 29.4705C59.323 29.5666 59.361 29.6588 59.4288 29.7268C59.4965 29.7948 59.5884 29.8331 59.6843 29.8332H71.12Z" fill="#E6E6E6"/>
<path d="M84.3012 31.9704C84.3972 31.9704 84.4892 31.9321 84.5571 31.8641C84.625 31.7961 84.6631 31.7038 84.6631 31.6076C84.6631 31.5114 84.625 31.4192 84.5571 31.3511C84.4892 31.2831 84.3972 31.2449 84.3012 31.2449H81.0538C81.0063 31.2449 80.9592 31.2542 80.9153 31.2725C80.8714 31.2907 80.8315 31.3174 80.7979 31.351C80.7643 31.3847 80.7376 31.4247 80.7194 31.4687C80.7012 31.5127 80.6918 31.5598 80.6918 31.6075C80.6917 31.6551 80.7011 31.7023 80.7193 31.7463C80.7374 31.7903 80.7641 31.8303 80.7977 31.864C80.8313 31.8977 80.8711 31.9244 80.915 31.9427C80.9589 31.9609 81.006 31.9703 81.0535 31.9704H84.3012Z" fill="#E6E6E6"/>
<path d="M92.4895 29.8332C92.5854 29.8331 92.6773 29.7948 92.745 29.7268C92.8128 29.6588 92.8508 29.5666 92.8508 29.4705C92.8508 29.3744 92.8128 29.2823 92.745 29.2143C92.6773 29.1462 92.5854 29.108 92.4895 29.1078H81.0538C81.0063 29.1077 80.9592 29.117 80.9153 29.1351C80.8713 29.1533 80.8314 29.1799 80.7977 29.2136C80.7641 29.2472 80.7373 29.2871 80.7191 29.3311C80.7008 29.3751 80.6913 29.4222 80.6913 29.4698C80.6912 29.5175 80.7004 29.5647 80.7186 29.6087C80.7367 29.6528 80.7632 29.6928 80.7968 29.7265C80.8303 29.7603 80.8702 29.7871 80.9141 29.8054C80.9579 29.8237 81.005 29.8332 81.0525 29.8332H92.4895Z" fill="#E6E6E6"/>
<path d="M49.7504 27.7315C49.8464 27.7315 49.9385 27.6934 50.0064 27.6254C50.0743 27.5574 50.1124 27.4651 50.1125 27.3689C50.1125 27.2727 50.0744 27.1804 50.0066 27.1124C49.9387 27.0443 49.8467 27.0061 49.7507 27.006H38.3147C38.2187 27.006 38.1266 27.0443 38.0588 27.1123C37.9909 27.1803 37.9528 27.2726 37.9528 27.3688C37.9528 27.465 37.9909 27.5572 38.0588 27.6253C38.1266 27.6933 38.2187 27.7315 38.3147 27.7315H49.7504Z" fill="#536DFE"/>
<path d="M71.12 27.7315C71.216 27.7315 71.308 27.6933 71.3759 27.6253C71.4438 27.5572 71.4819 27.465 71.4819 27.3688C71.4819 27.2726 71.4438 27.1803 71.3759 27.1123C71.308 27.0443 71.216 27.006 71.12 27.006H59.6843C59.5883 27.006 59.4962 27.0443 59.4284 27.1123C59.3605 27.1803 59.3223 27.2726 59.3223 27.3688C59.3223 27.465 59.3605 27.5572 59.4284 27.6253C59.4962 27.6933 59.5883 27.7315 59.6843 27.7315H71.12Z" fill="#536DFE"/>
<path d="M92.4895 27.7315C92.5855 27.7315 92.6776 27.6933 92.7454 27.6253C92.8133 27.5572 92.8514 27.465 92.8514 27.3688C92.8514 27.2726 92.8133 27.1803 92.7454 27.1123C92.6776 27.0443 92.5855 27.006 92.4895 27.006H81.0538C80.9578 27.006 80.8658 27.0442 80.7979 27.1122C80.73 27.1802 80.6918 27.2724 80.6918 27.3686C80.6917 27.4648 80.7298 27.5571 80.7977 27.6252C80.8655 27.6932 80.9575 27.7315 81.0535 27.7315H92.4895Z" fill="#536DFE"/>
<path d="M47.7033 21.2178C47.7992 21.2176 47.8911 21.1793 47.9588 21.1113C48.0265 21.0433 48.0646 20.9511 48.0646 20.855C48.0646 20.7589 48.0265 20.6668 47.9588 20.5988C47.8911 20.5308 47.7992 20.4925 47.7033 20.4923H40.3618C40.3142 20.4922 40.2672 20.5015 40.2232 20.5197C40.1793 20.5378 40.1393 20.5645 40.1057 20.5981C40.072 20.6317 40.0453 20.6716 40.027 20.7156C40.0087 20.7596 39.9993 20.8067 39.9992 20.8544C39.9991 20.902 40.0084 20.9492 40.0265 20.9932C40.0446 21.0373 40.0712 21.0773 40.1047 21.111C40.1383 21.1448 40.1781 21.1716 40.222 21.1899C40.2659 21.2082 40.3129 21.2177 40.3604 21.2178H47.7033Z" fill="#E6E6E6"/>
<path d="M47.7033 19.0806C47.7992 19.0805 47.8911 19.0422 47.9588 18.9742C48.0265 18.9062 48.0646 18.814 48.0646 18.7179C48.0646 18.6218 48.0265 18.5297 47.9588 18.4617C47.8911 18.3937 47.7992 18.3554 47.7033 18.3552H40.3618C40.3142 18.3551 40.2672 18.3644 40.2232 18.3826C40.1793 18.4007 40.1393 18.4273 40.1057 18.461C40.072 18.4946 40.0453 18.5345 40.027 18.5785C40.0087 18.6225 39.9993 18.6696 39.9992 18.7173C39.9991 18.7649 40.0084 18.8121 40.0265 18.8561C40.0446 18.9002 40.0712 18.9402 40.1047 18.9739C40.1383 19.0077 40.1781 19.0345 40.222 19.0528C40.2659 19.0711 40.3129 19.0806 40.3604 19.0806H47.7033Z" fill="#E6E6E6"/>
<path d="M44.0325 16.5749C45.301 16.5749 46.3293 15.5443 46.3293 14.273C46.3293 13.0017 45.301 11.9711 44.0325 11.9711C42.7641 11.9711 41.7358 13.0017 41.7358 14.273C41.7358 15.5443 42.7641 16.5749 44.0325 16.5749Z" fill="#536DFE"/>
<path d="M69.0729 21.2178C69.1688 21.2176 69.2607 21.1793 69.3284 21.1113C69.3961 21.0433 69.4342 20.9511 69.4342 20.855C69.4342 20.7589 69.3961 20.6668 69.3284 20.5988C69.2607 20.5308 69.1688 20.4925 69.0729 20.4923H61.7313C61.6355 20.4925 61.5436 20.5308 61.4758 20.5988C61.4081 20.6668 61.3701 20.7589 61.3701 20.855C61.3701 20.9511 61.4081 21.0433 61.4758 21.1113C61.5436 21.1793 61.6355 21.2176 61.7313 21.2178H69.0729Z" fill="#E6E6E6"/>
<path d="M69.0729 19.0806C69.1688 19.0805 69.2607 19.0422 69.3284 18.9742C69.3961 18.9062 69.4342 18.814 69.4342 18.7179C69.4342 18.6218 69.3961 18.5297 69.3284 18.4617C69.2607 18.3937 69.1688 18.3554 69.0729 18.3552H61.7313C61.6355 18.3554 61.5436 18.3937 61.4758 18.4617C61.4081 18.5297 61.3701 18.6218 61.3701 18.7179C61.3701 18.814 61.4081 18.9062 61.4758 18.9742C61.5436 19.0422 61.6355 19.0805 61.7313 19.0806H69.0729Z" fill="#E6E6E6"/>
<path d="M65.4021 16.5749C66.6706 16.5749 67.6988 15.5443 67.6988 14.273C67.6988 13.0017 66.6706 11.9711 65.4021 11.9711C64.1337 11.9711 63.1054 13.0017 63.1054 14.273C63.1054 15.5443 64.1337 16.5749 65.4021 16.5749Z" fill="#536DFE"/>
<path d="M90.4425 21.2178C90.49 21.2178 90.5371 21.2085 90.581 21.1904C90.6249 21.1723 90.6649 21.1456 90.6986 21.112C90.7322 21.0784 90.759 21.0384 90.7772 20.9945C90.7955 20.9505 90.8049 20.9033 90.805 20.8557C90.8051 20.8081 90.7958 20.7609 90.7777 20.7168C90.7596 20.6728 90.733 20.6328 90.6995 20.599C90.6659 20.5653 90.6261 20.5385 90.5822 20.5202C90.5384 20.5019 90.4913 20.4924 90.4438 20.4923H83.1009C83.005 20.4925 82.9131 20.5308 82.8454 20.5988C82.7777 20.6668 82.7396 20.7589 82.7396 20.855C82.7396 20.9511 82.7777 21.0433 82.8454 21.1113C82.9131 21.1793 83.005 21.2176 83.1009 21.2178H90.4425Z" fill="#E6E6E6"/>
<path d="M90.4425 19.0806C90.49 19.0807 90.5371 19.0714 90.581 19.0533C90.6249 19.0351 90.6649 19.0085 90.6986 18.9749C90.7322 18.9413 90.759 18.9013 90.7772 18.8573C90.7955 18.8134 90.8049 18.7662 90.805 18.7186C90.8051 18.671 90.7958 18.6238 90.7777 18.5797C90.7596 18.5357 90.733 18.4956 90.6995 18.4619C90.6659 18.4282 90.6261 18.4014 90.5822 18.3831C90.5384 18.3648 90.4913 18.3553 90.4438 18.3552H83.1009C83.005 18.3554 82.9131 18.3937 82.8454 18.4617C82.7777 18.5297 82.7396 18.6218 82.7396 18.7179C82.7396 18.814 82.7777 18.9062 82.8454 18.9742C82.9131 19.0422 83.005 19.0805 83.1009 19.0806H90.4425Z" fill="#E6E6E6"/>
<path d="M86.7717 16.5749C88.0401 16.5749 89.0684 15.5443 89.0684 14.273C89.0684 13.0017 88.0401 11.9711 86.7717 11.9711C85.5032 11.9711 84.475 13.0017 84.475 14.273C84.475 15.5443 85.5032 16.5749 86.7717 16.5749Z" fill="#536DFE"/>
<path d="M7.69187 61.574H9.05069L9.69707 56.321L7.69164 56.3212L7.69187 61.574Z" fill="#FFB6B6"/>
<path d="M7.34523 61.1294L10.0212 61.1293C10.4735 61.1293 10.9073 61.3094 11.2271 61.6299C11.5469 61.9505 11.7266 62.3852 11.7267 62.8385V62.894L7.34531 62.8942L7.34523 61.1294Z" fill="#2F2E41"/>
<path d="M12.3469 61.574H13.7057L14.3521 56.321L12.3467 56.3212L12.3469 61.574Z" fill="#FFB6B6"/>
<path d="M12.0002 61.1294L14.6762 61.1293H14.6763C15.1286 61.1293 15.5623 61.3094 15.8822 61.6299C16.202 61.9505 16.3816 62.3852 16.3817 62.8385V62.894L12.0003 62.8942L12.0002 61.1294Z" fill="#2F2E41"/>
<path d="M17.5103 38.6904L14.1909 59.2393L11.9743 59.1283L12.0292 40.26L17.5103 38.6904Z" fill="#2F2E41"/>
<path d="M8.56164 32.4122L16.6154 32.5243L17.5103 38.6904L12.0293 41.269L9.64677 58.6839L7.54093 58.5728L6.7719 37.0087L8.56164 32.4122Z" fill="#2F2E41"/>
<path d="M13.3715 16.4923C14.7307 16.4923 15.8324 15.3881 15.8324 14.0259C15.8324 12.6637 14.7307 11.5594 13.3715 11.5594C12.0124 11.5594 10.9107 12.6637 10.9107 14.0259C10.9107 15.3881 12.0124 16.4923 13.3715 16.4923Z" fill="#FFB9B9"/>
<path d="M14.5234 17.9159L15.9443 19.7436L15.2731 33.7575L10.0158 33.6454L9.12096 21.4253L10.2395 18.2862L10.6443 17.5827L14.5234 17.9159Z" fill="#E4E4E4"/>
<path d="M16.951 25.0128L18.1815 29.7215L16.951 34.4302L18.9645 37.1208L20.7542 28.6004C20.7542 28.6004 19.4119 21.6495 19.3 20.8647C19.1882 20.0799 18.9645 19.9678 18.9645 19.9678L18.0696 20.0799L16.951 25.0128Z" fill="#2F2E41"/>
<path d="M8.00242 26.8066L7.21938 28.2641L6.99561 30.7305L7.44305 33.5333L5.87707 36.1119L4.3111 29.0488L5.98891 19.9678H6.66012L8.00242 26.8066Z" fill="#2F2E41"/>
<path d="M11.2433 14.6648L11.185 15.6618C11.185 15.6618 10.4632 14.0259 10.3514 12.3442C10.2395 10.6626 12.1411 10.3262 13.2597 10.2141C14.3783 10.102 16.2799 10.8868 16.2799 11.7837C16.2799 12.6806 14.2664 12.4563 13.4834 12.2321C12.7004 12.0079 12.3648 13.9138 12.3648 13.9138L11.9174 14.0259L11.2433 14.6648Z" fill="#2F2E41"/>
<path d="M17.2866 26.5824L16.8392 30.8426L17.734 33.4212L18.2933 35.8876C18.2933 35.8876 18.2933 38.242 16.0562 38.3541C13.819 38.4662 7.33121 38.242 7.33121 38.242C7.33121 38.242 6.43634 38.1298 5.65333 36.3361C4.87032 34.5423 7.21935 32.8606 7.21935 32.8606L7.8905 30.5063L7.66679 27.5914L6.10075 19.9678L10.7429 17.5574L11.9174 29.0488L14.4342 17.8937L15.2731 18.5104L18.8526 19.9678L17.2866 26.5824Z" fill="#2F2E41"/>
<path d="M28.5661 63H0V62.7661H28.6084L28.5661 63Z" fill="#3F3D56"/>
</g>
<defs>
<clipPath id="clip0_10_44">
<rect width="102" height="63" fill="white"/>
</clipPath>
</defs>
</svg>
