<svg width="92" height="66" viewBox="0 0 92 66" fill="none" xmlns="http://www.w3.org/2000/svg">
<g clip-path="url(#clip0_10_244)">
<path d="M84.0061 59.3728C84.8131 60.8079 84.1288 65.6547 84.1288 65.6547C84.1288 65.6547 79.6482 63.7464 78.8414 62.312C78.4549 61.6229 78.3561 60.8077 78.5667 60.0454C78.7773 59.2831 79.2801 58.6361 79.9646 58.2465C80.649 57.857 81.4592 57.7568 82.217 57.968C82.9749 58.1792 83.6184 58.6845 84.0061 59.3728Z" fill="#F1F1F1"/>
<path d="M84.1938 65.6485L84.0986 65.6686C83.1818 61.2862 79.9802 58.3143 79.948 58.2848L80.0135 58.2124C80.0459 58.2421 83.2703 61.2342 84.1938 65.6485Z" fill="white"/>
<path d="M91.3376 61.0069C90.2427 63.0053 84.0696 65.7125 84.0696 65.7125C84.0696 65.7125 83.0519 59.015 84.1462 57.0172C84.672 56.0577 85.5551 55.3476 86.6013 55.0433C87.6474 54.7389 88.7709 54.8651 89.7245 55.3942C90.6782 55.9232 91.3838 56.8118 91.6864 57.8644C91.9889 58.917 91.8634 60.0473 91.3376 61.0069Z" fill="#F1F1F1"/>
<path d="M84.1241 65.785L84.0314 65.6868C88.4983 61.4185 89.6547 55.4653 89.6659 55.4057L89.7982 55.4307C89.787 55.4907 88.6235 61.4857 84.1241 65.785Z" fill="white"/>
<path d="M21.6292 45.8744C20.9228 45.872 20.2194 45.7805 19.5356 45.6019L19.4008 45.5644L19.2758 45.5014C14.7557 43.2212 10.9424 40.2093 7.94166 36.5494C5.4577 33.502 3.5211 30.0421 2.21893 26.325C0.661734 21.8749 -0.0874285 17.1792 0.00720307 12.4623C0.00911256 12.3633 0.0107286 12.2868 0.0107286 12.2341C0.0107286 9.94119 1.2757 7.9293 3.2334 7.10857C4.73172 6.48042 18.3358 0.858314 19.3187 0.452101C21.1698 -0.481134 23.1446 0.297797 23.4606 0.434012C24.1695 0.725615 36.7456 5.90105 39.4633 7.2031C42.2641 8.54505 43.0114 10.9558 43.0114 12.1687C43.0114 17.6598 42.0662 22.7917 40.2021 27.4218C38.6966 31.1696 36.5629 34.6295 33.8938 37.6508C28.7442 43.4816 23.5932 45.5487 23.5435 45.5669C22.9279 45.78 22.2802 45.8841 21.6292 45.8744ZM20.4179 42.8554C20.8645 42.9561 21.8926 43.1072 22.5628 42.8613C23.4141 42.5489 27.7254 40.2995 31.7542 35.7378C37.3205 29.4351 40.1449 21.5122 40.149 12.1889C40.1391 12.0001 40.0058 10.6529 38.2327 9.80338C35.5677 8.52651 22.4959 3.14858 22.3641 3.09437L22.328 3.07897C22.0541 2.96347 21.1823 2.72018 20.5813 3.03704L20.461 3.09348C20.3153 3.1537 5.87445 9.12136 4.33433 9.76701C3.25697 10.2187 2.87311 11.3376 2.87311 12.2341C2.87311 12.2997 2.87142 12.395 2.86904 12.5181C2.74595 18.8974 4.21313 34.5949 20.4179 42.8554Z" fill="#3F3D56"/>
<path d="M19.9175 1.76144C19.9175 1.76144 5.34536 7.78324 3.78406 8.43778C2.22276 9.09232 1.44212 10.6632 1.44212 12.2341C1.44212 13.805 0.271147 34.3032 19.9175 44.2141C19.9175 44.2141 21.7005 44.7105 23.0534 44.2141C24.4062 43.7177 41.5804 35.3395 41.5804 12.1687C41.5804 12.1687 41.5804 9.81232 38.8482 8.50323C36.1159 7.19415 22.9058 1.76144 22.9058 1.76144C22.9058 1.76144 21.2836 1.04144 19.9175 1.76144Z" fill="#00A91B"/>
<path opacity="0.1" d="M21.4787 6.47416V38.5983C21.4787 38.5983 6.77654 31.4777 6.90665 12.7578L21.4787 6.47416Z" fill="black"/>
<path d="M21.6705 29.5622L16.9871 23.5033L19.7107 21.372L21.9283 24.2408L29.4196 16.2839L31.9247 18.672L21.6705 29.5622Z" fill="white"/>
<path d="M91.8877 66H49.0928C49.063 66 49.0345 65.9881 49.0134 65.9669C48.9923 65.9457 48.9805 65.917 48.9805 65.887C48.9805 65.857 48.9923 65.8283 49.0134 65.8071C49.0345 65.7859 49.063 65.774 49.0928 65.774H91.8877C91.9175 65.774 91.946 65.7859 91.9671 65.8071C91.9882 65.8283 92 65.857 92 65.887C92 65.917 91.9882 65.9457 91.9671 65.9669C91.946 65.9881 91.9175 66 91.8877 66Z" fill="#CACACA"/>
<path d="M61.4635 64.2186L63.2006 64.2185L64.0271 57.4768L61.4632 57.477L61.4635 64.2186Z" fill="#FFB8B8"/>
<path d="M61.0204 63.6479L64.4414 63.6478H64.4416C65.0198 63.6478 65.5743 63.8789 65.9831 64.2903C66.392 64.7016 66.6217 65.2596 66.6217 65.8413V65.9126L61.0205 65.9128L61.0204 63.6479Z" fill="#2F2E41"/>
<path d="M67.3043 64.2186L69.0414 64.2185L69.8678 57.4768L67.304 57.477L67.3043 64.2186Z" fill="#FFB8B8"/>
<path d="M66.8611 63.6479L70.2822 63.6478H70.2823C70.8605 63.6478 71.4151 63.8789 71.8239 64.2903C72.2328 64.7016 72.4625 65.2596 72.4625 65.8413V65.9126L66.8612 65.9128L66.8611 63.6479Z" fill="#2F2E41"/>
<path d="M64.1938 40.5437L64.6106 61.9315L61.2397 61.7212L58.9011 48.0983L58.1625 38.8098L64.1938 40.5437Z" fill="#2F2E41"/>
<path d="M69.979 36.9522L70.4513 62.2705L66.5201 62.1575L65.6709 47.1075L64.1938 41.6583L58.1626 38.8099L59.1473 31.9984L68.0096 31.8745L69.979 36.9522Z" fill="#2F2E41"/>
<path d="M63.2011 14.2886C64.866 14.2886 66.2156 12.9306 66.2156 11.2555C66.2156 9.58034 64.866 8.22238 63.2011 8.22238C61.5362 8.22238 60.1866 9.58034 60.1866 11.2555C60.1866 12.9306 61.5362 14.2886 63.2011 14.2886Z" fill="#FFB8B8"/>
<path d="M65.7014 15.5663L66.1632 16.2701L67.3941 19.7377L66.4094 33.2368L60.6242 33.3607L59.8858 17.88L61.4329 15.9344L65.7014 15.5663Z" fill="#CCCCCC"/>
<path d="M57.5471 18.2516L56.5624 18.1278C56.5624 18.1278 56.3162 18.2516 56.1932 19.1185C56.0701 19.9854 54.593 27.6638 54.593 27.6638L56.5624 37.076L58.778 34.1038L57.424 28.9023L58.778 23.7008L57.5471 18.2516Z" fill="#2F2E41"/>
<path d="M70.102 18.1279H70.8405L72.6869 28.1592L70.9636 35.9614L69.2404 33.113L69.7327 30.0169L69.4866 27.2924L68.625 25.6823L70.102 18.1279Z" fill="#2F2E41"/>
<path d="M64.9824 11.2555L64.4343 11.1176C64.4343 11.1176 64.0233 8.77385 63.0641 9.04959C62.1049 9.32532 59.6385 9.60106 59.6385 8.49811C59.6385 7.39517 61.9679 6.4301 63.3381 6.56797C64.7084 6.70583 66.4584 7.16321 66.9008 9.18745C67.6099 12.4324 65.4376 13.252 65.4376 13.252L65.4738 13.1339C65.5741 12.8058 65.5813 12.4561 65.4945 12.1241C65.4077 11.7922 65.2303 11.4913 64.9824 11.2555Z" fill="#2F2E41"/>
<path d="M56.6855 18.1278L60.6243 16.5178L61.5475 15.8366L64.3169 28.1592L65.6093 15.4651L70.7175 18.1278L68.9942 26.5492L68.7481 29.7692L69.4866 32.3699C69.4866 32.3699 72.0714 34.2276 71.2098 36.2091C70.3482 38.1906 69.3635 38.3145 69.3635 38.3145C69.3635 38.3145 65.1785 34.3514 64.9324 33.3607C64.6862 32.3699 64.3169 30.6361 64.3169 30.6361C64.3169 30.6361 62.2244 38.5622 59.7627 38.4383C57.301 38.3145 57.301 35.7137 57.301 35.7137L57.9164 32.9891L58.9011 30.1407L58.4087 25.4346L56.6855 18.1278Z" fill="#2F2E41"/>
</g>
<defs>
<clipPath id="clip0_10_244">
<rect width="92" height="66" fill="white"/>
</clipPath>
</defs>
</svg>
