<svg width="303" height="306" viewBox="0 0 303 306" fill="none" xmlns="http://www.w3.org/2000/svg">
<g clip-path="url(#clip0_11_2)">
<path d="M76.433 292.795C76.0987 292.811 75.7677 292.723 75.4849 292.544C75.2021 292.365 74.9812 292.103 74.8521 291.795C74.723 291.486 74.6919 291.145 74.7631 290.818C74.8343 290.492 75.0043 290.194 75.25 289.967C75.2912 289.804 75.3207 289.686 75.3619 289.523C75.0419 288.71 74.4865 288.012 73.7668 287.517C73.0472 287.022 72.1961 286.753 71.3226 286.745C70.4491 286.737 69.5931 286.99 68.8642 287.471C68.1354 287.952 67.5669 288.64 67.2316 289.446C65.2971 293.972 62.7933 298.658 64.0385 303.643C55.8138 286.22 58.6108 264.546 70.7658 249.646C74.1256 247.796 76.8488 244.509 77.5577 240.693C75.8949 241.256 73.8217 239.904 75.072 238.153C75.6139 237.484 76.161 236.82 76.7029 236.151C70.3865 229.427 62.8607 239.995 69.8132 249.07C67.5388 251.92 65.5688 255.001 63.9352 258.26C64.3125 254.799 63.8622 251.297 62.6215 248.044C61.3641 245.012 59.0072 242.458 56.9316 239.837C54.4081 236.643 49.2142 238.116 48.8747 242.17C51.2036 242.935 51.5062 246.297 48.8421 246.758C49.5399 254.298 54.4681 261.227 61.2557 264.534C58.7491 271.564 57.7703 279.047 58.3846 286.485C57.1865 277.792 47.8515 275.683 41.3268 272.228C40.9115 271.962 40.4277 271.822 39.9344 271.826C39.4411 271.83 38.9596 271.977 38.5487 272.25C38.1377 272.523 37.8151 272.909 37.6201 273.362C37.4251 273.815 37.3663 274.315 37.4507 274.801C38.3512 275.167 39.2132 275.622 40.0238 276.158C40.4037 276.413 40.6952 276.78 40.8586 277.207C41.0219 277.635 41.0489 278.102 40.9361 278.545C40.8232 278.989 40.5758 279.386 40.228 279.684C39.8802 279.981 39.4488 280.164 38.9931 280.206C42.282 288.343 50.785 293.806 59.5181 293.775C60.3574 297.421 61.5734 300.969 63.1465 304.363H76.1082C76.1547 304.219 76.1965 304.071 76.2383 303.927C75.0386 304.002 73.8341 303.93 72.6517 303.713C75.826 299.956 78.2808 298.04 76.4334 292.796L76.433 292.795Z" fill="#C54A4A"/>
<path d="M191.989 292.795C192.324 292.811 192.655 292.723 192.937 292.544C193.22 292.365 193.441 292.103 193.57 291.795C193.699 291.486 193.73 291.145 193.659 290.818C193.588 290.492 193.418 290.194 193.172 289.967C193.131 289.804 193.102 289.686 193.061 289.523C193.38 288.71 193.936 288.012 194.656 287.517C195.375 287.022 196.226 286.753 197.1 286.745C197.973 286.737 198.829 286.99 199.558 287.471C200.287 287.952 200.856 288.64 201.191 289.446C203.125 293.972 205.629 298.658 204.384 303.643C212.609 286.22 209.812 264.546 197.657 249.646C194.297 247.796 191.574 244.509 190.865 240.693C192.527 241.256 194.601 239.904 193.35 238.153C192.809 237.484 192.261 236.82 191.72 236.151C198.036 229.427 205.562 239.995 198.609 249.07C200.884 251.92 202.854 255.001 204.487 258.26C204.11 254.799 204.56 251.297 205.801 248.044C207.058 245.012 209.415 242.458 211.491 239.837C214.014 236.643 219.208 238.116 219.548 242.17C217.219 242.935 216.916 246.297 219.58 246.758C218.882 254.298 213.954 261.227 207.167 264.534C209.673 271.564 210.652 279.047 210.038 286.485C211.236 277.792 220.571 275.683 227.096 272.228C227.511 271.962 227.995 271.822 228.488 271.826C228.981 271.83 229.463 271.977 229.874 272.25C230.285 272.523 230.607 272.909 230.802 273.362C230.997 273.815 231.056 274.315 230.972 274.801C230.071 275.167 229.209 275.622 228.399 276.158C228.019 276.413 227.727 276.78 227.564 277.207C227.401 277.635 227.373 278.102 227.486 278.545C227.599 278.989 227.847 279.386 228.194 279.684C228.542 279.981 228.974 280.164 229.429 280.206C226.14 288.343 217.637 293.806 208.904 293.775C208.065 297.421 206.849 300.969 205.276 304.363H192.314C192.268 304.219 192.226 304.071 192.184 303.927C193.384 304.002 194.588 303.93 195.771 303.713C192.596 299.956 190.142 298.04 191.989 292.795Z" fill="#C54A4A"/>
<path d="M196.795 294.719L191.213 295.988L183.658 275.071L191.897 273.198L196.795 294.719Z" fill="#FFB6B6"/>
<path d="M198.317 300.495L181.152 304.399L181.102 304.182C180.699 302.411 181.016 300.552 181.984 299.014C182.952 297.477 184.491 296.387 186.263 295.984L188.858 292.893L195.249 293.94L196.748 293.599L198.317 300.495Z" fill="#2F2E41"/>
<path d="M286.843 192.761L289.911 197.592L272.731 211.723L268.202 204.593L286.843 192.761Z" fill="#FFB6B6"/>
<path d="M291.775 189.391L301.213 204.245L301.025 204.364C299.491 205.338 297.633 205.663 295.859 205.267C294.085 204.872 292.542 203.788 291.567 202.255L287.784 200.848L286.627 194.479L285.803 193.182L291.775 189.391Z" fill="#2F2E41"/>
<path d="M108.908 141.118L107.529 133.13L128.489 123.669L133.016 115.659C132.87 114.956 132.921 114.226 133.163 113.55C133.406 112.874 133.831 112.279 134.391 111.829C134.951 111.38 135.624 111.094 136.337 111.002C137.049 110.911 137.773 111.019 138.428 111.313C139.083 111.608 139.644 112.077 140.049 112.67C140.454 113.263 140.687 113.957 140.723 114.674C140.758 115.391 140.595 116.104 140.25 116.734C139.906 117.364 139.394 117.886 138.771 118.244L131.325 129.751L108.908 141.118Z" fill="#E7BCC2"/>
<path d="M102.536 134.588L111.975 129.768L114.474 139.146L107.917 144.004L102.536 134.588Z" fill="#D9D9D9"/>
<path d="M81.3554 293.993L87.0624 293.992L89.7775 271.988L81.354 271.989L81.3554 293.993Z" fill="#E7BCC2"/>
<path d="M88.9616 294.506V290.639L87.4612 290.73L81.3535 291.092L79.94 291.179L78.8593 304.131L78.8015 304.826H82.8539L82.9842 304.136L83.5727 301.002L85.0924 304.136L85.4253 304.826H96.1692C96.8085 304.822 97.4204 304.566 97.8721 304.113C98.3237 303.661 98.5786 303.049 98.5813 302.41C99.0348 300.293 90.1001 295.716 88.9616 294.506Z" fill="#2F2E41"/>
<path d="M13.6083 206.668L12.2779 212.215L33.052 219.985L35.0153 211.797L13.6083 206.668Z" fill="#E7BCC2"/>
<path d="M11.7869 213.941L15.5494 214.843L15.8101 213.363L16.8823 207.342L17.1275 205.948L4.77833 201.878L4.11626 201.66L3.17138 205.599L3.81188 205.886L6.72406 207.189L3.32032 207.935L2.57183 208.098L0.0668001 218.541C-0.0783312 219.164 0.0280212 219.818 0.362784 220.363C0.697547 220.907 1.23368 221.297 1.85475 221.449C3.80854 222.384 10.3439 214.766 11.7869 213.941Z" fill="#2F2E41"/>
<path d="M90.1798 151.584L82.8337 148.151L68.184 165.872L59.2607 168.128C58.6207 167.802 57.9031 167.659 57.187 167.715C56.4709 167.771 55.7842 168.024 55.2028 168.445C54.6214 168.867 54.168 169.441 53.8925 170.104C53.617 170.767 53.5303 171.494 53.6418 172.203C53.7534 172.912 54.0589 173.577 54.5246 174.123C54.9904 174.67 55.5982 175.077 56.281 175.3C56.9637 175.523 57.6949 175.553 58.3936 175.387C59.0924 175.221 59.7316 174.865 60.2406 174.358L73.3072 170.207L90.1798 151.584Z" fill="#E7BCC2"/>
<path d="M194.328 85.9834C192.771 85.9834 191.248 85.5218 189.954 84.6571C188.659 83.7923 187.65 82.5633 187.054 81.1253C186.458 79.6873 186.302 78.105 186.606 76.5784C186.91 75.0518 187.66 73.6496 188.761 72.549C189.862 71.4484 191.265 70.6989 192.792 70.3953C194.319 70.0916 195.902 70.2475 197.341 70.8431C198.779 71.4387 200.009 72.4474 200.874 73.7416C201.739 75.0357 202.201 76.5572 202.201 78.1137C202.198 80.2001 201.368 82.2005 199.892 83.6758C198.416 85.1512 196.415 85.981 194.328 85.9834ZM194.328 71.1472C192.949 71.1472 191.602 71.5558 190.456 72.3213C189.309 73.0867 188.416 74.1748 187.889 75.4477C187.361 76.7207 187.223 78.1214 187.492 79.4728C187.761 80.8242 188.425 82.0655 189.399 83.0398C190.374 84.0141 191.616 84.6776 192.968 84.9464C194.32 85.2152 195.721 85.0772 196.995 84.5499C198.268 84.0227 199.357 83.1297 200.123 81.9841C200.889 80.8385 201.297 79.4915 201.297 78.1137C201.295 76.2667 200.56 74.496 199.254 73.1899C197.947 71.8839 196.176 71.1493 194.328 71.1472Z" fill="#E6E6E6"/>
<path d="M193.772 81.0784C193.756 81.0784 193.74 81.0779 193.725 81.0772C193.585 81.0704 193.448 81.0335 193.324 80.969C193.2 80.9045 193.091 80.814 193.005 80.7035L191.765 79.1098C191.687 79.0092 191.629 78.8941 191.595 78.7712C191.561 78.6483 191.552 78.52 191.568 78.3935C191.584 78.267 191.624 78.1448 191.687 78.034C191.75 77.9232 191.835 77.8259 191.935 77.7477L191.98 77.7129C192.08 77.6346 192.196 77.5769 192.319 77.543C192.442 77.5092 192.57 77.4999 192.697 77.5157C192.823 77.5315 192.945 77.5721 193.056 77.6352C193.167 77.6982 193.264 77.7825 193.343 77.8832C193.405 77.9636 193.485 78.0295 193.575 78.0765C193.666 78.1234 193.765 78.1503 193.867 78.1552C193.969 78.1602 194.071 78.1431 194.165 78.1052C194.26 78.0672 194.345 78.0093 194.415 77.9354L196.933 75.2781C197.111 75.0915 197.355 74.9827 197.612 74.9757C197.869 74.9687 198.119 75.0641 198.306 75.2408L198.348 75.2801C198.44 75.3678 198.515 75.4728 198.567 75.5892C198.619 75.7056 198.647 75.8311 198.65 75.9585C198.654 76.0859 198.632 76.2128 198.587 76.3318C198.541 76.4509 198.472 76.5597 198.385 76.6523L194.477 80.7753C194.386 80.8711 194.277 80.9473 194.156 80.9995C194.035 81.0516 193.904 81.0785 193.772 81.0784Z" fill="#E6E6E6"/>
<path d="M155.025 181.262C153.468 181.262 151.945 180.801 150.651 179.936C149.356 179.071 148.347 177.842 147.751 176.404C147.155 174.966 146.999 173.384 147.303 171.857C147.607 170.331 148.357 168.928 149.458 167.828C150.559 166.727 151.962 165.978 153.489 165.674C155.016 165.37 156.599 165.526 158.038 166.122C159.476 166.718 160.706 167.726 161.571 169.02C162.436 170.315 162.898 171.836 162.898 173.393C162.896 175.479 162.065 177.479 160.589 178.955C159.113 180.43 157.112 181.26 155.025 181.262ZM155.025 166.426C153.646 166.426 152.299 166.835 151.153 167.6C150.006 168.366 149.113 169.454 148.586 170.727C148.058 172 147.92 173.4 148.189 174.752C148.458 176.103 149.122 177.344 150.096 178.319C151.071 179.293 152.313 179.956 153.665 180.225C155.017 180.494 156.418 180.356 157.692 179.829C158.965 179.302 160.054 178.409 160.82 177.263C161.586 176.117 161.994 174.77 161.994 173.393C161.992 171.546 161.257 169.775 159.951 168.469C158.644 167.163 156.873 166.428 155.025 166.426Z" fill="#E6E6E6"/>
<path d="M154.469 176.357C154.453 176.357 154.437 176.357 154.422 176.356C154.282 176.349 154.145 176.312 154.021 176.248C153.897 176.183 153.788 176.093 153.702 175.982L152.462 174.389C152.384 174.288 152.326 174.173 152.292 174.05C152.258 173.927 152.249 173.799 152.265 173.672C152.281 173.546 152.321 173.424 152.384 173.313C152.447 173.202 152.532 173.105 152.632 173.027L152.677 172.992C152.777 172.913 152.893 172.856 153.016 172.822C153.139 172.788 153.267 172.779 153.394 172.795C153.52 172.81 153.642 172.851 153.753 172.914C153.864 172.977 153.961 173.061 154.04 173.162C154.102 173.242 154.182 173.308 154.272 173.355C154.363 173.402 154.462 173.429 154.564 173.434C154.666 173.439 154.768 173.422 154.862 173.384C154.957 173.346 155.042 173.288 155.112 173.214L157.63 170.557C157.808 170.37 158.052 170.262 158.309 170.255C158.567 170.248 158.816 170.343 159.003 170.52L159.045 170.559C159.137 170.647 159.212 170.752 159.264 170.868C159.316 170.984 159.344 171.11 159.348 171.237C159.351 171.365 159.329 171.492 159.284 171.611C159.238 171.73 159.169 171.839 159.082 171.931L155.174 176.054C155.083 176.15 154.974 176.226 154.853 176.278C154.732 176.33 154.601 176.357 154.469 176.357Z" fill="#E6E6E6"/>
<path d="M68.7389 75.146C67.1817 75.146 65.6596 74.6844 64.3648 73.8197C63.0701 72.9549 62.061 71.7259 61.4651 70.2879C60.8692 68.8499 60.7133 67.2676 61.0171 65.741C61.3209 64.2144 62.0707 62.8122 63.1718 61.7116C64.2728 60.611 65.6757 59.8615 67.2029 59.5579C68.7302 59.2542 70.3132 59.4101 71.7518 60.0057C73.1904 60.6013 74.4201 61.61 75.2852 62.9042C76.1503 64.1983 76.612 65.7198 76.612 67.2763C76.6097 69.3627 75.7795 71.3631 74.3035 72.8384C72.8275 74.3137 70.8263 75.1436 68.7389 75.146ZM68.7389 60.3098C67.3604 60.3098 66.013 60.7184 64.8668 61.4838C63.7207 62.2493 62.8273 63.3374 62.2998 64.6103C61.7723 65.8833 61.6343 67.284 61.9032 68.6354C62.1721 69.9868 62.8359 71.2281 63.8107 72.2024C64.7854 73.1767 66.0272 73.8402 67.3792 74.109C68.7312 74.3778 70.1325 74.2398 71.4061 73.7125C72.6796 73.1853 73.7681 72.2923 74.5339 71.1467C75.2998 70.0011 75.7085 68.6541 75.7085 67.2763C75.7064 65.4293 74.9715 63.6586 73.6649 62.3525C72.3583 61.0465 70.5867 60.3119 68.7389 60.3098Z" fill="#E6E6E6"/>
<path d="M68.1833 70.241C68.1675 70.241 68.1517 70.2405 68.1358 70.2398C67.9961 70.233 67.8594 70.1961 67.7352 70.1316C67.611 70.0671 67.5023 69.9766 67.4164 69.8661L66.1762 68.2723C66.0979 68.1717 66.0401 68.0567 66.0063 67.9338C65.9725 67.8109 65.9632 67.6825 65.979 67.5561C65.9948 67.4296 66.0354 67.3074 66.0984 67.1966C66.1614 67.0858 66.2457 66.9885 66.3464 66.9103L66.391 66.8755C66.4916 66.7972 66.6068 66.7395 66.7297 66.7056C66.8527 66.6718 66.9812 66.6625 67.1078 66.6783C67.2343 66.6941 67.3566 66.7347 67.4674 66.7978C67.5783 66.8608 67.6757 66.9451 67.7539 67.0458C67.8166 67.1262 67.8959 67.1921 67.9863 67.2391C68.0768 67.286 68.1764 67.3129 68.2782 67.3178C68.3801 67.3228 68.4818 67.3057 68.5764 67.2678C68.671 67.2298 68.7563 67.1719 68.8265 67.098L71.3446 64.4407C71.5219 64.254 71.766 64.1453 72.0233 64.1383C72.2807 64.1313 72.5303 64.2267 72.7175 64.4034L72.7588 64.4427C72.8514 64.5304 72.9258 64.6354 72.9777 64.7518C73.0297 64.8682 73.0582 64.9937 73.0617 65.1211C73.0651 65.2485 73.0434 65.3754 72.9978 65.4944C72.9522 65.6135 72.8835 65.7223 72.7958 65.8148L68.8879 69.9379C68.7973 70.0336 68.688 70.1099 68.5669 70.162C68.4457 70.2142 68.3152 70.2411 68.1833 70.241Z" fill="#E6E6E6"/>
<path d="M131.771 210.522C113.514 210.522 92.5326 190.272 73.9691 199.893C17.7636 229.025 25.5006 180.278 9.35321 162.148L9.88333 161.085C27.7001 177.054 49.9449 190.046 74.2132 198.657C96.144 206.44 118.239 210.045 138.102 209.094L138.137 210.371C136.039 210.472 133.917 210.523 131.771 210.522Z" fill="#FFE57B"/>
<path d="M106.727 73.6055C108.835 73.6055 110.544 71.3154 110.544 68.4904C110.544 65.6655 108.835 63.3754 106.727 63.3754C104.62 63.3754 102.911 65.6655 102.911 68.4904C102.911 71.3154 104.62 73.6055 106.727 73.6055Z" fill="#E6E6E6"/>
<path d="M150.804 153.401C149.059 154.562 147.274 151.797 149.052 150.687C150.797 149.525 152.582 152.29 150.804 153.401Z" fill="#E6E6E6"/>
<path d="M140.762 60.2966C143.506 60.2966 145.731 58.0727 145.731 55.3295C145.731 52.5862 143.506 50.3623 140.762 50.3623C138.017 50.3623 135.792 52.5862 135.792 55.3295C135.792 58.0727 138.017 60.2966 140.762 60.2966Z" fill="#FF6584"/>
<path opacity="0.3" d="M158.143 82.549L186.42 0L155.37 81.5608C155.216 81.7544 155.111 81.9818 155.063 82.2242C155.015 82.4665 155.025 82.7168 155.093 82.9543C155.161 83.1918 155.285 83.4097 155.454 83.5898C155.623 83.77 155.833 83.9073 156.066 83.9902C156.299 84.0732 156.548 84.0995 156.793 84.0669C157.038 84.0343 157.272 83.9439 157.475 83.8029C157.678 83.662 157.844 83.4748 157.96 83.2567C158.077 83.0386 158.139 82.796 158.143 82.549Z" fill="#F0F0F0"/>
<path d="M129.6 183.118C132.271 183.118 134.435 180.954 134.435 178.285C134.435 175.616 132.271 173.452 129.6 173.452C126.93 173.452 124.766 175.616 124.766 178.285C124.766 180.954 126.93 183.118 129.6 183.118Z" fill="#F2F2F2"/>
<path d="M82.7736 180.128C82.7736 180.128 70.7205 187.973 73.9076 193.186C74.0175 193.366 59.5101 212.518 59.5101 212.518L32.1237 210.78L31.1588 219.943L55.5402 227.001C55.5402 227.001 61.5048 231.381 66.1126 226.555C70.7205 221.729 86.0687 206.95 86.0687 206.95L86.809 236.788L79.1042 278.134L90.6083 277.405L101.805 235.925L105.938 188.938L82.7736 180.128Z" fill="#2F2E41"/>
<path d="M91.3591 133.045L86.2905 136.884L80.5134 149.209L86.0686 156.751C86.0686 156.751 90.7415 164.845 83.2618 172.685C75.7822 180.524 70.0385 188.897 76.0253 188.598C82.0121 188.299 106.259 200.626 106.419 190.527C106.578 180.428 106.901 172.685 106.901 172.685L113.258 156.568C113.258 156.568 117.046 146.954 114.387 144.076C111.727 141.198 108.167 137.52 108.167 137.52L101.692 131.049H95.8463L91.3591 133.045Z" fill="#D9D9D9"/>
<path d="M100.821 109.365C112.192 115.832 102.857 132.897 91.2739 126.82C79.9033 120.353 89.2383 103.288 100.821 109.365Z" fill="#E7BCC2"/>
<path d="M106.901 112.951C106.105 113.986 104.44 113.501 101.18 114.24C101.187 113.135 101.06 112.034 100.8 110.961C100.557 112.29 100.026 113.55 99.2429 114.651C96.4123 114.965 99.8822 123.56 98.4329 129.88C96.5656 116.548 92.638 120.041 94.6222 122.685C95.8924 124.378 95.0456 129.457 91.2348 126.917C84.9473 129.904 75.9919 115.067 85.9172 108.108C85.7399 104.347 89.9268 103.753 92.5051 104.909C98.7622 100.25 105.911 106.22 106.901 112.951Z" fill="#2F2E41"/>
<path d="M77.7259 103.222C75.1943 118.781 61.6251 100.361 55.245 115.672C53.239 121.217 56.6808 125.183 58.8578 129.785C59.3547 133.568 54.4321 135.487 53.9165 138.968C53.773 146.95 66.656 146.462 70.2576 141.426C73.9582 136.154 69.5391 129.081 71.7635 123.423C74.8898 115.567 87.6038 115.509 88.7114 106.369C86.5663 103.315 80.7982 99.8185 77.7259 103.222Z" fill="#2F2E41"/>
<path d="M87.9813 104.743C87.8985 104.777 87.8157 104.812 87.7416 104.852H87.7372C87.6675 104.886 87.5977 104.921 87.528 104.96C87.5193 104.965 87.5149 104.969 87.5062 104.974C87.4147 104.886 87.3231 104.799 87.2272 104.712C87.2024 104.854 87.2084 105 87.2447 105.139L87.2578 105.191C87.3449 105.283 87.4365 105.37 87.5324 105.462C87.6196 105.396 87.7024 105.326 87.7895 105.261C87.8419 105.218 87.8942 105.174 87.9508 105.13C87.9595 105.017 87.9726 104.886 87.9857 104.743L87.9813 104.743ZM90.6054 99.8976C88.6613 99.4532 88.0336 101.993 87.8462 103.218C87.14 98.7735 84.2021 100.172 85.2178 103.205C85.5415 104.102 86.0509 104.922 86.7129 105.61C86.8044 105.714 86.9047 105.819 87.0093 105.923C86.8916 106.533 87.4844 106.376 88.2864 105.814C88.8787 105.393 89.4264 104.913 89.921 104.381C91.5208 102.704 92.7674 100.46 90.6054 99.8976ZM90.6664 102.399C90.0666 103.172 89.3937 103.885 88.657 104.529C88.4259 104.738 88.1906 104.939 87.9508 105.13C87.9465 105.17 87.9465 105.204 87.9421 105.235C87.9253 105.277 87.9049 105.318 87.8811 105.357C87.637 105.797 87.3624 105.557 87.2578 105.191C87.249 105.178 87.236 105.165 87.2272 105.152C86.8789 104.793 86.5759 104.392 86.3249 103.958C84.5247 100.839 87.4234 98.7169 87.2795 104.542C87.253 104.596 87.2354 104.653 87.2272 104.712C87.2024 104.854 87.2084 105 87.2447 105.139L87.2578 105.191C87.3449 105.283 87.4365 105.37 87.5324 105.462C87.6196 105.396 87.7024 105.326 87.7895 105.261C87.8419 105.218 87.8942 105.174 87.9508 105.13C87.9595 105.017 87.9726 104.886 87.9857 104.743V104.738C88.099 103.571 88.4085 101.471 88.9796 100.9C90.2349 99.9368 91.8608 100.978 90.6664 102.399ZM87.9813 104.743C87.8985 104.777 87.8157 104.812 87.7416 104.852H87.7372C87.6675 104.886 87.5977 104.921 87.528 104.96C87.5193 104.965 87.5149 104.969 87.5062 104.974C87.4147 104.886 87.3231 104.799 87.2272 104.712C87.2024 104.854 87.2084 105 87.2447 105.139L87.2578 105.191C87.3449 105.283 87.4365 105.37 87.5324 105.462C87.6196 105.396 87.7024 105.326 87.7895 105.261C87.8419 105.218 87.8942 105.174 87.9508 105.13C87.9595 105.017 87.9726 104.886 87.9857 104.743L87.9813 104.743Z" fill="#2F2E41"/>
<path d="M193.08 190.521L188.88 201.468L169.18 240.311L186.49 285.497L195.424 283.14L188.061 240.311L209.187 214.653L234.276 231.662C234.276 231.662 245.402 240.345 249.635 232.114C253.868 223.883 281.258 206.375 281.258 206.375L274.482 199.15L242.941 213.904L221.171 183.276L193.08 190.521Z" fill="#2F2E41"/>
<path d="M214.27 138.883L207.357 131.459L195.499 129.828L180.968 139.996L181.115 151.25L188.297 177.77C188.297 177.77 185.562 196.823 193.204 196.632C200.846 196.441 205.011 192.632 208.123 193.408C211.236 194.183 224.467 197.482 225.305 194.026C226.144 190.57 230.601 193.045 230.405 189.776C230.21 186.506 218.339 162.941 218.339 162.941L221.291 139.373L214.27 138.883Z" fill="#D9D9D9"/>
<path d="M258.042 104.709C258.103 105.324 258.03 105.946 257.825 106.53C257.62 107.114 257.29 107.646 256.858 108.089C256.425 108.532 255.901 108.874 255.322 109.092C254.742 109.31 254.122 109.399 253.505 109.352L237.607 139.573L233.339 133.024L249.589 104.502C249.737 103.47 250.258 102.529 251.054 101.857C251.85 101.184 252.865 100.827 253.907 100.852C254.949 100.878 255.945 101.284 256.707 101.995C257.469 102.706 257.944 103.671 258.042 104.709Z" fill="#FFB6B6"/>
<path d="M207.994 144.502C207.994 144.502 207.363 149.878 213.418 151.209C219.472 152.539 236.246 142.959 238.996 141.496C239.857 141.038 241.026 138.792 242.225 135.923C242.763 134.634 243.307 133.221 243.833 131.787C244.137 130.957 245.593 130.731 245.879 129.908C246.164 129.089 245.28 127.674 245.538 126.903C246.763 123.242 247.631 120.337 247.631 120.337L243.618 112.803C238.006 115.769 235.127 122.301 233.01 129.827L207.994 144.502Z" fill="#D9D9D9"/>
<path d="M137.285 111.649C137.379 112.26 137.606 112.844 137.95 113.358C138.295 113.872 138.748 114.305 139.277 114.625C139.807 114.946 140.4 115.146 141.016 115.212C141.631 115.279 142.254 115.209 142.84 115.009L165.798 140.292L168.29 132.884L145.417 109.334C145.015 108.372 144.275 107.592 143.336 107.14C142.397 106.688 141.325 106.595 140.322 106.881C139.32 107.166 138.457 107.809 137.897 108.688C137.337 109.567 137.119 110.62 137.285 111.649Z" fill="#FFB6B6"/>
<path d="M195.703 137.657C195.703 137.657 197.659 142.704 192.131 145.507C186.602 148.31 167.963 143.23 164.934 142.501C163.986 142.273 162.292 140.391 160.413 137.913C159.57 136.8 158.689 135.568 157.821 134.311C157.319 133.584 155.852 133.729 155.369 133.004C154.888 132.283 155.39 130.691 154.947 130.009C152.845 126.771 151.277 124.176 151.277 124.176L153.276 115.877C159.452 117.345 163.875 122.949 167.809 129.706L195.703 137.657Z" fill="#D9D9D9"/>
<path d="M201.664 127.94C207.896 127.94 212.948 122.89 212.948 116.661C212.948 110.433 207.896 105.383 201.664 105.383C195.433 105.383 190.381 110.433 190.381 116.661C190.381 122.89 195.433 127.94 201.664 127.94Z" fill="#FFB6B6"/>
<path d="M214.544 110.204C213.357 108.368 211.13 107.145 208.971 107.489C208.77 106.112 208.195 104.816 207.308 103.743C206.421 102.669 205.257 101.86 203.942 101.402C202.627 100.945 201.211 100.856 199.85 101.147C198.488 101.438 197.232 102.097 196.219 103.052C195.886 102.817 195.497 102.673 195.092 102.632C194.686 102.592 194.277 102.656 193.904 102.82C193.161 103.158 192.515 103.677 192.024 104.329C190.785 105.873 189.988 107.724 189.718 109.686C189.449 111.647 189.716 113.644 190.492 115.466C190.228 114.507 191.189 113.605 192.16 113.389C193.132 113.174 194.151 113.378 195.136 113.238C196.398 113.058 197.533 112.326 198.797 112.161C199.87 112.092 200.945 112.23 201.965 112.568C202.985 112.907 204.059 113.051 205.131 112.993C206.196 112.867 207.566 116.898 207.548 119.738C207.545 120.276 207.655 120.967 208.182 121.081C208.829 121.221 209.205 120.328 209.821 120.084C210.106 120.003 210.41 120.035 210.671 120.173C210.932 120.312 211.129 120.547 211.221 120.828C211.299 121.114 211.307 121.414 211.245 121.703C211.183 121.993 211.053 122.264 210.866 122.493C210.487 122.947 210.037 123.337 209.533 123.648L209.787 123.859C210.028 124.114 210.35 124.277 210.698 124.32C211.046 124.363 211.399 124.284 211.695 124.096C212.277 123.702 212.749 123.165 213.064 122.537C214.255 120.698 215.106 118.66 215.577 116.52C215.974 114.371 215.731 112.039 214.544 110.204Z" fill="#2F2E41"/>
<path d="M298.017 154.685C283.463 165.703 254.505 162.223 245.519 181.096C218.31 238.238 195.033 194.709 171.21 190.002L170.991 188.835C194.839 190.812 220.42 187.744 244.967 179.963C267.15 172.932 286.942 162.472 302.201 149.726L303 150.723C301.389 152.07 299.728 153.391 298.017 154.685Z" fill="#FFDFAB"/>
<path d="M236.485 304.349C236.138 305.375 38.2345 305.375 37.8605 304.351C38.2067 303.323 236.11 303.323 236.485 304.349Z" fill="#CCCCCC"/>
</g>
<defs>
<clipPath id="clip0_11_2">
<rect width="303" height="305.119" fill="white"/>
</clipPath>
</defs>
</svg>
