<svg width="26" height="28" viewBox="0 0 26 28" fill="none" xmlns="http://www.w3.org/2000/svg">
<mask id="mask0_32_107" style="mask-type:luminance" maskUnits="userSpaceOnUse" x="0" y="0" width="26" height="28">
<path d="M0 0H25.4607V27.8177H0V0Z" fill="white"/>
</mask>
<g mask="url(#mask0_32_107)">
<path d="M15.9659 0.0357603C15.588 -0.12816 15.2101 0.353631 14.8161 0.774326L14.2879 1.3306L10.0186 5.73209C8.90598 6.88095 7.12894 6.36627 5.69976 6.00268L4.25107 5.66402C3.42394 5.51861 1.47991 5.10774 0.906148 5.09962C-0.564234 5.07712 0.450902 6.65295 0.896123 7.52083L2.80225 11.3418C3.49906 12.7683 3.75628 13.636 3.70286 14.377C3.64943 15.1282 3.28702 15.7151 2.74883 16.591C2.38271 17.1841 1.94353 17.9002 1.45437 18.8626C1.08426 19.5955 0.276632 21.0704 0.100851 21.6331C-0.108988 22.296 0.16979 22.6076 0.813177 22.5828C1.15156 22.5707 1.6046 22.48 2.19677 22.3629L2.20061 22.3607C3.7089 22.0612 5.59113 21.7698 7.18236 21.513C9.41698 21.1517 10.2383 22.0035 11.5191 23.637V23.6393C11.9326 24.1604 12.394 24.7414 12.9678 25.3507L14.1649 26.6865C14.5683 27.1441 15.0949 27.8416 15.5307 27.7783C16.0077 27.7108 16.1005 27.0501 16.3043 25.667L16.9989 21.1524C17.5632 17.5222 18.6557 17.6043 21.4323 16.3936C22.2321 16.0445 23.1721 15.5523 23.9736 15.1645L23.9774 15.1623C24.9654 14.6839 25.4578 14.4462 25.4602 14.0255C25.4602 13.8266 25.3533 13.6683 25.1395 13.5085C24.7873 13.2419 23.3269 12.5357 22.747 12.2281L19.0498 10.2622C16.9694 9.15604 16.867 6.89477 16.72 4.66454C16.6945 4.27447 16.6688 3.87642 16.6332 3.4684C16.5698 2.72171 16.4551 1.96819 16.3738 1.2376C16.2943 0.527948 16.2547 0.160943 15.9659 0.0357603Z" fill="#FFCF6E"/>
</g>
<path fill-rule="evenodd" clip-rule="evenodd" d="M4.12627 18.1361C4.40505 17.461 5.1653 16.2666 5.54708 15.3168C5.92721 14.3648 5.93119 13.6567 5.6796 12.8709C5.42637 12.085 4.91935 11.2188 4.45627 10.4167C3.9932 9.61467 3.57586 8.87781 3.46668 8.42664C3.35984 7.97717 3.56185 7.81496 4.00487 8.13753C4.45009 8.46181 5.13523 9.27258 5.73687 10.093C6.33851 10.9136 6.8572 11.7451 7.11661 12.3792C7.37589 13.0134 7.37589 13.4502 7.23128 14.0023C7.08489 14.5546 6.79609 15.221 6.38643 15.9828C5.97678 16.7438 5.44806 17.5995 5.07233 18.1396C4.69619 18.6814 4.47468 18.9047 4.26099 18.9376C4.04882 18.9694 3.84681 18.813 4.12627 18.1361ZM16.9476 11.3706C17.5197 11.3111 18.5148 11.7439 19.4732 12.1444C20.4309 12.5443 21.3516 12.9119 21.8441 13.1847C22.3367 13.4577 22.4023 13.6359 21.9804 13.6937C21.5591 13.7514 20.6503 13.6896 19.7442 13.5788C18.8377 13.4704 17.9332 13.3122 17.3237 13.1293C16.7121 12.947 16.3954 12.7393 16.3102 12.3596C16.2268 11.9799 16.3755 11.43 16.9476 11.3706ZM11.7042 6.40705C12.1657 5.71576 13.2481 4.50922 13.8792 3.85838C14.5104 3.20811 14.6907 3.11341 14.7937 3.19358C14.8944 3.27149 14.9161 3.52199 14.772 3.99567C14.6295 4.47176 14.319 5.16931 14.1069 5.7666C13.8949 6.36375 13.7824 6.86007 13.6377 7.19304C13.4931 7.52771 13.315 7.6979 12.9649 7.71228C12.6125 7.72667 12.0883 7.58297 11.7454 7.42489C11.4038 7.26852 11.2435 7.09662 11.7042 6.40705Z" fill="white"/>
<path d="M10.8381 15.6794C10.9887 15.6795 11.1238 15.7306 11.2356 15.8308L11.3118 15.9138C11.376 15.9993 11.4118 16.0999 11.4211 16.2117L11.635 17.6677L11.9514 16.2253L11.9524 16.2185L11.9553 16.2117C11.9996 16.0743 12.068 15.9566 12.1692 15.8738C12.2718 15.7899 12.3959 15.7521 12.5315 15.7517L14.6282 15.7273H14.6301C14.8398 15.7273 15.0094 15.8174 15.1184 15.9949H15.1194C15.2209 16.1605 15.2476 16.3429 15.1995 16.532L15.1975 16.5378L14.0647 20.365L15.1506 23.7068L15.1711 23.78C15.2051 23.9276 15.1893 24.0702 15.1184 24.2L15.0784 24.2634C14.962 24.4258 14.7962 24.5104 14.5959 24.5105H12.6018C12.4629 24.5104 12.3387 24.4589 12.2336 24.366C12.1303 24.274 12.0615 24.1587 12.0315 24.0242V24.0222L11.6526 22.2009L11.2131 24.0623L11.2112 24.0671C11.1832 24.1688 11.1381 24.2596 11.0735 24.3347L11.0022 24.405C10.8955 24.4936 10.7674 24.53 10.6282 24.5212V24.5222H10.6204V24.5212L8.62329 24.4744H8.61743C8.44718 24.4637 8.30231 24.3801 8.18579 24.2449C8.05162 24.0889 8.02514 23.8954 8.0813 23.6912L9.06665 20.0466L8.1145 16.4626C8.05981 16.2548 8.08312 16.0586 8.21313 15.9011V15.9001C8.33367 15.7549 8.4946 15.6794 8.68384 15.6794H10.8381Z" fill="white" stroke="#3F3D56" stroke-width="0.3"/>
<path d="M18.8467 15.7031L19.2666 15.7139C19.6761 15.7359 20.053 15.7917 20.3965 15.8809C20.8606 16.0011 21.2556 16.2098 21.5771 16.5098H21.5781C21.9048 16.8142 22.128 17.2311 22.2559 17.749C22.3132 17.9531 22.3507 18.209 22.3701 18.5117C22.3895 18.8159 22.3877 19.1332 22.3643 19.4639C22.3408 19.7977 22.2872 20.1152 22.2041 20.415C22.12 20.718 22.0004 20.9734 21.8398 21.1748L21.8389 21.1738C21.5659 21.5232 21.2396 21.7908 20.8584 21.9717C20.4846 22.1489 20.0761 22.2676 19.6348 22.3291C19.2463 22.3829 18.8395 22.417 18.415 22.4355L18.4463 23.7871H18.4453C18.4611 23.9591 18.4105 24.1134 18.2881 24.2354H18.2871C18.1763 24.3454 18.0451 24.4141 17.8955 24.4141L17.8965 24.415L15.9482 24.4277H15.9473C15.7909 24.4276 15.6589 24.3579 15.5576 24.2373C15.4573 24.1174 15.4083 23.9735 15.4082 23.8145L15.3848 16.3057V16.3047C15.3848 16.1921 15.4166 16.087 15.4736 15.9902L15.5391 15.8955C15.6389 15.7723 15.7681 15.6914 15.9248 15.6914L18.8467 15.7031ZM18.3623 19.7314H18.8008C19.0444 19.7314 19.2098 19.672 19.3184 19.5742C19.4376 19.4671 19.4932 19.3506 19.499 19.2217C19.5042 19.1039 19.456 18.9912 19.3242 18.8799L19.2832 18.8555C19.2638 18.8463 19.2378 18.8362 19.2041 18.8262C19.1385 18.8066 19.0518 18.7896 18.9424 18.7764C18.7611 18.7545 18.559 18.7406 18.3359 18.7314L18.3623 19.7314Z" fill="white" stroke="#3F3D56" stroke-width="0.3"/>
</svg>
