<svg width="25" height="25" viewBox="0 0 25 25" fill="none" xmlns="http://www.w3.org/2000/svg">
<path d="M24.41 12.2861C24.41 11.2978 24.327 10.5767 24.1471 9.82886H12.4541V14.2892H19.3177C19.1793 15.3977 18.432 17.067 16.7714 18.1887L16.7482 18.3381L20.4453 21.1021L20.7015 21.1268C23.0539 19.0301 24.41 15.9452 24.41 12.2861Z" fill="#4285F4"/>
<path d="M12.4538 24.0378C15.8163 24.0378 18.6392 22.9694 20.7011 21.1264L16.7711 18.1884C15.7195 18.8962 14.308 19.3903 12.4538 19.3903C9.16041 19.3903 6.36516 17.2936 5.36875 14.3958L5.2227 14.4077L1.3784 17.2789L1.32812 17.4138C3.37611 21.34 7.58283 24.0378 12.4538 24.0378Z" fill="#34A853"/>
<path d="M5.36903 14.3963C5.10612 13.6485 4.95396 12.8471 4.95396 12.0192C4.95396 11.1912 5.10612 10.3899 5.3552 9.64208L5.34823 9.48274L1.45575 6.56543L1.3284 6.62389C0.484329 8.2532 0 10.0828 0 12.0192C0 13.9555 0.484329 15.7851 1.3284 17.4144L5.36903 14.3963Z" fill="#FBBC05"/>
<path d="M12.4538 4.64734C14.7924 4.64734 16.3699 5.62221 17.2694 6.43689L20.7842 3.12495C18.6256 1.18855 15.8164 0 12.4538 0C7.58283 0 3.37612 2.69759 1.32812 6.62377L5.35494 9.64194C6.3652 6.74402 9.16041 4.64734 12.4538 4.64734Z" fill="#EB4335"/>
</svg>
