<svg width="27" height="22" viewBox="0 0 27 22" fill="none" xmlns="http://www.w3.org/2000/svg">
<path d="M25.0738 6.36701C24.9647 5.54625 24.9493 4.13259 25.7116 3.65791C25.7252 3.64921 25.7354 3.63664 25.7473 3.62584C26.3706 3.42649 26.8019 3.14672 26.4633 2.77026L17.2692 0L2.38193 2.0698C2.38193 2.0698 0.677142 2.31347 0.829434 4.96206C0.912106 6.4036 1.36423 7.11155 1.75962 7.45997L0.537984 7.82813C0.198912 8.20459 0.630165 8.48444 1.25351 8.68346C1.26536 8.69458 1.27535 8.70707 1.28921 8.71577C2.05107 9.19086 2.03641 10.6044 1.92682 11.4253C-0.810163 12.2025 0.172322 12.4557 0.172322 12.4557L0.772707 12.601C0.350399 12.9826 -0.0690088 13.7063 0.00955457 15.0788C0.161927 17.7269 1.56221 17.9096 1.56221 17.9096L11.3044 21.0762L26.009 17.5145C26.009 17.5145 26.9918 17.2608 24.2541 16.4836C24.1441 15.6639 24.1287 14.2506 24.8924 13.7743C24.9064 13.7658 24.9166 13.753 24.928 13.7424C25.5513 13.543 25.9823 13.2635 25.6436 12.887L25.0045 12.6941C25.4307 12.437 26.071 11.7652 26.1713 10.0202C26.2405 8.81996 25.9274 8.117 25.565 7.70315L26.8283 7.39744C26.8283 7.39793 27.8111 7.14427 25.0738 6.36701ZM12.7743 6.33309L15.2471 5.82489L23.6036 4.10761L24.8486 3.85154C24.4508 4.57964 24.4675 5.57606 24.5333 6.21649C24.5477 6.36137 24.5643 6.49368 24.5805 6.59424L23.2177 6.93307L12.6703 9.55693L12.7743 6.33309ZM2.15228 8.91021L3.39713 9.16629L11.4224 10.816L12.1235 10.9596L14.2261 11.3918L14.3298 14.6157L3.48931 11.9187L2.4206 11.6531C2.43632 11.5524 2.45291 11.4202 2.46798 11.2749C2.53341 10.635 2.55041 9.63831 2.15228 8.91021ZM1.66865 4.83459C1.65358 4.13009 1.77912 3.6206 2.03286 3.36162C2.19434 3.19628 2.38491 3.16187 2.5156 3.16187C2.58466 3.16187 2.63438 3.17146 2.63776 3.17146L9.05232 5.26269L12.2526 6.3061L12.1476 9.55249L3.16949 7.03541L2.6957 6.90269C2.67829 6.89778 2.65468 6.8944 2.63647 6.89359C2.59949 6.89093 1.71184 6.80922 1.66865 4.83459ZM11.3276 19.6697L1.8759 17.0198C1.85841 17.0147 1.83504 17.0113 1.81683 17.0105C1.7792 17.008 0.891156 16.9263 0.848208 14.9522C0.832898 14.2468 0.959083 13.7378 1.21234 13.4786C1.37422 13.3132 1.56487 13.2788 1.69532 13.2788C1.76454 13.2788 1.81409 13.2881 1.81772 13.2881L11.4319 16.4232L11.3276 19.6697ZM23.7128 16.3332C23.7277 16.4786 23.7443 16.6106 23.7604 16.7113L11.8501 19.6743L11.9542 16.4504L14.5005 15.9268L14.8766 16.0178L16.286 15.5597L22.7831 14.2246L24.0286 13.9684C23.6304 14.6964 23.6469 15.6932 23.7128 16.3332ZM24.3689 11.9518C24.3472 11.9523 24.3255 11.9552 24.3051 11.9616L23.4068 12.2131L14.8537 14.6114L14.7491 11.365L17.5553 10.4497L24.3502 8.23376C24.3511 8.23336 24.7076 8.15415 24.9693 8.4203C25.2227 8.67927 25.3484 9.18877 25.3335 9.89326C25.2892 11.8673 24.4012 11.9493 24.3689 11.9518Z" fill="white"/>
</svg>
