<svg width="70" height="66" viewBox="0 0 70 66" fill="none" xmlns="http://www.w3.org/2000/svg">
<g clip-path="url(#clip0_10_82)">
<path d="M65.217 66H2.99998C2.20461 65.9991 1.44207 65.6815 0.87966 65.1168C0.317248 64.5521 0.000893662 63.7864 0 62.9879V36.0993C0.000904432 35.3007 0.317261 34.5351 0.879671 33.9704C1.44208 33.4057 2.20461 33.0881 2.99998 33.0872H65.217C66.0123 33.0881 66.7749 33.4057 67.3373 33.9704C67.8997 34.5351 68.2161 35.3007 68.217 36.0993V62.9879C68.2161 63.7864 67.8997 64.5521 67.3373 65.1168C66.7749 65.6815 66.0123 65.9991 65.217 66Z" fill="white"/>
<path d="M65.217 66H2.99998C2.20461 65.9991 1.44207 65.6815 0.87966 65.1168C0.317248 64.5521 0.000893662 63.7865 0 62.9879V36.0993C0.00090473 35.3008 0.317261 34.5351 0.879671 33.9704C1.44208 33.4058 2.20461 33.0881 2.99998 33.0872C21.5604 31.0542 42.694 31.4225 65.217 33.0872C66.0123 33.0881 66.7749 33.4058 67.3373 33.9704C67.8997 34.5351 68.216 35.3008 68.217 36.0993C70.5486 43.8957 70.6397 54.9773 68.217 62.9879C68.2161 63.7865 67.8997 64.5521 67.3373 65.1168C66.7749 65.6815 66.0123 65.9991 65.217 66ZM2.99998 33.3491C2.64027 33.3491 2.28409 33.4203 1.95177 33.5585C1.61944 33.6967 1.31748 33.8993 1.06313 34.1546C0.808784 34.41 0.607021 34.7132 0.469368 35.0469C0.331715 35.3806 0.260866 35.7382 0.260866 36.0993V62.9879C0.260866 63.7173 0.549451 64.4168 1.06313 64.9326C1.57682 65.4483 2.27352 65.7381 2.99998 65.7381H65.217C65.9434 65.7381 66.6401 65.4483 67.1538 64.9326C67.6675 64.4168 67.9561 63.7173 67.9561 62.9879V50.8658C67.9561 46.2201 66.118 41.7647 62.8463 38.4796C59.5745 35.1946 55.1371 33.3491 50.5101 33.3491L2.99998 33.3491Z" fill="#E6E6E6"/>
<path d="M45.787 37.0719H37.9683C37.9254 37.0721 37.8829 37.0637 37.8432 37.0474C37.8036 37.031 37.7675 37.0069 37.7371 36.9765C37.7068 36.9461 37.6827 36.91 37.6662 36.8703C37.6498 36.8305 37.6413 36.7879 37.6413 36.7448C37.6413 36.7017 37.6498 36.6591 37.6662 36.6193C37.6827 36.5796 37.7068 36.5435 37.7371 36.5131C37.7675 36.4827 37.8036 36.4586 37.8432 36.4422C37.8829 36.4259 37.9254 36.4175 37.9683 36.4177H45.787C45.8299 36.4175 45.8724 36.4259 45.912 36.4422C45.9517 36.4586 45.9878 36.4827 46.0181 36.5131C46.0485 36.5435 46.0726 36.5796 46.0891 36.6193C46.1055 36.6591 46.114 36.7017 46.114 36.7448C46.114 36.7879 46.1055 36.8305 46.0891 36.8703C46.0726 36.91 46.0485 36.9461 46.0181 36.9765C45.9878 37.0069 45.9517 37.031 45.912 37.0474C45.8724 37.0637 45.8299 37.0721 45.787 37.0719Z" fill="#536DFE"/>
<path d="M38.9911 47.1933H31.1724C31.1295 47.1935 31.087 47.1851 31.0474 47.1688C31.0077 47.1524 30.9717 47.1283 30.9413 47.0979C30.9109 47.0675 30.8868 47.0314 30.8703 46.9917C30.8539 46.9519 30.8454 46.9093 30.8454 46.8662C30.8454 46.8231 30.8539 46.7805 30.8703 46.7407C30.8868 46.701 30.9109 46.6649 30.9413 46.6345C30.9717 46.6041 31.0077 46.58 31.0474 46.5636C31.087 46.5473 31.1295 46.5389 31.1724 46.5391H38.9911C39.034 46.5389 39.0765 46.5473 39.1162 46.5636C39.1558 46.58 39.1919 46.6041 39.2223 46.6345C39.2527 46.6649 39.2768 46.701 39.2932 46.7407C39.3097 46.7805 39.3181 46.8231 39.3181 46.8662C39.3181 46.9093 39.3097 46.9519 39.2932 46.9917C39.2768 47.0314 39.2527 47.0675 39.2223 47.0979C39.1919 47.1283 39.1558 47.1524 39.1162 47.1688C39.0765 47.1851 39.034 47.1935 38.9911 47.1933Z" fill="#536DFE"/>
<path d="M45.166 46.5194C44.8386 46.0523 44.5668 45.5484 44.3561 45.0179C44.3497 45.0018 44.3388 44.9881 44.3245 44.9785C44.3103 44.9688 44.2936 44.9636 44.2764 44.9636C44.2592 44.9636 44.2425 44.9688 44.2283 44.9785C44.2141 44.9881 44.2031 45.0019 44.1967 45.0179C43.9861 45.5484 43.7144 46.0523 43.387 46.5194C43.3761 46.5344 43.3702 46.5525 43.3704 46.5711C43.3705 46.5897 43.3766 46.6078 43.3878 46.6226C43.3989 46.6375 43.4145 46.6483 43.4323 46.6536C43.4501 46.6588 43.4691 46.6582 43.4864 46.6517L44.1631 46.4059V50.6119H44.3897V46.4059L45.0666 46.6518C45.084 46.6582 45.1029 46.6588 45.1207 46.6536C45.1385 46.6483 45.1541 46.6375 45.1652 46.6227C45.1764 46.6078 45.1825 46.5898 45.1826 46.5712C45.1828 46.5526 45.177 46.5344 45.166 46.5194Z" fill="#3F3D56"/>
<path d="M38.0133 39.1042C38.007 39.0882 37.996 39.0745 37.9818 39.0648C37.9675 39.0552 37.9508 39.05 37.9336 39.05C37.9165 39.05 37.8997 39.0552 37.8855 39.0649C37.8713 39.0745 37.8603 39.0883 37.8539 39.1043C37.6434 39.6348 37.3716 40.1387 37.0442 40.6058C37.0333 40.6208 37.0274 40.6389 37.0276 40.6575C37.0277 40.6761 37.0338 40.6942 37.045 40.709C37.0561 40.7239 37.0718 40.7347 37.0895 40.7399C37.1073 40.7452 37.1263 40.7445 37.1436 40.7381L37.8203 40.4923V44.6983H38.0469V40.4923L38.7238 40.7382C38.7412 40.7446 38.7602 40.7452 38.7779 40.74C38.7957 40.7347 38.8113 40.7239 38.8225 40.709C38.8336 40.6942 38.8397 40.6762 38.8399 40.6576C38.84 40.639 38.8342 40.6208 38.8233 40.6058C38.4958 40.1387 38.224 39.6348 38.0133 39.1042Z" fill="#3F3D56"/>
<path d="M31.6705 48.5433C31.6642 48.5273 31.6532 48.5136 31.639 48.5039C31.6247 48.4942 31.608 48.4891 31.5908 48.4891C31.5737 48.4891 31.5569 48.4943 31.5427 48.5039C31.5285 48.5136 31.5175 48.5273 31.5111 48.5433C31.3006 49.0739 31.0288 49.5778 30.7014 50.0448C30.6905 50.0598 30.6846 50.078 30.6848 50.0966C30.6849 50.1152 30.691 50.1332 30.7022 50.1481C30.7133 50.1629 30.729 50.1738 30.7467 50.179C30.7645 50.1842 30.7835 50.1836 30.8008 50.1772L31.4775 49.9314V54.1373H31.7041V49.9314L32.381 50.1772C32.3984 50.1836 32.4174 50.1843 32.4351 50.179C32.4529 50.1738 32.4685 50.1629 32.4797 50.1481C32.4908 50.1333 32.4969 50.1152 32.497 50.0966C32.4972 50.078 32.4914 50.0599 32.4804 50.0449C32.153 49.5778 31.8812 49.0738 31.6705 48.5433Z" fill="#3F3D56"/>
<path d="M59.4538 51.9766V50.157C55.838 47.4866 53.8336 47.4584 52.6579 47.9963C51.1656 48.6789 50.6778 50.4244 50.1169 51.9766H59.4538Z" fill="#F2F2F2"/>
<path d="M30.3597 59.0274C29.576 58.4126 29.2363 56.7503 27.6266 56.2981C26.6877 56.0343 25.8959 56.3453 24.5684 56.8667C22.8191 57.5538 22.0482 58.3331 21.0128 59.0274H30.3597Z" fill="#F2F2F2"/>
<path d="M33.8458 55.8432C32.7968 57.1774 32.2846 58.5064 31.6162 59.0274H59.4538V55.8432H33.8458Z" fill="#F2F2F2"/>
<path d="M49.9908 52.3177C49.5624 53.4423 49.0501 54.4093 48.0141 54.7059C46.1903 55.2281 45.3723 52.9207 41.8978 52.5452C41.5435 52.5069 38.4683 52.2173 35.7816 54.0236C35.1659 54.4394 34.6088 54.9367 34.1255 55.502H59.4538V52.3177H49.9908Z" fill="#F2F2F2"/>
<path d="M38.7264 54.4785C39.6648 54.4785 40.4254 53.7147 40.4254 52.7726C40.4254 51.8305 39.6648 51.0668 38.7264 51.0668C37.7881 51.0668 37.0275 51.8305 37.0275 52.7726C37.0275 53.7147 37.7881 54.4785 38.7264 54.4785Z" fill="#536DFE"/>
<path d="M18.0448 64.0448L19.6605 64.0447L20.429 57.7874L18.0444 57.7876L18.0448 64.0448Z" fill="#FFB6B6"/>
<path d="M17.9879 65.7371L22.9563 65.7369V65.6738C22.9563 65.1589 22.7526 64.665 22.3899 64.3009C22.0272 63.9368 21.5354 63.7322 21.0225 63.7322L20.1148 63.0409L18.4216 63.7323L17.9879 63.7323L17.9879 65.7371Z" fill="#2F2E41"/>
<path d="M18.9539 57.4909L17.6404 58.4356L13.3858 53.799L15.3242 52.4045L18.9539 57.4909Z" fill="#FFB6B6"/>
<path d="M19.9818 58.8332L15.9432 61.7388L15.9066 61.6875C15.6079 61.2689 15.487 60.7483 15.5705 60.2402C15.6541 59.7322 15.9352 59.2782 16.3521 58.9782L16.3522 58.9782L16.6888 57.8855L18.4663 57.4572L18.8189 57.2036L19.9818 58.8332Z" fill="#2F2E41"/>
<path d="M12.8958 28.4495C12.8958 28.4495 2.87893 39.2714 4.6115 42.4436C6.34407 45.6158 14.7012 56.4627 14.7012 56.4627L16.9923 53.8213C15.0667 49.2338 12.9948 45.2244 10.5777 42.5787L17.5817 37.3836C17.5817 37.3836 18.0971 45.9833 17.6731 47.3345C17.2491 48.6857 16.5356 47.9694 17.2491 48.6857C17.9625 49.402 18.3223 49.5335 17.9386 49.9794C17.5548 50.4253 17.2788 60.5833 17.2788 60.5833H20.5746C20.5746 60.5833 23.6502 41.8692 23.4561 41.1843C23.2621 40.4994 23.3734 40.8134 23.3687 39.9401C23.364 39.0668 24.7705 31.9123 24.7705 31.9123L12.8958 28.4495Z" fill="#2F2E41"/>
<path d="M19.695 8.1908L16.5356 8.39545L14.4624 11.0615L11.0129 13.7008L13.2016 20.3888C13.2016 20.3888 13.0938 23.8068 12.7254 24.2363C12.3571 24.6658 11.7456 24.1541 12.3571 25.0751C12.7299 25.6587 12.941 26.3315 12.9686 27.0243C12.9686 27.0243 9.48416 29.9357 10.7264 30.7032C11.9687 31.4706 14.478 29.4752 15.7616 30.652C17.0452 31.8288 25.5724 34.1985 25.6062 32.5451C25.6399 30.8917 23.477 17.9813 23.477 17.9813L23.9755 11.7723L21.1219 9.82806L19.695 8.1908Z" fill="#536DFE"/>
<path d="M14.6942 34.278L13.6233 31.0411L11.6964 31.3974L12.9499 34.7792C12.8737 34.9773 12.854 35.1929 12.8931 35.4016C12.9322 35.6104 13.0286 35.804 13.1713 35.9608C13.314 36.1176 13.4975 36.2313 13.701 36.2891C13.9046 36.347 14.1202 36.3467 14.3235 36.2882C14.5269 36.2298 14.71 36.1156 14.8523 35.9584C14.9946 35.8012 15.0904 35.6072 15.1289 35.3984C15.1674 35.1895 15.1471 34.974 15.0703 34.7761C14.9936 34.5782 14.8633 34.4057 14.6942 34.278Z" fill="#FFB6B6"/>
<path d="M11.8446 13.1799L11.7938 13.2011C11.3213 13.399 10.904 13.7094 10.5779 14.1057C10.2519 14.5019 10.0269 14.972 9.92251 15.4752C9.64938 16.7878 9.38064 18.6864 9.59311 20.4641C9.96835 23.6039 9.19937 24.9854 9.69971 25.9901C10.2 26.9949 10.3251 26.6181 10.2 27.3716C10.075 28.1252 9.44953 27.4972 10.075 28.502C10.7004 29.5067 11.0756 29.2555 10.8255 29.7579C10.5753 30.2602 10.2 30.2602 10.7004 30.8882C11.2007 31.5161 11.2007 31.7673 11.3258 32.0185C11.4509 32.2697 11.8261 34.1535 11.8261 34.1535C11.8261 34.1535 13.8275 33.5256 14.9532 33.7768C14.9532 33.7768 13.9525 32.0185 14.2027 31.6417C14.4529 31.265 14.8281 31.1394 14.4529 30.7626C14.0776 30.3858 13.4522 30.5114 14.0776 30.1346C14.703 29.7579 14.1916 22.1075 14.1916 22.1075L11.8446 13.1799Z" fill="#536DFE"/>
<path d="M28.4287 30.5227L27.6978 27.1918L29.5346 26.507L30.1826 30.0562C30.3492 30.1873 30.476 30.3623 30.5488 30.5617C30.6217 30.7611 30.6377 30.977 30.5951 31.185C30.5525 31.3931 30.4529 31.5851 30.3076 31.7394C30.1622 31.8938 29.9769 32.0043 29.7724 32.0587C29.5679 32.1131 29.3523 32.1091 29.15 32.0473C28.9476 31.9854 28.7664 31.868 28.6268 31.7085C28.4872 31.5489 28.3947 31.3533 28.3597 31.1439C28.3247 30.9344 28.3486 30.7193 28.4287 30.5227Z" fill="#FFB6B6"/>
<path d="M20.9915 10.4115L21.0459 10.4037C21.5527 10.3307 22.0695 10.3828 22.5516 10.5555C23.0338 10.7282 23.4668 11.0163 23.8131 11.3948C24.7171 12.3818 25.9162 13.8744 26.6404 15.5106C27.9194 18.4005 28.4091 19.7157 28.4918 20.8359C28.5745 21.9562 28.2749 21.6969 28.7666 22.2798C29.2584 22.8628 29.4753 22.0018 29.4506 23.1864C29.4258 24.3709 28.9754 24.3481 29.4465 24.651C29.9175 24.9539 30.2399 24.7609 30.1304 25.5576C30.0209 26.3542 30.149 26.5699 30.1697 26.85C30.1903 27.1301 30.8288 28.9411 30.8288 28.9411C30.8288 28.9411 28.7895 29.4307 27.9507 30.2253C27.9507 30.2253 27.9134 28.2006 27.5064 28.0056C27.0994 27.8106 26.713 27.8956 26.8431 27.3791C26.9733 26.8625 27.5746 26.6488 26.8452 26.6467C26.1158 26.6447 21.7334 17.1958 21.7334 17.1958L20.9915 10.4115Z" fill="#536DFE"/>
<path d="M17.9334 7.862C19.7703 7.862 21.2594 6.36688 21.2594 4.52255C21.2594 2.67823 19.7703 1.18311 17.9334 1.18311C16.0965 1.18311 14.6075 2.67823 14.6075 4.52255C14.6075 6.36688 16.0965 7.862 17.9334 7.862Z" fill="#FFB6B6"/>
<path d="M21.8102 3.43743C21.4685 3.59383 21.2472 4.72659 20.9787 4.46325C20.7102 4.19991 20.7281 3.85721 20.3661 3.76002C20.0737 3.6812 19.7591 3.77128 19.4925 3.91335C19.4449 3.93842 19.3987 3.96567 19.3537 3.99278C19.324 3.97286 19.2945 3.95411 19.2627 3.93682C19.0242 3.80866 18.7458 3.77722 18.4849 3.84897C18.6911 3.91831 18.8703 4.05096 18.9973 4.22817C18.9081 4.28822 18.8177 4.34843 18.7252 4.40177C17.9528 4.84935 16.8536 3.87611 16.0405 3.51049C16.5498 4.47008 16.299 4.8675 15.8568 5.85992L15.8415 5.91643C15.8667 5.6677 15.1001 5.48234 15.1446 5.83247C15.2222 6.18709 15.3452 6.53015 15.5104 6.85313C14.6555 5.86067 14.0713 4.64615 14.1946 3.39329C14.2215 3.1301 14.2134 2.8524 14.3486 2.62397C14.4839 2.39672 14.7661 2.23725 15.0157 2.3239C14.9946 1.92435 15.0816 1.52651 15.2677 1.17268C15.4537 0.81885 15.7318 0.522254 16.0723 0.314423C16.4129 0.106593 16.8031 -0.00470245 17.2016 -0.0076311C17.6001 -0.0105598 17.9919 0.0949874 18.3354 0.297791C18.6546 0.48585 18.9211 0.751827 19.2137 0.981254C19.5062 1.21068 19.8435 1.41066 20.2145 1.4296C20.4498 1.441 20.7059 1.38331 20.9081 1.50569C21.1423 1.6477 21.1824 1.94502 21.2176 2.23111C21.0087 2.25179 20.8106 2.33453 20.6488 2.46877C20.865 2.44663 21.0825 2.49349 21.2706 2.60268C21.2742 2.60431 21.2776 2.60625 21.2808 2.60849C21.4046 3.08132 21.392 3.18614 21.8102 3.43743Z" fill="#2F2E41"/>
<path d="M51.9033 43.8953H44.0845C44.0417 43.8955 43.9992 43.8871 43.9595 43.8708C43.9198 43.8544 43.8838 43.8303 43.8534 43.8C43.823 43.7696 43.7989 43.7334 43.7825 43.6937C43.766 43.6539 43.7576 43.6113 43.7576 43.5682C43.7576 43.5252 43.766 43.4825 43.7825 43.4428C43.7989 43.403 43.823 43.3669 43.8534 43.3365C43.8838 43.3061 43.9198 43.282 43.9595 43.2657C43.9992 43.2493 44.0417 43.241 44.0845 43.2411H51.9033C51.9461 43.241 51.9886 43.2493 52.0283 43.2657C52.068 43.282 52.104 43.3061 52.1344 43.3365C52.1648 43.3669 52.1889 43.403 52.2053 43.4428C52.2218 43.4825 52.2303 43.5252 52.2303 43.5682C52.2303 43.6113 52.2218 43.6539 52.2053 43.6937C52.1889 43.7334 52.1648 43.7696 52.1344 43.8C52.104 43.8303 52.068 43.8544 52.0283 43.8708C51.9886 43.8871 51.9461 43.8955 51.9033 43.8953Z" fill="#536DFE"/>
<path d="M10.0648 63.4846C9.99968 63.4876 9.93521 63.4705 9.88012 63.4354C9.82504 63.4004 9.782 63.3493 9.75685 63.2889C9.7317 63.2285 9.72564 63.1618 9.73951 63.0978C9.75337 63.0338 9.78649 62.9757 9.83436 62.9313L9.85615 62.8443C9.85328 62.8373 9.85039 62.8304 9.84749 62.8234C9.78188 62.6678 9.67193 62.5351 9.53147 62.4421C9.391 62.349 9.22627 62.2997 9.05798 62.3003C8.88968 62.3009 8.72533 62.3515 8.58555 62.4456C8.44578 62.5397 8.33682 62.6732 8.27236 62.8293C8.01474 63.4523 7.68674 64.0763 7.60598 64.735C7.57041 65.0262 7.58541 65.3213 7.65032 65.6074C7.04524 64.2821 6.73104 62.8417 6.72902 61.3838C6.72889 61.018 6.74913 60.6524 6.78965 60.2889C6.82314 59.9908 6.8696 59.6949 6.92903 59.4011C7.25334 57.8069 7.94965 56.3127 8.96078 55.0412C9.45016 54.7731 9.84593 54.3608 10.0948 53.8599C10.1849 53.6799 10.2486 53.4877 10.2839 53.2893C10.2287 53.2965 10.0758 52.4524 10.1174 52.4006C10.0405 52.2834 9.90275 52.2251 9.81873 52.1107C9.40085 51.5419 8.82512 51.6412 8.52456 52.4142C7.8825 52.7396 7.87629 53.2792 8.27025 53.7981C8.52089 54.1283 8.55534 54.5751 8.77525 54.9285C8.75262 54.9576 8.7291 54.9858 8.70647 55.0149C8.29288 55.5489 7.9324 56.1222 7.63021 56.7268C7.7037 56.0495 7.61599 55.3644 7.37429 54.7277C7.12934 54.1344 6.67021 53.6347 6.26589 53.1218C5.78024 52.5057 4.78436 52.7745 4.6988 53.5556C4.69797 53.5631 4.69716 53.5707 4.69637 53.5782C4.75643 53.6123 4.81521 53.6484 4.87273 53.6866C4.94499 53.735 5.00098 53.8043 5.03337 53.8853C5.06575 53.9662 5.07303 54.0551 5.05423 54.1403C5.03543 54.2255 4.99144 54.303 4.92802 54.3627C4.86461 54.4223 4.78472 54.4614 4.69883 54.4747L4.69004 54.476C4.71143 54.6933 4.74925 54.9087 4.80316 55.1203C4.28447 57.1343 5.40429 57.8679 7.00324 57.9008C7.03854 57.919 7.07293 57.9372 7.10824 57.9545C6.80462 58.8184 6.61418 59.7182 6.54169 60.6314C6.50066 61.1702 6.50308 61.7114 6.54894 62.2498L6.54622 62.2307C6.43037 61.632 6.1123 61.0919 5.64573 60.7014C4.95275 60.1298 3.97371 59.9194 3.22611 59.4599C3.14666 59.4087 3.05428 59.3814 2.95986 59.3811C2.86544 59.3809 2.77293 59.4078 2.69323 59.4586C2.61353 59.5095 2.54997 59.5821 2.51005 59.668C2.47012 59.7539 2.4555 59.8495 2.4679 59.9435C2.4689 59.9502 2.46992 59.9569 2.47096 59.9635C2.5824 60.0091 2.69091 60.0616 2.79585 60.1207C2.85591 60.1548 2.91469 60.1909 2.97221 60.2291C3.04447 60.2775 3.10046 60.3468 3.13284 60.4278C3.16523 60.5087 3.1725 60.5976 3.1537 60.6828C3.1349 60.768 3.09092 60.8455 3.0275 60.9052C2.96409 60.9648 2.8842 61.0039 2.79831 61.0172L2.78951 61.0185C2.78318 61.0194 2.77774 61.0203 2.77142 61.0212C2.96184 61.4777 3.22909 61.8979 3.56149 62.2634C3.88581 64.0216 5.2788 64.1884 6.76885 63.6764H6.76975C6.93324 64.3897 7.17012 65.0841 7.47657 65.7482H10.0015C10.0106 65.72 10.0187 65.6909 10.0269 65.6628C9.79318 65.6775 9.55854 65.6635 9.32822 65.621C9.51556 65.3902 9.7029 65.1576 9.89024 64.9268C9.89441 64.9224 9.89834 64.9179 9.902 64.9131C9.99703 64.795 10.093 64.6778 10.188 64.5597L10.188 64.5595C10.1931 64.1974 10.1516 63.8361 10.0648 63.4846Z" fill="#F2F2F2"/>
</g>
<defs>
<clipPath id="clip0_10_82">
<rect width="70" height="66" fill="white"/>
</clipPath>
</defs>
</svg>
