<svg width="69" height="62" viewBox="0 0 69 62" fill="none" xmlns="http://www.w3.org/2000/svg">
<g clip-path="url(#clip0_10_178)">
<path d="M0.386635 13.9121C0.251522 13.9503 0.136999 14.0407 0.0681892 14.1636C-0.000620702 14.2865 -0.0180997 14.4317 0.0195873 14.5675L8.86981 46.3115C8.90782 46.4472 8.99786 46.5622 9.12019 46.6313C9.24252 46.7004 9.38715 46.718 9.52235 46.6801L42.1488 37.5048C42.2839 37.4667 42.3984 37.3762 42.4672 37.2534C42.536 37.1305 42.5535 36.9853 42.5158 36.8495L33.6656 5.10552C33.6276 4.96982 33.5375 4.8548 33.4152 4.78569C33.2929 4.71659 33.1482 4.69903 33.013 4.73688L0.386635 13.9121Z" fill="#E6E6E6"/>
<path d="M9.93236 45.1812L41.0233 36.4377L32.603 6.23587L1.51208 14.9793L9.93236 45.1812Z" fill="white"/>
<path d="M5.62273 19.0121C5.4153 19.0705 5.32977 19.4165 5.43209 19.7835C5.53441 20.1505 5.78644 20.4017 5.99387 20.3433L20.174 16.3556C20.3814 16.2972 20.4669 15.9512 20.3646 15.5842C20.2623 15.2172 20.0103 14.966 19.8028 15.0244L5.62273 19.0121Z" fill="#E6E6E6"/>
<path d="M6.76466 23.1081C6.55723 23.1664 6.47171 23.5125 6.57403 23.8795C6.67635 24.2465 6.92837 24.4976 7.1358 24.4393L21.3159 20.4515C21.5233 20.3932 21.6089 20.0471 21.5065 19.6801C21.4042 19.3131 21.1522 19.062 20.9448 19.1203L6.76466 23.1081Z" fill="#E6E6E6"/>
<path d="M7.89348 27.1569C7.68605 27.2152 7.60053 27.5613 7.70285 27.9283C7.80516 28.2953 8.05719 28.5464 8.26462 28.4881L22.4447 24.5003C22.6522 24.442 22.7377 24.0959 22.6354 23.7289C22.533 23.3619 22.281 23.1108 22.0736 23.1691L7.89348 27.1569Z" fill="#E6E6E6"/>
<path d="M9.03542 31.2528C8.82799 31.3112 8.74246 31.6572 8.84478 32.0242C8.9471 32.3912 9.19913 32.6424 9.40656 32.584L23.5867 28.5963C23.7941 28.5379 23.8796 28.1919 23.7773 27.8249C23.675 27.4579 23.423 27.2068 23.2155 27.2651L9.03542 31.2528Z" fill="#E6E6E6"/>
<path d="M26.9991 13.0479C26.912 13.0722 26.8305 13.1137 26.7593 13.1697C26.6881 13.2257 26.6286 13.2953 26.5842 13.3745C26.5399 13.4536 26.5114 13.5408 26.5006 13.6309C26.4898 13.7211 26.4968 13.8126 26.5212 13.9C26.5455 13.9875 26.5869 14.0693 26.6427 14.1407C26.6986 14.2121 26.768 14.2718 26.8468 14.3163C26.9257 14.3608 27.0125 14.3892 27.1023 14.4C27.1921 14.4108 27.2831 14.4036 27.3702 14.3791L30.0211 13.6336C30.1969 13.5841 30.3459 13.4666 30.4354 13.3068C30.5249 13.1471 30.5475 12.9581 30.4983 12.7816C30.4491 12.6051 30.332 12.4554 30.1729 12.3655C30.0139 12.2757 29.8257 12.2529 29.65 12.3024L26.9991 13.0479Z" fill="#E6E6E6"/>
<path d="M28.1189 17.0644C28.0318 17.0888 27.9503 17.1302 27.8791 17.1863C27.8079 17.2423 27.7485 17.3119 27.7041 17.391C27.6597 17.4702 27.6313 17.5573 27.6204 17.6475C27.6096 17.7377 27.6166 17.8292 27.641 17.9166C27.6654 18.0041 27.7067 18.0859 27.7626 18.1573C27.8184 18.2287 27.8878 18.2884 27.9667 18.3329C28.0455 18.3774 28.1323 18.4058 28.2221 18.4166C28.3119 18.4273 28.403 18.4202 28.49 18.3956L31.1409 17.6501C31.3167 17.6007 31.4657 17.4832 31.5552 17.3234C31.6447 17.1636 31.6673 16.9747 31.6181 16.7982C31.5689 16.6216 31.4519 16.472 31.2928 16.3821C31.1337 16.2922 30.9456 16.2695 30.7698 16.319L28.1189 17.0644Z" fill="#E6E6E6"/>
<path d="M29.2387 21.081C29.1517 21.1055 29.0703 21.147 28.9992 21.203C28.9282 21.2591 28.8688 21.3287 28.8245 21.4078C28.7802 21.4869 28.7518 21.574 28.741 21.6641C28.7302 21.7542 28.7372 21.8456 28.7616 21.933C28.7859 22.0204 28.8272 22.1021 28.883 22.1735C28.9389 22.2449 29.0081 22.3046 29.0869 22.3491C29.1657 22.3936 29.2524 22.422 29.3421 22.4329C29.4319 22.4437 29.5228 22.4367 29.6099 22.4122L32.2608 21.6667C32.4365 21.6173 32.5855 21.4998 32.675 21.34C32.7645 21.1802 32.7871 20.9913 32.7379 20.8148C32.6887 20.6382 32.5717 20.4886 32.4126 20.3987C32.2535 20.3088 32.0654 20.2861 31.8896 20.3355L29.2387 21.081Z" fill="#E6E6E6"/>
<path d="M30.3585 25.0976C30.183 25.1472 30.0342 25.2648 29.9449 25.4245C29.8555 25.5842 29.833 25.773 29.8821 25.9494C29.9313 26.1258 30.0482 26.2753 30.2071 26.3652C30.366 26.4551 30.554 26.478 30.7297 26.4288L33.3806 25.6833C33.5562 25.6337 33.705 25.5162 33.7943 25.3565C33.8836 25.1967 33.9062 25.008 33.857 24.8316C33.8078 24.6552 33.6909 24.5056 33.532 24.4157C33.3731 24.3258 33.1851 24.3029 33.0094 24.3521L30.3585 25.0976Z" fill="#E6E6E6"/>
<path d="M31.4284 32.0597C31.3174 32.0908 31.2136 32.1436 31.1229 32.215C31.0322 32.2864 30.9564 32.375 30.8999 32.4759C30.8433 32.5767 30.8071 32.6878 30.7933 32.8027C30.7795 32.9176 30.7884 33.0341 30.8195 33.1456C30.8505 33.257 30.9032 33.3613 30.9744 33.4523C31.0456 33.5433 31.134 33.6193 31.2344 33.676C31.3349 33.7327 31.4455 33.7689 31.56 33.7826C31.6744 33.7964 31.7904 33.7873 31.9013 33.756L35.2791 32.806C35.5031 32.7431 35.693 32.5933 35.807 32.3897C35.921 32.1861 35.9499 31.9454 35.8871 31.7205C35.8244 31.4955 35.6753 31.3048 35.4726 31.1903C35.2699 31.0758 35.0302 31.0468 34.8062 31.1098L31.4284 32.0597Z" fill="#536DFE"/>
<path d="M34.9047 28.6341L9.90942 35.6633L9.97164 35.8864L34.967 28.8572L34.9047 28.6341Z" fill="#E6E6E6"/>
<path d="M60.0122 58.6351L58.0075 59.1218L55.1842 51.5877L58.1429 50.8694L60.0122 58.6351Z" fill="#A0616A"/>
<path d="M54.5489 62L54.5353 61.9437C54.3765 61.2804 54.486 60.5809 54.84 59.9987C55.194 59.4165 55.7635 58.999 56.4236 58.838L60.3458 57.8857L60.9614 60.4431L54.5489 62Z" fill="#2F2E41"/>
<path d="M51.1377 60.0067L49.0754 60.0065L48.0942 52.0171L51.1381 52.0172L51.1377 60.0067Z" fill="#A0616A"/>
<path d="M51.6373 61.988L45.0401 61.9877V61.9298C45.0401 61.2474 45.31 60.5929 45.7905 60.1104C46.271 59.6278 46.9226 59.3567 47.6021 59.3568H47.6022L51.6374 59.3569L51.6373 61.988Z" fill="#2F2E41"/>
<path d="M48.0926 56.8877L46.0901 32.9189L54.3796 31.3843L54.4123 31.3784L56.8386 32.9448L55.9941 41.7659L59.8824 55.5187L56.5251 56.406L52.6306 43.6511L51.7394 39.7724L51.2826 44.8125L51.6217 57.2421L48.0926 56.8877Z" fill="#2F2E41"/>
<path d="M45.8333 33.4626L45.8114 33.4347L48.6759 11.7732L48.6797 11.7448L48.6998 11.7245C48.742 11.6821 49.7457 10.6861 50.778 10.6861C50.9272 10.6861 51.0691 10.6823 51.2052 10.6788C51.9952 10.6582 52.6192 10.6417 53.3608 11.3866C54.1165 12.1454 56.5818 14.9164 56.5818 18.7114C56.5818 22.3847 56.9148 33.8 56.9182 33.9148L56.9229 34.076L56.7883 33.9881C56.755 33.9666 53.4392 31.8461 50.6583 33.8173C49.7892 34.4334 49.0085 34.6494 48.3409 34.6494C46.7872 34.6494 45.8466 33.4796 45.8333 33.4626Z" fill="#536DFE"/>
<path d="M52.3214 8.89875C54.3237 7.79945 55.0595 5.2781 53.965 3.26714C52.8704 1.25618 50.36 0.517123 48.3577 1.61641C46.3554 2.71571 45.6195 5.23706 46.7141 7.24802C47.8086 9.25898 50.3191 9.99804 52.3214 8.89875Z" fill="#A0616A"/>
<path d="M44.0145 38.1178C44.21 37.9656 44.3699 37.7723 44.4829 37.5514C44.5959 37.3305 44.6594 37.0874 44.6687 36.8392C44.6781 36.591 44.6331 36.3437 44.537 36.1148C44.441 35.886 44.2961 35.681 44.1126 35.5145L46.4591 29.9558L43.3868 30.5237L41.6296 35.7153C41.3714 36.0433 41.242 36.4551 41.266 36.8726C41.2899 37.2901 41.4655 37.6843 41.7595 37.9804C42.0535 38.2766 42.4454 38.4541 42.861 38.4794C43.2766 38.5048 43.687 38.3761 44.0145 38.1178Z" fill="#A0616A"/>
<path d="M41.7475 33.7939L42.5031 32.1918C42.4564 32.1636 42.4179 32.1235 42.3915 32.0756C41.6856 30.8469 45.9496 20.6432 46.2339 19.9664C46.1905 19.5982 45.7429 15.6975 46.0702 14.3826C46.4555 12.8348 47.2466 12.1134 48.7154 11.9706C50.3353 11.8178 50.7723 14.027 50.7765 14.0495L50.778 19.7291L48.9189 26.267L44.6791 34.9536L41.7475 33.7939Z" fill="#536DFE"/>
<path d="M50.8679 6.82097C50.3726 6.8857 49.9989 6.37673 49.8257 5.90625C49.6524 5.43578 49.5203 4.88804 49.0897 4.6339C48.5014 4.28668 47.7486 4.70429 47.0759 4.58973C46.3161 4.46036 45.8221 3.65165 45.7834 2.87866C45.7446 2.10568 46.0509 1.36223 46.3514 0.649548L46.4564 1.53525C46.4423 1.23507 46.5052 0.936282 46.639 0.667484C46.7728 0.398686 46.9731 0.168864 47.2206 0L47.0854 1.29964C47.1701 0.571548 47.9512 0.00737712 48.6654 0.15826L48.6441 0.932629C49.5217 0.827829 50.4069 0.722881 51.287 0.802724C52.1672 0.882566 53.0535 1.16225 53.7205 1.7444C54.7184 2.61522 55.0828 4.04911 54.9605 5.37107C54.8381 6.69302 54.2948 7.93489 53.7285 9.13456C53.586 9.43639 53.3889 9.777 53.0585 9.81545C52.7617 9.84999 52.4901 9.60077 52.3978 9.3153C52.3055 9.02983 52.3505 8.7197 52.4058 8.42474C52.4893 7.97916 52.5945 7.52371 52.516 7.07722C52.4375 6.63072 52.1177 6.1895 51.6696 6.13478C51.2214 6.08006 50.7629 6.59454 50.9783 6.99297L50.8679 6.82097Z" fill="#2F2E41"/>
<path d="M68.9559 61.9974H39.2224V61.7534H69L68.9559 61.9974Z" fill="#3F3D56"/>
</g>
<defs>
<clipPath id="clip0_10_178">
<rect width="69" height="62" fill="white"/>
</clipPath>
</defs>
</svg>
