<svg width="83" height="53" viewBox="0 0 83 53" fill="none" xmlns="http://www.w3.org/2000/svg">
<g clip-path="url(#clip0_10_2)">
<path d="M17.6125 12.4812L20.7516 16.7746C20.7516 16.7746 23.4279 17.9022 26.5558 20.1663L25.8071 21.3374C25.8071 21.3374 20.6442 19.2192 19.323 18.3242L16.9104 14.5345L17.6125 12.4812Z" fill="#A0616A"/>
<path d="M28.4329 22.2458C28.7325 21.8066 28.3768 21.0407 27.6384 20.5352C26.9001 20.0296 26.0587 19.9759 25.7591 20.4151C25.4596 20.8544 25.8153 21.6203 26.5536 22.1258C27.2919 22.6313 28.1333 22.685 28.4329 22.2458Z" fill="#A0616A"/>
<path d="M16.0782 8.81595L17.1055 8.524C17.1055 8.524 17.7034 8.52515 18.0408 9.11364C18.3781 9.70212 20.7667 14.9492 20.6535 15.1525C20.5403 15.3558 20.3823 15.4007 20.5851 15.5141C20.788 15.6276 20.9737 15.57 20.8355 15.74C20.6972 15.91 20.8883 16.2834 20.8883 16.2834L18.2531 18.2314L16.0782 8.81595Z" fill="#1153FC"/>
<path d="M12.0926 51.9619L13.3459 51.9618L13.9421 47.1183L12.0923 47.1184L12.0926 51.9619Z" fill="#A0616A"/>
<path d="M16.3865 51.9335C16.4255 51.9993 16.4461 52.2118 16.4461 52.2884C16.4461 52.5238 16.2556 52.7146 16.0207 52.7146H12.1395C11.9792 52.7146 11.8493 52.5844 11.8493 52.4239V52.262C11.8493 52.262 11.6573 51.7754 12.0526 51.1756C12.0526 51.1756 12.5439 51.6452 13.278 50.9097L13.4945 50.5167L15.0616 51.665L15.9302 51.7721C16.1202 51.7956 16.2887 51.7685 16.3865 51.9335Z" fill="#2F2E41"/>
<path d="M16.6286 50.7382L17.8646 50.9461L19.2535 46.2685L17.4293 45.9616L16.6286 50.7382Z" fill="#A0616A"/>
<path d="M20.8679 51.4229C20.8955 51.4943 20.8806 51.7074 20.868 51.7829C20.829 52.015 20.6097 52.1716 20.378 52.1326L16.5504 51.4882C16.3923 51.4616 16.2857 51.3117 16.3123 51.1533L16.3391 50.9937C16.3391 50.9937 16.2302 50.4819 16.7192 49.9561C16.7192 49.9561 17.1261 50.5008 17.9717 49.8972L18.2502 49.5457L19.6057 50.9383L20.4446 51.1881C20.6281 51.2428 20.7987 51.244 20.8679 51.4229Z" fill="#2F2E41"/>
<path d="M19.1977 25.8852C19.1977 25.8852 20.8816 27.8604 20.8816 29.6709C20.8816 31.4815 20.9227 37.1692 20.9227 37.1692C20.9227 37.1692 19.937 46.0484 19.6906 46.7891C19.4442 47.5298 19.3209 48.7643 19.3209 48.7643L16.9389 48.1882C16.9389 48.1882 16.6104 39.8348 17.596 37.8597L15.214 31.1112L14.3926 50.2045H11.6274C11.6274 50.2045 10.2035 40.164 10.9428 37.5305C10.9428 37.5305 9.29999 27.49 9.71069 26.9139C10.1214 26.3378 19.1977 25.8852 19.1977 25.8852Z" fill="#2F2E41"/>
<path d="M13.0784 6.21578L15.2961 6.38037L16.0354 7.61486C16.0354 7.61486 17.7603 8.35554 18.0067 9.42543C18.2531 10.4953 18.3353 23.0047 18.3353 23.0047L19.5674 24.8153L19.4852 26.379L9.62855 26.8728V25.3694L8.72502 23.5808C8.72502 23.5808 9.71069 9.26083 9.9571 9.17853C10.2035 9.09623 12.0927 7.77945 12.0927 7.77945L13.0784 6.21578Z" fill="#1153FC"/>
<path d="M14.0821 5.90953C15.6245 5.90953 16.8748 4.65676 16.8748 3.11138C16.8748 1.566 15.6245 0.313217 14.0821 0.313217C12.5397 0.313217 11.2894 1.566 11.2894 3.11138C11.2894 4.65676 12.5397 5.90953 14.0821 5.90953Z" fill="#A0616A"/>
<path d="M16.3128 0.860735C16.1707 0.45692 15.7765 0.211935 15.3493 0.221477C15.3311 0.221877 15.3131 0.221709 15.2951 0.220972C15.08 0.212157 14.8734 0.138526 14.6625 0.0953302C14.2693 0.0148173 13.8547 0.041773 13.4751 0.172519C13.3572 0.213162 13.239 0.264269 13.1143 0.264283C12.9895 0.2643 12.8537 0.195763 12.8232 0.0745521C12.816 0.184294 12.8088 0.29403 12.8016 0.403766C12.761 0.314948 12.7204 0.226124 12.6798 0.137301L12.5985 0.491517L12.3381 0.195483C12.3614 0.325964 12.2854 0.457475 12.1826 0.540897C12.0798 0.624324 11.9529 0.670471 11.8312 0.722446C11.3059 0.946781 10.8127 1.34397 10.6613 1.89562C10.5657 2.24415 10.6157 2.61405 10.6664 2.97192C10.7112 3.2883 10.7599 3.61561 10.9315 3.88492C11.0416 4.05756 11.2001 4.20284 11.2671 4.39638C11.3296 4.57677 11.3059 4.7833 11.3948 4.95223C11.484 5.1219 11.6682 5.21789 11.8484 5.28236C12.0287 5.34685 12.2203 5.39245 12.3756 5.50464C12.5308 5.61685 12.711 5.94005 13.0492 5.92266L13.1583 5.71718C13.2706 5.6255 12.8551 5.69818 12.8507 5.55311C12.8464 5.40805 13.3508 5.31842 13.2793 5.19219C13.1697 4.99863 13.0213 4.83016 12.8978 4.64517C12.7533 4.42884 12.6397 4.17608 12.6896 3.91204C12.709 3.80933 12.7569 3.7123 12.83 3.63769C13.0407 3.42261 13.2756 3.51715 13.5039 3.54791C13.6612 3.56914 13.8492 3.54463 13.9309 3.40823C14.0265 3.24865 13.9199 3.04564 13.933 2.85999C13.9468 2.66327 14.0955 2.50197 14.2574 2.38981C14.4193 2.27767 14.6031 2.19596 14.7487 2.06331C14.8943 1.93066 14.9981 1.72342 14.9346 1.53677C15.6249 1.24881 15.7306 1.22157 16.4575 1.39718C16.4229 1.21504 16.3744 1.03559 16.3128 0.860735Z" fill="#2F2E41"/>
<path d="M4.52287 36.6489V28.1556C4.52287 27.9226 4.62197 27.6996 4.79477 27.5438C4.96756 27.388 5.19922 27.3126 5.43049 27.337C7.5728 27.0482 9.59051 27.1856 11.4191 27.9697C11.6262 27.9697 11.7947 28.1385 11.7947 28.3461V36.8691C11.7947 37.0766 11.6262 37.2455 11.4191 37.2455C9.40623 36.7725 7.28321 36.8956 5.11827 37.2455C4.78997 37.2455 4.52287 36.9779 4.52287 36.6489Z" fill="#E6E6E6"/>
<path d="M4.52287 37.405V28.8219C4.52287 28.368 4.89139 27.9988 5.34437 27.9988C7.39293 27.4617 9.41788 27.4608 11.4191 27.9988C11.6262 27.9988 11.7947 28.1676 11.7947 28.3751V36.8109C11.7947 37.0182 11.6267 37.1868 11.42 37.1873C9.44678 36.8433 7.33305 37.1783 5.11827 38.0016C4.78997 38.0016 4.52287 37.7339 4.52287 37.405Z" fill="#F2F2F2"/>
<path d="M9.25333 31.5458H7.33775C6.64978 31.5458 6.09009 30.985 6.09009 30.2957C6.09009 29.6064 6.64978 29.0456 7.33775 29.0456H9.25333C9.94135 29.0456 10.501 29.6064 10.501 30.2957C10.501 30.985 9.94135 31.5458 9.25333 31.5458Z" fill="#E6E6E6"/>
<path d="M11.009 14.6875L10.9358 19.1188C10.9358 19.1188 10.7017 22.5723 10.1206 26.4587L8.73531 26.5473C8.73531 26.5473 8.90575 20.4791 8.84365 18.8823L8.94162 15.3358L11.009 14.6875Z" fill="#A0616A"/>
<path d="M9.55882 29.2055C10.0895 29.1875 10.495 28.4469 10.4647 27.5514C10.4343 26.6559 9.97947 25.9446 9.44881 25.9627C8.91815 25.9808 8.51259 26.7214 8.54297 27.6168C8.57335 28.5123 9.02816 29.2236 9.55882 29.2055Z" fill="#A0616A"/>
<path d="M10.9875 9.0459L9.92037 9.08484C9.92037 9.08484 9.35175 9.27029 9.2115 9.93424C9.07125 10.5982 8.08811 17.4694 8.25826 17.6279C8.42841 17.7864 8.59258 17.7804 8.43439 17.9509C8.2762 18.1214 8.0818 18.1239 8.26557 18.243C8.44933 18.3621 8.3822 18.7763 8.3822 18.7763L11.3335 18.5668L10.9875 9.0459Z" fill="#1153FC"/>
<path d="M81.3922 48.6366H53.0001C52.8354 48.6366 52.6723 48.6113 52.5153 48.5616L52.4986 48.5549C43.6084 44.128 35.9861 41.7119 29.1964 41.1684L29.1705 41.1633C28.4988 40.9504 28.0476 40.3331 28.0476 39.6273V1.61237C28.0476 1.09329 28.2873 0.619609 28.7053 0.312847C29.1232 0.00608584 29.6462 -0.0799918 30.1403 0.0764037L52.5854 7.18967C52.7198 7.23228 52.8594 7.25384 53.0001 7.25384H81.3922C82.2788 7.25384 83 7.97654 83 8.8648V47.0256C83 47.9139 82.2788 48.6366 81.3922 48.6366ZM52.5938 48.3421C52.7255 48.3829 52.8622 48.4036 53.0001 48.4036H81.3922C82.1505 48.4036 82.7674 47.7855 82.7674 47.0256V8.8648C82.7674 8.10501 82.1505 7.48687 81.3922 7.48687H53.0001C52.8355 7.48687 52.6724 7.46167 52.5153 7.41189L30.0702 0.298624C29.6475 0.164587 29.2002 0.238433 28.8427 0.500818C28.4852 0.763261 28.2802 1.16839 28.2802 1.61237V39.6273C28.2802 40.2267 28.6606 40.7514 29.2284 40.9372C36.0427 41.4851 43.686 43.9074 52.5938 48.3421Z" fill="#3F3D56"/>
<path d="M53.7583 46.9103C61.4996 44.1656 70.1359 44.4807 79.3105 46.6366C80.4623 46.9073 81.5666 46.0383 81.5666 44.853V10.1183C81.5666 9.27484 80.9927 8.53734 80.1749 8.33697C70.4964 5.9656 61.4561 5.5293 53.4891 8.34717C52.9055 8.55361 52.2576 8.44176 51.7651 8.06613C45.0516 2.94575 38.1808 0.378435 31.1049 1.14073C30.1792 1.24046 29.481 2.03087 29.481 2.96369V38.0772C29.481 39.0174 30.191 39.8035 31.1243 39.9008C38.7405 40.6944 45.739 43.0998 52.2475 46.7832C52.7084 47.0441 53.2593 47.0872 53.7583 46.9103Z" fill="#F2F2F2"/>
<path d="M53.5097 44.9625C52.9825 44.9625 52.4632 44.8173 52.0056 44.5326C46.5395 41.1313 40.5843 39.1443 34.3056 38.6268C32.8336 38.5054 31.6805 37.2474 31.6805 35.7627V5.77005C31.6805 4.23066 32.872 2.96931 34.3931 2.89848C38.9645 2.68491 44.5151 4.7275 51.8602 9.32432C52.4815 9.71306 53.2371 9.82849 53.9332 9.64143C60.9138 7.764 68.4807 7.70915 77.0667 9.47377C78.3996 9.74777 79.3671 10.9332 79.3671 12.2925V41.5681C79.3671 42.4515 78.9706 43.2721 78.2791 43.8193C77.5825 44.3706 76.6862 44.5682 75.8199 44.3616C67.6976 42.4247 60.7231 42.5646 54.4973 44.7898C54.174 44.9054 53.8402 44.9625 53.5097 44.9625ZM35.0457 3.11649C34.8293 3.11649 34.6159 3.12138 34.4039 3.13128C33.0072 3.19631 31.9131 4.35537 31.9131 5.77004V35.7627C31.9131 37.127 32.9724 38.283 34.3247 38.3944C40.6406 38.9151 46.6305 40.9136 52.1283 44.3346C52.8123 44.7604 53.6474 44.8462 54.4192 44.5704C60.6884 42.3295 67.7063 42.1871 75.8737 44.135C76.6704 44.3249 77.4945 44.1434 78.1349 43.6365C78.7702 43.1337 79.1345 42.3798 79.1345 41.5681V12.2925C79.1345 11.0433 78.2452 9.95388 77.0199 9.70202C68.4702 7.94474 60.9383 7.99856 53.9935 9.8665C53.2351 10.0703 52.4128 9.94484 51.737 9.52196C44.7762 5.16568 39.4458 3.11649 35.0457 3.11649Z" fill="white"/>
<path d="M52.9816 9.81547L52.749 9.81763L53.0726 44.9092L53.3052 44.907L52.9816 9.81547Z" fill="white"/>
<path d="M33.9478 7.49968L33.8747 7.72087L50.159 13.1195L50.232 12.8983L33.9478 7.49968Z" fill="#3F3D56"/>
<path d="M33.9478 11.8186L33.8747 12.0398L50.159 17.4385L50.232 17.2173L33.9478 11.8186Z" fill="#3F3D56"/>
<path d="M33.9478 16.1375L33.8747 16.3587L50.159 21.7574L50.232 21.5362L33.9478 16.1375Z" fill="#3F3D56"/>
<path d="M33.9478 20.4564L33.8747 20.6776L50.159 26.0763L50.232 25.8551L33.9478 20.4564Z" fill="#3F3D56"/>
<path d="M76.4179 13.1324H56.9008V13.3654H76.4179V13.1324Z" fill="#3F3D56"/>
<path d="M76.4179 17.2114H56.9008V17.4444H76.4179V17.2114Z" fill="#3F3D56"/>
<path d="M76.4179 21.2903H56.9008V21.5233H76.4179V21.2903Z" fill="#3F3D56"/>
<path d="M76.4179 25.3694H56.9008V25.6024H76.4179V25.3694Z" fill="#3F3D56"/>
<path d="M76.4179 29.4483H56.9008V29.6813H76.4179V29.4483Z" fill="#3F3D56"/>
<path d="M76.4179 33.5273H56.9008V33.7604H76.4179V33.5273Z" fill="#3F3D56"/>
<path d="M6.30968 50.9805C6.06944 50.9955 5.93667 50.6965 6.11843 50.5222L6.13651 50.4501C6.13413 50.4444 6.13174 50.4386 6.12932 50.4328C5.88637 49.8524 5.06297 49.8564 4.82208 50.4377C4.60827 50.9537 4.33606 51.4705 4.26904 52.016C4.23899 52.2568 4.25251 52.5022 4.30584 52.7385C3.80486 51.642 3.54123 50.4447 3.54123 49.2406C3.54123 48.9381 3.55775 48.6355 3.59155 48.3338C3.61934 48.0869 3.65765 47.8416 3.70722 47.5985C3.97535 46.2846 4.55596 45.0331 5.39342 43.9878C5.79601 43.7673 6.13174 43.4226 6.33454 43.0094C6.40739 42.8604 6.46448 42.7001 6.49152 42.5368C6.4457 42.5429 6.31876 41.8437 6.35332 41.8008C6.28947 41.7038 6.17519 41.6555 6.10546 41.5608C5.75865 41.0897 5.28083 41.1719 5.03139 41.8121C4.49853 42.0816 4.49337 42.5285 4.82033 42.9583C5.02835 43.2317 5.05693 43.6017 5.23945 43.8944C5.22066 43.9185 5.20114 43.9419 5.18236 43.9659C4.83802 44.4084 4.54021 44.8841 4.28914 45.3838C4.3601 44.8284 4.25534 44.1594 4.07675 43.7281C3.87346 43.2368 3.49241 42.8229 3.15686 42.3981C2.7538 41.8879 1.9273 42.1105 1.85629 42.7574C1.8556 42.7636 1.85493 42.7699 1.85427 42.7761C1.90411 42.8043 1.95294 42.8343 2.00064 42.8659C2.27269 43.0461 2.17867 43.4687 1.85632 43.5185L1.84902 43.5197C1.86705 43.6995 1.89784 43.8779 1.9429 44.0532C1.51243 45.7212 2.44179 46.3288 3.7688 46.356C3.7981 46.3711 3.82664 46.3861 3.85594 46.4005C3.72149 46.7797 3.61408 47.1688 3.53447 47.5631C3.46311 47.9116 3.41354 48.2638 3.38575 48.6175C3.3512 49.0637 3.3542 49.5123 3.39176 49.9578L3.38951 49.942C3.29412 49.4513 3.02823 48.993 2.64217 48.6754C2.06705 48.2021 1.25452 48.0277 0.634066 47.6473C0.335399 47.4641 -0.0473208 47.7008 0.00480439 48.0477L0.00734181 48.0643C0.0997249 48.102 0.189853 48.1456 0.276981 48.1945C0.326822 48.2227 0.37565 48.2526 0.423347 48.2842C0.695402 48.4645 0.60138 48.8871 0.279024 48.9369L0.271719 48.9381C0.266463 48.9388 0.261954 48.9396 0.256705 48.9403C0.415185 49.3173 0.636001 49.6673 0.912403 49.9691C1.18157 51.4252 2.33764 51.5633 3.57427 51.1393H3.57503C3.71022 51.7293 3.90776 52.3057 4.16163 52.8551H6.25717C6.26469 52.8318 6.27145 52.8077 6.27821 52.7844C6.08442 52.7964 5.88914 52.7851 5.69836 52.7498C5.85384 52.5586 6.00931 52.3659 6.16479 52.1748C6.16854 52.171 6.17155 52.1673 6.17455 52.1635C6.25342 52.0657 6.33303 51.9686 6.4119 51.8708L6.41194 51.8706C6.41688 51.5703 6.38088 51.2709 6.30968 50.9805Z" fill="#F2F2F2"/>
<path d="M29.7478 52.8614C29.7478 52.9383 29.6861 53 29.6094 53H0.15468C0.0779328 53 0.0162964 52.9383 0.0162964 52.8614C0.0162964 52.7845 0.0779328 52.7227 0.15468 52.7227H29.6094C29.6861 52.7227 29.7478 52.7845 29.7478 52.8614Z" fill="#CCCCCC"/>
<path d="M77.2376 45.4907C78.7148 45.4907 79.9123 44.2909 79.9123 42.8109C79.9123 41.3308 78.7148 40.131 77.2376 40.131C75.7605 40.131 74.563 41.3308 74.563 42.8109C74.563 44.2909 75.7605 45.4907 77.2376 45.4907Z" fill="#BB0002"/>
<path d="M78.4902 42.71L76.8306 41.7498C76.7531 41.705 76.6562 41.761 76.6562 41.8507V42.6943H76.1584C76.0942 42.6943 76.0421 42.7465 76.0421 42.8109C76.0421 42.8752 76.0942 42.9274 76.1584 42.9274H76.6562V43.771C76.6562 43.8607 76.7531 43.9167 76.8306 43.8719L78.4902 42.9118C78.5677 42.8669 78.5677 42.7548 78.4902 42.71Z" fill="white"/>
<path d="M39.1507 35.2569C39.2548 34.0626 39.7497 32.9218 40.5417 32.024C41.3132 31.1494 42.3677 30.5494 43.5049 30.305C44.1397 30.1686 44.7973 30.142 45.4402 30.2339C45.5941 30.2559 45.59 30.5007 45.4345 30.4785C44.3403 30.322 43.2094 30.5131 42.2263 31.0194C41.2185 31.5382 40.412 32.3821 39.9138 33.3998C39.6288 33.9817 39.4511 34.6169 39.3948 35.2626C39.3811 35.4189 39.1369 35.4141 39.1507 35.2569Z" fill="white"/>
<path d="M45.1695 29.2519L47.049 30.181C47.1173 30.2148 47.1286 30.3264 47.0705 30.3745L45.2912 31.8481C45.1708 31.9479 45.0013 31.7716 45.1227 31.6711L46.9019 30.1975L46.9234 30.3909L45.0439 29.4618C44.9028 29.3921 45.0295 29.1827 45.1695 29.2519Z" fill="white"/>
</g>
<defs>
<clipPath id="clip0_10_2">
<rect width="83" height="53" fill="white"/>
</clipPath>
</defs>
</svg>
