<svg width="42" height="43" viewBox="0 0 42 43" fill="none" xmlns="http://www.w3.org/2000/svg">
<g clip-path="url(#clip0_35_136)">
<path d="M27.132 12.2974L30.6668 9.19111C31.26 8.67235 31.7335 7.58822 31.7335 6.78946V1.41598C31.7335 0.617224 31.1424 0 30.3622 0H22.0876V11.1375C23.9317 11.2567 25.5424 11.6504 27.132 12.2974Z" fill="#FCD220"/>
<path d="M19.9598 0H11.6378C10.8576 0 10.1721 0.617224 10.1721 1.41598V6.78946C10.1721 7.58822 10.681 8.66611 11.2742 9.18487L14.8103 12.2968C16.4428 11.6326 18.2576 11.2356 19.9598 11.1285V0Z" fill="#FCD220"/>
<path d="M20.9998 13.2762C12.983 13.2762 6.48389 19.9301 6.48389 28.1381C6.48389 36.3462 12.983 43 20.9998 43C29.017 43 35.5161 36.3462 35.5161 28.1381C35.5161 19.9301 29.017 13.2762 20.9998 13.2762ZM20.9998 39.9927C14.6154 39.9927 9.42121 34.6746 9.42121 28.1381C9.42121 21.6014 14.6154 16.2835 20.9998 16.2835C27.3846 16.2835 32.5788 21.6014 32.5788 28.1381C32.5788 34.6746 27.3846 39.9927 20.9998 39.9927Z" fill="#FCD220"/>
<path d="M20.9999 18.4619C15.7888 18.4619 11.549 22.8027 11.549 28.1381C11.549 33.4735 15.7888 37.8143 20.9999 37.8143C26.2112 37.8143 30.451 33.4735 30.451 28.1381C30.451 22.8027 26.2112 18.4619 20.9999 18.4619Z" fill="url(#paint0_linear_35_136)"/>
<path d="M20.5948 34.9574V23.2174L18.1548 23.8374V22.3374L21.3348 20.9574H22.6348V34.9574H20.5948Z" fill="#C28108"/>
</g>
<defs>
<linearGradient id="paint0_linear_35_136" x1="14.634" y1="18.4619" x2="27.7819" y2="37.5275" gradientUnits="userSpaceOnUse">
<stop stop-color="#FBBC05"/>
<stop offset="0.5" stop-color="#FFFC54"/>
<stop offset="1" stop-color="#FBBC05"/>
</linearGradient>
<clipPath id="clip0_35_136">
<rect width="42" height="43" fill="white"/>
</clipPath>
</defs>
</svg>
