<svg width="47" height="48" viewBox="0 0 47 48" fill="none" xmlns="http://www.w3.org/2000/svg">
<g clip-path="url(#clip0_35_144)">
<path d="M30.3619 13.7273L34.3176 10.2598C34.9814 9.68077 35.5113 8.47057 35.5113 7.57893V1.58063C35.5113 0.688994 34.8498 0 33.9767 0H24.717V12.4325C26.7806 12.5656 28.5831 13.0051 30.3619 13.7273Z" fill="#CCCCCC"/>
<path d="M22.336 0H13.0232C12.1502 0 11.383 0.688994 11.383 1.58063V7.57893C11.383 8.47057 11.9525 9.6738 12.6164 10.2529L16.5734 13.7267C18.4002 12.9852 20.4311 12.5421 22.336 12.4225V0Z" fill="#CCCCCC"/>
<path d="M23.4999 14.8201C14.5286 14.8201 7.2558 22.2476 7.2558 31.4101C7.2558 40.5725 14.5286 48.0001 23.4999 48.0001C32.4714 48.0001 39.7442 40.5725 39.7442 31.4101C39.7442 22.2476 32.4714 14.8201 23.4999 14.8201ZM23.4999 44.6431C16.3553 44.6431 10.5428 38.7066 10.5428 31.4101C10.5428 24.1132 16.3553 18.177 23.4999 18.177C30.6447 18.177 36.4572 24.1132 36.4572 31.4101C36.4572 38.7066 30.6447 44.6431 23.4999 44.6431Z" fill="#CCCCCC"/>
<path d="M23.4999 20.6086C17.6684 20.6086 12.9239 25.4541 12.9239 31.41C12.9239 37.3658 17.6684 42.2113 23.4999 42.2113C29.3316 42.2113 34.0761 37.3658 34.0761 31.41C34.0761 25.4541 29.3316 20.6086 23.4999 20.6086Z" fill="url(#paint0_linear_35_144)"/>
<path d="M19.068 38V36.56C20.0013 35.84 20.888 35.1133 21.728 34.38C22.568 33.6467 23.3147 32.92 23.968 32.2C24.6347 31.4667 25.1547 30.7533 25.528 30.06C25.9013 29.3533 26.088 28.68 26.088 28.04C26.088 27.5867 26.008 27.1667 25.848 26.78C25.688 26.3933 25.4347 26.08 25.088 25.84C24.7413 25.5867 24.268 25.46 23.668 25.46C23.0947 25.46 22.6147 25.5867 22.228 25.84C21.8547 26.0933 21.568 26.4333 21.368 26.86C21.1813 27.2733 21.088 27.7333 21.088 28.24H19.148C19.1613 27.28 19.368 26.4667 19.768 25.8C20.168 25.1333 20.708 24.6267 21.388 24.28C22.0813 23.9333 22.8547 23.76 23.708 23.76C24.6013 23.76 25.3747 23.9267 26.028 24.26C26.6813 24.58 27.188 25.0533 27.548 25.68C27.908 26.2933 28.088 27.0467 28.088 27.94C28.088 28.58 27.9613 29.22 27.708 29.86C27.4547 30.4867 27.108 31.1 26.668 31.7C26.2413 32.3 25.7613 32.88 25.228 33.44C24.6947 33.9867 24.1413 34.5067 23.568 35C23.008 35.4933 22.468 35.94 21.948 36.34H28.528V38H19.068Z" fill="#8A8A8A"/>
</g>
<defs>
<linearGradient id="paint0_linear_35_144" x1="17.3712" y1="20.6086" x2="30.0192" y2="41.9802" gradientUnits="userSpaceOnUse">
<stop offset="0.18551" stop-color="#CCCCCC"/>
<stop offset="0.502379" stop-color="white"/>
<stop offset="0.919519" stop-color="#CCCCCC"/>
</linearGradient>
<clipPath id="clip0_35_144">
<rect width="47" height="48" fill="white"/>
</clipPath>
</defs>
</svg>
