<svg width="47" height="47" viewBox="0 0 47 47" fill="none" xmlns="http://www.w3.org/2000/svg">
<g clip-path="url(#clip0_35_152)">
<path d="M30.3619 13.4414L34.3176 10.0461C34.9814 9.47908 35.5113 8.2941 35.5113 7.42104V1.5477C35.5113 0.67464 34.8498 0 33.9767 0H24.717V12.1735C26.7806 12.3038 28.5831 12.7342 30.3619 13.4414Z" fill="#EC9D1C"/>
<path d="M22.336 0H13.0232C12.1502 0 11.383 0.67464 11.383 1.5477V7.42104C11.383 8.2941 11.9525 9.47226 12.6164 10.0393L16.5734 13.4407C18.4002 12.7147 20.4311 12.2808 22.336 12.1637V0Z" fill="#EC9D1C"/>
<path d="M23.4999 14.5112C14.5286 14.5112 7.2558 21.784 7.2558 30.7556C7.2558 39.7272 14.5286 47 23.4999 47C32.4714 47 39.7442 39.7272 39.7442 30.7556C39.7442 21.784 32.4714 14.5112 23.4999 14.5112ZM23.4999 43.713C16.3553 43.713 10.5428 37.9001 10.5428 30.7556C10.5428 23.6108 16.3553 17.7982 23.4999 17.7982C30.6447 17.7982 36.4572 23.6108 36.4572 30.7556C36.4572 37.9001 30.6447 43.713 23.4999 43.713Z" fill="#EC9D1C"/>
<path d="M23.4999 20.1793C17.6684 20.1793 12.9239 24.9239 12.9239 30.7556C12.9239 36.5874 17.6684 41.3319 23.4999 41.3319C29.3316 41.3319 34.0761 36.5874 34.0761 30.7556C34.0761 24.9239 29.3316 20.1793 23.4999 20.1793Z" fill="url(#paint0_linear_35_152)"/>
<path d="M23.622 37.74C22.7286 37.74 21.9086 37.58 21.162 37.26C20.4286 36.9267 19.842 36.4333 19.402 35.78C18.9753 35.1133 18.7486 34.28 18.722 33.28H20.722C20.7353 33.7867 20.8553 34.2467 21.082 34.66C21.3086 35.0733 21.6353 35.4067 22.062 35.66C22.502 35.9 23.022 36.02 23.622 36.02C24.222 36.02 24.722 35.9067 25.122 35.68C25.5353 35.4533 25.842 35.1467 26.042 34.76C26.2553 34.3733 26.362 33.94 26.362 33.46C26.362 32.86 26.2153 32.3733 25.922 32C25.642 31.6267 25.2553 31.3467 24.762 31.16C24.282 30.9733 23.742 30.88 23.142 30.88H22.102V29.2H23.142C23.982 29.2 24.6486 29.0067 25.142 28.62C25.6486 28.2333 25.902 27.6867 25.902 26.98C25.902 26.3933 25.7086 25.9133 25.322 25.54C24.9353 25.1667 24.3686 24.98 23.622 24.98C22.8753 24.98 22.282 25.1933 21.842 25.62C21.4153 26.0467 21.1753 26.5867 21.122 27.24H19.142C19.182 26.4533 19.3886 25.76 19.762 25.16C20.1486 24.5467 20.6686 24.08 21.322 23.76C21.9886 23.4267 22.7553 23.26 23.622 23.26C24.5553 23.26 25.3353 23.4267 25.962 23.76C26.602 24.08 27.082 24.5133 27.402 25.06C27.7353 25.6067 27.902 26.2067 27.902 26.86C27.902 27.3533 27.8086 27.8133 27.622 28.24C27.4353 28.6533 27.1686 29.0133 26.822 29.32C26.4753 29.6267 26.0553 29.8467 25.562 29.98C26.0953 30.0867 26.5753 30.2933 27.002 30.6C27.4286 30.9067 27.762 31.3067 28.002 31.8C28.242 32.28 28.362 32.84 28.362 33.48C28.362 34.24 28.182 34.9467 27.822 35.6C27.462 36.24 26.9286 36.76 26.222 37.16C25.5286 37.5467 24.662 37.74 23.622 37.74Z" fill="#662F0B"/>
</g>
<defs>
<linearGradient id="paint0_linear_35_152" x1="17.7703" y1="20.1793" x2="29.2297" y2="41.3319" gradientUnits="userSpaceOnUse">
<stop stop-color="#C48A2C"/>
<stop offset="0.5" stop-color="#FFBD43"/>
<stop offset="1" stop-color="#C48A2C"/>
</linearGradient>
<clipPath id="clip0_35_152">
<rect width="47" height="47" fill="white"/>
</clipPath>
</defs>
</svg>
