<svg width="101" height="58" viewBox="0 0 101 58" fill="none" xmlns="http://www.w3.org/2000/svg">
<g clip-path="url(#clip0_10_267)">
<path d="M92.9213 57.4968C92.6979 57.2946 92.5229 57.0357 92.4116 56.7426C92.3002 56.4495 92.2558 56.131 92.2823 55.8149C92.3525 55.1867 92.7879 54.6092 93.3527 54.4758C93.9175 54.3424 94.5613 54.7117 94.7328 55.316C94.8272 54.1509 94.936 52.9369 95.5015 51.9447C95.7576 51.4937 96.1024 51.1109 96.5107 50.8244C96.919 50.5379 97.3805 50.3547 97.8616 50.2883C98.3438 50.2313 98.8315 50.3066 99.2806 50.5074C99.7296 50.7083 100.126 51.0283 100.434 51.4387C100.733 51.8573 100.922 52.3577 100.979 52.8854C101.037 53.4132 100.961 53.9481 100.761 54.4321C100.451 55.1349 99.8815 55.658 99.2845 56.0835C97.3553 57.447 95.0415 58.0015 92.7689 57.645" fill="#F2F2F2"/>
<path d="M99.4837 50.6318C98.6906 51.3394 97.963 52.1308 97.3115 52.9946C96.2918 54.3418 95.4667 55.8522 94.8649 57.4733C94.8209 57.5916 94.9962 57.6431 95.0397 57.5261C96.0244 54.8915 97.5964 52.5694 99.6119 50.7722C99.7024 50.6915 99.5734 50.5517 99.4837 50.6318Z" fill="white"/>
<path d="M73.0815 28.6312L73.7512 26.895C73.8234 26.7078 73.9605 26.5597 74.1324 26.4832C74.3043 26.4068 74.4969 26.4083 74.6678 26.4874L87.0854 32.2351C87.4664 32.4115 87.7679 32.7465 87.9235 33.1664C88.0791 33.5863 88.0761 34.0567 87.9151 34.4741C87.7541 34.8916 87.4482 35.2218 87.0649 35.3923C86.6816 35.5627 86.2522 35.5594 85.8711 35.383L73.4535 29.6353C73.2827 29.5562 73.1475 29.406 73.0777 29.2177C73.0079 29.0294 73.0093 28.8184 73.0815 28.6312Z" fill="#FFB8B8"/>
<path d="M79.6663 27.0589C79.4503 26.6909 78.9305 26.6818 78.5975 26.9233C78.2645 27.1648 78.0735 27.5756 77.8969 27.968C77.5832 28.6651 77.2657 29.375 77.1506 30.142C77.0355 30.9089 77.1507 31.7553 77.6197 32.3384C78.0661 32.8934 78.7497 33.1271 79.3973 33.3364L85.4726 35.2999C86.1153 35.5076 86.8187 35.7129 87.4383 35.4334C87.8391 35.2312 88.1679 34.8901 88.3739 34.4626C88.6906 33.8249 88.8129 33.093 88.7231 32.3737C88.6333 31.6544 88.336 30.9854 87.8746 30.4643C86.7824 29.2842 85.0963 29.1881 83.5994 28.8208C82.1166 28.4559 80.7162 27.7673 79.4817 26.7964" fill="#2F2E41"/>
<path d="M90.8508 57.9728H89.1301C88.9292 57.9725 88.7366 57.885 88.5945 57.7294C88.4525 57.5737 88.3726 57.3628 88.3723 57.1427V41.433C88.3726 41.213 88.4525 41.002 88.5945 40.8464C88.7366 40.6907 88.9292 40.6032 89.1301 40.603H90.8508C91.0517 40.6032 91.2443 40.6907 91.3864 40.8464C91.5284 41.002 91.6083 41.213 91.6086 41.433V57.1427C91.6083 57.3628 91.5284 57.5737 91.3864 57.7294C91.2443 57.885 91.0517 57.9725 90.8508 57.9728Z" fill="#FFB8B8"/>
<path d="M87.4476 57.9728H85.7269C85.526 57.9725 85.3334 57.885 85.1913 57.7294C85.0493 57.5737 84.9693 57.3628 84.9691 57.1427V41.433C84.9693 41.213 85.0493 41.002 85.1913 40.8464C85.3334 40.6907 85.526 40.6032 85.7269 40.603H87.4476C87.6485 40.6032 87.8411 40.6907 87.9831 40.8464C88.1252 41.002 88.2051 41.213 88.2053 41.433V57.1427C88.2051 57.3628 88.1252 57.5737 87.9831 57.7294C87.8411 57.885 87.6485 57.9725 87.4476 57.9728Z" fill="#FFB8B8"/>
<path d="M88.2374 24.2082C91.5211 24.2082 94.183 21.2922 94.183 17.6951C94.183 14.0981 91.5211 11.1821 88.2374 11.1821C84.9538 11.1821 82.2919 14.0981 82.2919 17.6951C82.2919 21.2922 84.9538 24.2082 88.2374 24.2082Z" fill="#FFB8B8"/>
<path d="M83.1036 19.2798C82.7182 19.2681 82.2385 19.2535 81.869 18.9578C81.7589 18.8661 81.6685 18.7492 81.6041 18.6152C81.5397 18.4813 81.5027 18.3335 81.4959 18.1822C81.4892 18.0747 81.5053 17.967 81.543 17.8675C81.5806 17.7679 81.6387 17.6793 81.7128 17.6084C81.9058 17.4298 82.1876 17.3879 82.4913 17.4856L82.1767 14.9666L82.4077 14.9319L82.7776 17.8934L82.5847 17.7964C82.3611 17.6841 82.0541 17.6269 81.8633 17.8035C81.8165 17.8496 81.78 17.907 81.7567 17.9712C81.7333 18.0353 81.7239 18.1044 81.7289 18.1732C81.7346 18.2858 81.7623 18.3957 81.8102 18.4955C81.8581 18.5953 81.9251 18.6826 82.0065 18.7515C82.2941 18.9816 82.6764 19.0113 83.11 19.0245L83.1036 19.2798Z" fill="#2F2E41"/>
<path d="M84.998 15.1838H83.7422V15.4392H84.998V15.1838Z" fill="#2F2E41"/>
<path d="M87.287 16.9336C87.558 16.8103 87.7936 16.6092 87.969 16.3514C88.1444 16.0937 88.253 15.7889 88.2834 15.4691C88.3064 15.141 88.2531 14.8118 88.1286 14.5123C88.0041 14.2128 87.8123 13.9527 87.5713 13.7564C86.557 12.9179 85.1587 13.4485 84.0967 12.7573C83.8505 12.5975 83.6589 12.3537 83.5513 12.0632C83.4437 11.7727 83.426 11.4515 83.501 11.149C83.6469 10.4617 84.1219 9.95991 84.6623 9.61547C85.731 8.93442 87.0318 8.68042 88.2559 8.72999C90.773 8.8319 93.0919 10.2636 94.5955 12.4541C95.3296 13.5301 95.8834 14.7403 96.231 16.0284C96.5906 17.3508 96.7899 18.7988 96.5618 20.1693C96.4698 20.8129 96.2521 21.4272 95.9237 21.9703C95.5953 22.5135 95.1638 22.9726 94.6586 23.3165C93.6932 24.0052 92.5609 24.3584 91.4434 24.6143C91.1647 24.6781 90.8848 24.7352 90.6044 24.7891C90.3831 24.8316 90.4769 25.2009 90.6974 25.1586C92.9487 24.7261 95.5997 23.9615 96.5848 21.4257C97.1149 20.0611 97.0771 18.5159 96.8263 17.0842C96.5901 15.7309 96.1416 14.4326 95.5006 13.2471C94.1923 10.8384 92.0627 9.03544 89.5263 8.50608C88.2611 8.23074 86.9535 8.29996 85.7184 8.70765C84.552 9.10638 83.2273 9.90065 83.1153 11.3907C83.0884 11.7207 83.1462 12.0524 83.2823 12.3483C83.4184 12.6442 83.6274 12.8924 83.8855 13.0651C84.3914 13.4095 85.0012 13.4937 85.5823 13.5493C86.2088 13.6094 86.9268 13.6505 87.4291 14.1192C87.8969 14.5558 88.0931 15.3123 87.8034 15.9256C87.6744 16.2097 87.4589 16.4356 87.194 16.5641C87.1502 16.5791 87.1131 16.6118 87.0905 16.6555C87.0678 16.6993 87.0611 16.7508 87.0719 16.7998C87.0844 16.8486 87.114 16.89 87.1543 16.9151C87.1946 16.9401 87.2423 16.9468 87.287 16.9336Z" fill="#2F2E41"/>
<path d="M93.3163 27.7914L93.292 27.7435C93.2327 27.6265 93.1465 27.5286 93.0419 27.4595C92.9373 27.3904 92.818 27.3524 92.6959 27.3495L89.6278 27.2759V26.8314C89.6278 26.7308 89.6098 26.6311 89.5746 26.5381C89.5395 26.4452 89.4879 26.3607 89.423 26.2896C89.358 26.2184 89.2809 26.162 89.1961 26.1235C89.1112 26.085 89.0202 26.0651 88.9284 26.0651H87.0631C86.8776 26.0651 86.6997 26.1459 86.5685 26.2896C86.4373 26.4333 86.3636 26.6282 86.3636 26.8314V27.1975L83.5824 27.1307C83.4593 27.1278 83.3377 27.1605 83.2298 27.2255C83.122 27.2905 83.0317 27.3855 82.9681 27.501C81.4815 30.2005 80.6716 33.282 80.6201 36.4342C80.5687 39.5863 81.2776 42.6975 82.6752 45.4535L82.6995 45.5015C82.7588 45.6184 82.845 45.7163 82.9496 45.7854C83.0542 45.8546 83.1735 45.8925 83.2956 45.8954L92.4091 46.1142C92.5322 46.1171 92.6538 46.0845 92.7616 46.0195C92.8695 45.9544 92.9598 45.8594 93.0233 45.7439C94.51 43.0444 95.3199 39.963 95.3714 36.8108C95.4228 33.6586 94.7139 30.5474 93.3163 27.7914Z" fill="#2F2E41"/>
<path d="M85.6503 45.8605L83.9702 45.4537C83.789 45.4099 83.6312 45.289 83.5314 45.1177C83.4317 44.9464 83.3981 44.7386 83.4381 44.5402L86.3469 30.1208C86.4361 29.6783 86.6822 29.2928 87.031 29.0491C87.3797 28.8053 87.8026 28.7233 88.2065 28.8211C88.6105 28.9189 88.9624 29.1884 89.1849 29.5705C89.4074 29.9525 89.4823 30.4157 89.393 30.8582L86.4842 45.2776C86.4442 45.476 86.3339 45.6489 86.1775 45.7582C86.0211 45.8675 85.8315 45.9043 85.6503 45.8605Z" fill="#FFB8B8"/>
<path d="M83.7234 38.6563C83.4255 38.9477 83.4986 39.5114 83.7686 39.8339C84.0385 40.1564 84.4387 40.2987 84.8202 40.4282C85.4979 40.6585 86.1877 40.8908 86.8972 40.8952C87.6067 40.8996 88.3517 40.6424 88.8041 40.0436C89.2345 39.4737 89.3381 38.6975 89.4254 37.964L90.2441 31.0836C90.3307 30.3557 90.4056 29.5624 90.0565 28.9358C89.8115 28.5339 89.4524 28.2316 89.0348 28.0757C88.4102 27.833 87.7311 27.8152 87.0967 28.025C86.4622 28.2349 85.9056 28.6613 85.508 29.2422C84.6152 30.6086 84.7926 32.448 84.6959 34.125C84.5991 35.7864 84.1977 37.4095 83.5156 38.8972" fill="#2F2E41"/>
<path d="M72.2511 34.1567H1.99574C1.46662 34.156 0.959348 33.9255 0.585206 33.5156C0.211065 33.1057 0.000609113 32.5501 1.14441e-05 31.9704V2.18622C0.000609112 1.60661 0.211065 1.05091 0.585206 0.641059C0.959348 0.231205 1.46662 0.00065979 1.99574 0H72.2511C72.7802 0.000657756 73.2875 0.231201 73.6616 0.641056C74.0358 1.05091 74.2462 1.6066 74.2468 2.18622V31.9704C74.2462 32.5501 74.0358 33.1058 73.6616 33.5156C73.2875 33.9255 72.7802 34.156 72.2511 34.1567Z" fill="#3F3D56"/>
<path d="M72.2511 0.446976H1.99572C1.57481 0.44759 1.1713 0.631026 0.873674 0.957061C0.576046 1.2831 0.408592 1.72512 0.408031 2.1862V31.9704C0.408592 32.4315 0.576046 32.8735 0.873674 33.1996C1.1713 33.5256 1.57481 33.7091 1.99572 33.7097H72.2511C72.672 33.7091 73.0755 33.5256 73.3731 33.1996C73.6708 32.8735 73.8382 32.4315 73.8388 31.9704V2.1862C73.8382 1.72512 73.6708 1.2831 73.3731 0.957061C73.0755 0.631026 72.672 0.44759 72.2511 0.446976Z" fill="white"/>
<path d="M73.8388 5.29399V31.9705C73.8382 32.4315 73.6707 32.8736 73.3731 33.1996C73.0755 33.5256 72.672 33.7091 72.2511 33.7097H1.99572C1.57481 33.7091 1.1713 33.5256 0.873674 33.1996C0.576046 32.8735 0.408592 32.4315 0.408031 31.9704V29.079C0.681885 27.8463 1.77047 26.7734 2.95726 26.4701C4.54994 26.0636 6.20014 26.6321 7.75605 27.1865C9.31103 27.7409 10.9701 28.2931 12.5558 27.8539C17.1582 26.5832 17.6841 18.4153 22.2656 17.062C24.9488 16.2696 27.5864 18.286 29.7565 20.1883C31.9267 22.0895 34.5553 24.1135 37.2425 23.3363C39.2102 22.7667 40.5538 20.8503 41.8874 19.1665C43.2212 17.4827 44.9715 15.8054 46.9988 16C49.1214 16.2033 50.6654 18.3849 52.7294 18.9632C55.4434 19.7219 58.1266 17.499 59.7292 14.9826C61.3308 12.4661 62.3955 9.48334 64.4734 7.42779C66.9551 4.97222 70.583 4.35806 73.8388 5.29399Z" fill="#CCCCCC"/>
<path d="M100.825 58H78.7575C78.7392 58.0001 78.7211 57.9962 78.7042 57.9886C78.6873 57.9809 78.672 57.9697 78.659 57.9556C78.6461 57.9415 78.6359 57.9247 78.6288 57.9062C78.6218 57.8878 78.6182 57.868 78.6182 57.8479C78.6182 57.8279 78.6218 57.8081 78.6288 57.7897C78.6359 57.7712 78.6461 57.7544 78.659 57.7403C78.672 57.7261 78.6873 57.715 78.7042 57.7073C78.7211 57.6997 78.7392 57.6958 78.7575 57.6959H100.825C100.862 57.6959 100.897 57.7119 100.923 57.7404C100.949 57.7689 100.964 57.8076 100.964 57.8479C100.964 57.8883 100.949 57.927 100.923 57.9555C100.897 57.984 100.862 58 100.825 58Z" fill="#3F3D56"/>
</g>
<defs>
<clipPath id="clip0_10_267">
<rect width="101" height="58" fill="white"/>
</clipPath>
</defs>
</svg>
