<svg width="99" height="62" viewBox="0 0 99 62" fill="none" xmlns="http://www.w3.org/2000/svg">
<g clip-path="url(#clip0_10_453)">
<path d="M98.2568 40.6074H60.0371C59.8401 40.6072 59.6512 40.5297 59.5118 40.392C59.3725 40.2542 59.2941 40.0674 59.2939 39.8726V0.734819C59.2941 0.539999 59.3725 0.353222 59.5118 0.215464C59.6512 0.0777055 59.8401 0.000217673 60.0371 0H98.2568C98.4538 0.000217335 98.6427 0.0777054 98.7821 0.215464C98.9214 0.353222 98.9998 0.539999 99 0.734819V39.8726C98.9998 40.0674 98.9214 40.2542 98.7821 40.392C98.6427 40.5297 98.4538 40.6072 98.2568 40.6074ZM60.0371 0.256198C59.9088 0.256343 59.7857 0.306816 59.695 0.396543C59.6042 0.486271 59.5532 0.607925 59.553 0.734819V39.8726C59.5532 39.9995 59.6042 40.1212 59.695 40.2109C59.7857 40.3006 59.9088 40.3511 60.0371 40.3512H98.2568C98.3851 40.3511 98.5082 40.3006 98.5989 40.2109C98.6897 40.1212 98.7407 39.9995 98.7409 39.8726V0.734819C98.7407 0.607925 98.6897 0.486271 98.5989 0.396543C98.5082 0.306816 98.3851 0.256343 98.2568 0.256198H60.0371Z" fill="#3F3D56"/>
<path d="M86.351 16.4488C87.2049 18.0081 87.5176 19.8015 87.2411 21.5535C86.9645 23.3055 86.1141 24.9194 84.8202 26.1473C83.5263 27.3753 81.8605 28.1494 80.0787 28.3509C78.2968 28.5524 76.4973 28.17 74.9564 27.2626C73.4155 26.3552 72.2185 24.9728 71.549 23.3277C70.8796 21.6826 70.7747 19.8658 71.2506 18.1561C71.7264 16.4464 72.7567 14.9384 74.1832 13.8635C75.6096 12.7887 77.3535 12.2065 79.147 12.2063C79.2119 12.2063 79.2767 12.2072 79.3413 12.2087L79.2547 8.74931C79.2187 8.74899 79.183 8.74796 79.147 8.74796C76.5665 8.74869 74.0588 9.594 72.0154 11.152C69.9719 12.7099 68.5075 14.8929 67.8507 17.3602C67.194 19.8275 67.3818 22.4404 68.3849 24.7911C69.388 27.1418 71.1499 29.0981 73.3957 30.3546C75.6415 31.6112 78.2449 32.0973 80.7995 31.7372C83.3542 31.3771 85.7164 30.191 87.5175 28.3639C89.3187 26.5369 90.4575 24.1718 90.7561 21.6376C91.0548 19.1034 90.4966 16.5427 89.1686 14.3552L86.351 16.4488Z" fill="#E6E6E6"/>
<path d="M86.351 16.4488L89.1686 14.3551C88.1396 12.6599 86.6877 11.2541 84.9518 10.2726C83.216 9.29103 81.2543 8.76653 79.2547 8.7493L79.3413 12.2087C80.7839 12.2421 82.192 12.6518 83.423 13.3964C84.6539 14.141 85.664 15.194 86.351 16.4488Z" fill="#E6E6E6"/>
<path d="M85.0964 30.2229L84.9518 30.3645L89.0561 34.4608L89.2007 34.3192L85.0964 30.2229Z" fill="#3F3D56"/>
<path d="M87.7314 5.14828L84.8786 10.1773L85.0561 10.2757L87.909 5.24675L87.7314 5.14828Z" fill="#3F3D56"/>
<path d="M92.1996 35.9722H86.1426C86.0349 35.9721 85.9317 35.9298 85.8556 35.8545C85.7794 35.7793 85.7366 35.6772 85.7364 35.5708V34.7274C85.7366 34.6209 85.7794 34.5189 85.8556 34.4437C85.9317 34.3684 86.0349 34.3261 86.1426 34.326H92.1996C92.3073 34.3261 92.4105 34.3684 92.4866 34.4437C92.5628 34.5189 92.6056 34.621 92.6057 34.7274V35.5708C92.6056 35.6772 92.5628 35.7793 92.4866 35.8545C92.4105 35.9298 92.3073 35.9721 92.1996 35.9722Z" fill="#E6E6E6"/>
<path d="M90.6641 5.26932H84.6069C84.4993 5.26919 84.3961 5.22686 84.32 5.1516C84.2439 5.07635 84.2011 4.97432 84.2009 4.86789V4.02442C84.2011 3.91799 84.2439 3.81596 84.32 3.74071C84.3961 3.66545 84.4993 3.62311 84.6069 3.62299H90.6641C90.7717 3.62311 90.8749 3.66545 90.951 3.74071C91.0272 3.81596 91.07 3.91799 91.0701 4.02442V4.86789C91.07 4.97432 91.0272 5.07635 90.951 5.1516C90.8749 5.22686 90.7717 5.26919 90.6641 5.26932Z" fill="#E6E6E6"/>
<path d="M53.1843 18.6862H9.99244C9.80473 18.686 9.62476 18.6121 9.49202 18.4809C9.35929 18.3497 9.28462 18.1717 9.28441 17.9861V0.828155C9.28462 0.642557 9.35929 0.464621 9.49202 0.333383C9.62476 0.202145 9.80473 0.128323 9.99244 0.128113H53.1843C53.3721 0.12833 53.552 0.202154 53.6847 0.333391C53.8175 0.464628 53.8921 0.642562 53.8924 0.828155V17.9861C53.8921 18.1717 53.8175 18.3497 53.6847 18.4809C53.552 18.6121 53.3721 18.686 53.1843 18.6862ZM9.99244 0.384311C9.87342 0.384439 9.75932 0.431242 9.67516 0.514451C9.591 0.59766 9.54366 0.710479 9.54353 0.828155V17.9861C9.54366 18.1038 9.591 18.2166 9.67516 18.2998C9.75932 18.383 9.87342 18.4298 9.99244 18.43H53.1843C53.3034 18.4298 53.4175 18.383 53.5016 18.2998C53.5858 18.2166 53.6331 18.1038 53.6332 17.9861V0.828155C53.6331 0.710484 53.5858 0.597669 53.5016 0.514461C53.4175 0.431252 53.3034 0.384445 53.1843 0.384311H9.99244Z" fill="#3F3D56"/>
<path d="M26.8293 14.4279H22.6445C22.5376 14.4277 22.4342 14.39 22.3527 14.3215C22.2713 14.253 22.2171 14.1581 22.1998 14.0537C21.9268 12.3008 21.9268 10.5169 22.1998 8.76403C22.2171 8.6597 22.2713 8.56482 22.3527 8.4963C22.4342 8.42778 22.5376 8.39006 22.6445 8.38986H26.8293C26.8971 8.38965 26.964 8.40474 27.0251 8.43397C27.0861 8.4632 27.1396 8.50581 27.1814 8.55856C27.2242 8.61205 27.2541 8.67449 27.2688 8.74111C27.2834 8.80774 27.2826 8.8768 27.2662 8.94304C26.8747 10.5642 26.8747 12.2536 27.2662 13.8747C27.2826 13.941 27.2834 14.01 27.2688 14.0767C27.2541 14.1433 27.2242 14.2057 27.1814 14.2592C27.1396 14.312 27.0861 14.3546 27.0251 14.3838C26.9641 14.413 26.8971 14.4281 26.8293 14.4279Z" fill="#E6E6E6"/>
<path d="M40.8407 14.4279H36.6559C36.549 14.4277 36.4456 14.39 36.3641 14.3215C36.2827 14.2529 36.2285 14.1581 36.2112 14.0537C35.9382 12.3008 35.9382 10.5169 36.2112 8.76403C36.2285 8.6597 36.2827 8.56484 36.3641 8.49632C36.4456 8.4278 36.549 8.39008 36.6559 8.38986H40.8407C40.9085 8.38965 40.9755 8.40474 41.0365 8.43399C41.0976 8.46323 41.151 8.50586 41.1929 8.55862C41.2356 8.6121 41.2655 8.67453 41.2802 8.74115C41.2948 8.80777 41.294 8.87682 41.2776 8.94305C40.8861 10.5642 40.8861 12.2536 41.2776 13.8747C41.294 13.941 41.2948 14.01 41.2802 14.0766C41.2655 14.1432 41.2356 14.2057 41.1929 14.2592C41.151 14.3119 41.0975 14.3545 41.0365 14.3838C40.9755 14.413 40.9085 14.4281 40.8407 14.4279Z" fill="#E6E6E6"/>
<path d="M19.7112 10.4244H15.5264C15.4195 10.4242 15.3161 10.3865 15.2347 10.3179C15.1532 10.2494 15.099 10.1545 15.0817 10.0502C14.8088 8.2973 14.8088 6.5134 15.0817 4.76049C15.099 4.65616 15.1532 4.56128 15.2347 4.49276C15.3161 4.42424 15.4195 4.38652 15.5264 4.38632H19.7112C19.779 4.38611 19.846 4.4012 19.907 4.43043C19.968 4.45966 20.0215 4.50227 20.0634 4.55502C20.1061 4.60851 20.136 4.67095 20.1507 4.73757C20.1654 4.8042 20.1645 4.87326 20.1481 4.9395C19.7567 6.56061 19.7566 8.25008 20.1481 9.87119C20.1645 9.93743 20.1654 10.0065 20.1507 10.0731C20.136 10.1397 20.1062 10.2022 20.0634 10.2557C20.0215 10.3084 19.968 10.351 19.907 10.3803C19.846 10.4095 19.779 10.4246 19.7112 10.4244Z" fill="#E6E6E6"/>
<path d="M33.8637 10.4244H29.6788C29.611 10.4246 29.5441 10.4095 29.483 10.3803C29.422 10.351 29.3685 10.3084 29.3267 10.2556C29.2839 10.2021 29.2541 10.1397 29.2394 10.0731C29.2247 10.0065 29.2256 9.93742 29.242 9.87119C29.6334 8.25008 29.6334 6.56062 29.242 4.9395C29.2256 4.87328 29.2247 4.80422 29.2394 4.73761C29.2541 4.67099 29.2839 4.60856 29.3267 4.55508C29.3685 4.50232 29.422 4.45969 29.483 4.43045C29.5441 4.4012 29.611 4.38611 29.6788 4.38632H33.8637C33.9706 4.38652 34.074 4.42424 34.1554 4.49276C34.2368 4.56128 34.291 4.65616 34.3083 4.76049C34.5813 6.5134 34.5813 8.2973 34.3083 10.0502C34.291 10.1545 34.2368 10.2494 34.1554 10.3179C34.074 10.3865 33.9706 10.4242 33.8637 10.4244Z" fill="#E6E6E6"/>
<path d="M47.6504 10.4244H43.4655C43.3977 10.4246 43.3307 10.4095 43.2697 10.3803C43.2087 10.351 43.1552 10.3084 43.1134 10.2556C43.0706 10.2021 43.0408 10.1397 43.0261 10.0731C43.0114 10.0065 43.0123 9.93742 43.0287 9.87119C43.4201 8.25008 43.4201 6.56062 43.0286 4.9395C43.0123 4.87327 43.0114 4.80422 43.0261 4.73761C43.0408 4.67099 43.0706 4.60856 43.1134 4.55508C43.1552 4.50232 43.2087 4.45969 43.2697 4.43045C43.3307 4.4012 43.3977 4.38611 43.4655 4.38632H47.6504C47.7573 4.38654 47.8607 4.42426 47.9421 4.49278C48.0235 4.5613 48.0777 4.65616 48.0951 4.76049C48.368 6.5134 48.368 8.29729 48.0951 10.0502C48.0777 10.1545 48.0235 10.2494 47.9421 10.3179C47.8607 10.3864 47.7573 10.4242 47.6504 10.4244Z" fill="#FF6584"/>
<path d="M24.3495 40.9233C24.1501 40.8831 23.962 40.8003 23.7986 40.6805C23.6351 40.5607 23.5002 40.4069 23.4033 40.23C23.3064 40.0531 23.25 39.8573 23.2379 39.6565C23.2258 39.4557 23.2584 39.2547 23.3334 39.0676L17.5894 26.8737L20.5033 26.064L25.2384 38.3197C25.5478 38.4651 25.7925 38.7177 25.9261 39.0296C26.0598 39.3414 26.0731 39.691 25.9635 40.0119C25.854 40.3328 25.6291 40.6028 25.3317 40.7708C25.0342 40.9388 24.6847 40.9931 24.3495 40.9233Z" fill="#A0616A"/>
<path d="M13.2255 60.3813H14.814L15.5696 54.3238H13.2253L13.2255 60.3813Z" fill="#A0616A"/>
<path d="M17.8773 61.8394L12.8852 61.8397L12.8851 59.9327L15.9485 59.9325C16.46 59.9325 16.9506 60.1334 17.3123 60.491C17.6741 60.8486 17.8773 61.3337 17.8773 61.8394Z" fill="#2F2E41"/>
<path d="M4.96921 58.6884L6.42924 59.3067L9.53639 54.0328L7.38139 53.1202L4.96921 58.6884Z" fill="#A0616A"/>
<path d="M8.66449 61.8397L4.07559 59.8963L4.83499 58.1434L7.6509 59.3359C8.12113 59.535 8.49209 59.9107 8.68217 60.3802C8.87225 60.8498 8.86589 61.3747 8.66449 61.8397Z" fill="#2F2E41"/>
<path d="M17.1527 21.1531C18.9102 21.1531 20.3349 19.7445 20.3349 18.0068C20.3349 16.2692 18.9102 14.8606 17.1527 14.8606C15.3953 14.8606 13.9706 16.2692 13.9706 18.0068C13.9706 19.7445 15.3953 21.1531 17.1527 21.1531Z" fill="#A0616A"/>
<path d="M14.8538 58.9003L13.1052 58.571C12.9615 58.5447 12.8331 58.4657 12.7458 58.3498C12.6584 58.2339 12.6186 58.0897 12.6343 57.946L13.7938 46.7682C13.8049 46.6616 13.7769 46.5545 13.715 46.4665C13.6531 46.3785 13.5614 46.3153 13.4564 46.2884C13.3515 46.2615 13.2402 46.2727 13.1429 46.32C13.0456 46.3672 12.9686 46.4474 12.9259 46.5459L7.86373 58.2243C7.8333 58.2945 7.78908 58.358 7.73363 58.4111C7.67818 58.4642 7.61261 58.506 7.54073 58.5338C7.46884 58.5617 7.39208 58.5752 7.31488 58.5735C7.23769 58.5718 7.1616 58.5549 7.09104 58.5239L5.66887 57.8989C5.5361 57.8412 5.43001 57.7364 5.37146 57.6052C5.31292 57.4739 5.30616 57.3258 5.35252 57.1899L8.81469 46.9206C8.82444 46.8917 8.83118 46.8619 8.83481 46.8316L9.95864 37.4487C9.97089 37.3463 10.0107 37.249 10.074 37.167C10.1372 37.085 10.2215 37.0212 10.3182 36.9824L13.8667 35.5571C13.9717 35.515 14.0868 35.504 14.198 35.5254C14.3092 35.5469 14.4117 35.6 14.4929 35.6781L18.9719 39.9901C19.0417 40.057 19.0934 40.1401 19.1222 40.2319C19.1511 40.3237 19.1562 40.4211 19.137 40.5154L15.5347 58.4464C15.5081 58.5771 15.4365 58.6947 15.3322 58.7792C15.228 58.8638 15.0973 58.9102 14.9625 58.9105C14.926 58.9105 14.8896 58.9071 14.8538 58.9003Z" fill="#2F2E41"/>
<path d="M12.8603 37.9661C12.2404 37.2565 11.788 36.9343 11.4786 36.9851C11.1716 37.0342 10.9944 37.4583 10.8069 37.9072C10.5509 38.5201 10.2608 39.2147 9.5457 39.269C9.43437 39.2879 9.3199 39.2755 9.21537 39.2332C9.11085 39.1908 9.02048 39.1202 8.95461 39.0295C8.39211 38.2023 9.74131 35.4652 9.86458 35.2193L9.80131 22.2735C9.80044 22.1691 9.82836 22.0663 9.88207 21.9764C9.93578 21.8865 10.0133 21.8127 10.1062 21.763C13.8138 19.7862 18.8201 23.2241 19.786 23.9335C19.8633 23.9901 19.9252 24.0648 19.9661 24.1508C20.0071 24.2369 20.0258 24.3316 20.0206 24.4265C19.904 26.5947 19.3226 37.5337 19.3226 39.9738C19.3226 40.6493 19.087 41.0786 18.6222 41.2494C18.4653 41.3045 18.2997 41.3313 18.1332 41.3287C16.715 41.3288 14.3923 39.72 12.8603 37.9661Z" fill="#CCCCCC"/>
<path d="M18.0345 31.68C17.957 31.6302 17.8927 31.5627 17.8471 31.4832C17.8015 31.4037 17.7759 31.3145 17.7724 31.2232L17.5213 25.4247C17.5058 25.0677 17.6193 24.7169 17.8415 24.4351C18.0637 24.1533 18.3801 23.9588 18.734 23.8866C19.0879 23.8143 19.4563 23.8689 19.7733 24.0406C20.0902 24.2123 20.335 24.4899 20.4639 24.8237L22.3435 29.6936C22.3984 29.8365 22.3938 29.995 22.3307 30.1345C22.2675 30.274 22.151 30.3831 22.0066 30.4377L18.5628 31.7371C18.4765 31.7701 18.3835 31.7822 18.2916 31.7722C18.1997 31.7623 18.1115 31.7307 18.0345 31.68Z" fill="#CCCCCC"/>
<path d="M9.28296 40.7403C9.11412 40.628 8.97223 40.4805 8.8673 40.3081C8.76237 40.1357 8.69693 39.9427 8.67561 39.7426C8.65429 39.5426 8.67759 39.3403 8.74388 39.1501C8.81017 38.9599 8.91784 38.7864 9.0593 38.6418L8.45163 25.2036L11.4577 25.5535L11.1087 38.6685C11.3387 38.9195 11.4675 39.2453 11.4708 39.584C11.4741 39.9227 11.3516 40.2508 11.1266 40.5062C10.9015 40.7616 10.5895 40.9264 10.2498 40.9696C9.90996 41.0127 9.56597 40.9311 9.28296 40.7403Z" fill="#A0616A"/>
<path d="M7.19556 28.7819C7.14107 28.708 7.10534 28.6223 7.09139 28.5319C7.07744 28.4416 7.08568 28.3492 7.11541 28.2626L8.97172 22.7566C9.08599 22.4176 9.31855 22.1299 9.62776 21.9449C9.93698 21.7599 10.3027 21.6898 10.6594 21.747C11.0162 21.8043 11.3407 21.9852 11.5749 22.2573C11.8091 22.5295 11.9376 22.8752 11.9376 23.2325V28.4449C11.9375 28.5977 11.876 28.7442 11.7667 28.8523C11.6574 28.9604 11.5092 29.0212 11.3546 29.0213H7.66854C7.57607 29.0218 7.48483 29.0003 7.40251 28.9587C7.3202 28.917 7.24922 28.8564 7.19556 28.7819Z" fill="#CCCCCC"/>
<path d="M15.0978 20.123C14.9786 20.2153 14.8298 20.262 14.6787 20.2545C14.5275 20.2471 14.3842 20.186 14.2749 20.0824C13.5929 19.4521 13.0173 18.6985 12.726 17.8256C12.3922 16.8254 12.4775 15.654 13.1167 14.8114C13.6571 14.0992 14.5124 13.6968 15.3548 13.3822C15.6837 13.2447 16.0311 13.1555 16.3861 13.1174C16.7447 13.0806 17.104 13.1804 17.3908 13.3963C17.5306 13.5067 17.6335 13.6561 17.686 13.8251C17.7386 13.9942 17.7385 14.1749 17.6856 14.3439C18.1176 13.9559 18.6447 13.6863 19.2146 13.5618C19.5753 13.4673 19.9566 13.4829 20.3081 13.6066C20.7967 13.8053 21.1141 14.2905 21.2603 14.7924C21.3812 15.1752 21.391 15.584 21.2886 15.9721C21.236 16.165 21.143 16.3449 21.0156 16.5001C20.8883 16.6552 20.7294 16.7822 20.5493 16.8729C20.1023 17.0811 19.5719 17.0025 19.1045 16.844C18.6371 16.6855 18.194 16.4516 17.7106 16.3505C17.2272 16.2494 16.669 16.3084 16.327 16.6609C16.0861 16.9092 15.9912 17.2584 15.9051 17.5917L15.457 19.3254C15.4075 19.578 15.3129 19.8197 15.1775 20.0394C15.1549 20.0707 15.128 20.0988 15.0978 20.123Z" fill="#2F2E41"/>
<path d="M28.0032 45.1392H23.8184C23.7114 45.139 23.6081 45.1013 23.5266 45.0328C23.4452 44.9643 23.391 44.8694 23.3737 44.7651C23.1007 43.0122 23.1007 41.2283 23.3737 39.4754C23.391 39.371 23.4452 39.2762 23.5266 39.2076C23.6081 39.1391 23.7114 39.1014 23.8184 39.1012H28.0032C28.071 39.101 28.138 39.1161 28.199 39.1453C28.26 39.1746 28.3135 39.2172 28.3554 39.27C28.3981 39.3234 28.428 39.3859 28.4427 39.4525C28.4573 39.5191 28.4565 39.5881 28.4401 39.6544C28.0486 41.2755 28.0486 42.965 28.4401 44.5861C28.4565 44.6523 28.4573 44.7213 28.4427 44.788C28.428 44.8546 28.3981 44.917 28.3554 44.9705C28.3135 45.0233 28.26 45.0659 28.199 45.0951C28.138 45.1244 28.071 45.1395 28.0032 45.1392Z" fill="#E6E6E6"/>
<path d="M20.989 62H0.129562C0.0951999 62 0.0622452 61.9865 0.0379477 61.9625C0.0136501 61.9385 0 61.9059 0 61.8719C0 61.8379 0.0136501 61.8053 0.0379477 61.7813C0.0622452 61.7573 0.0951999 61.7438 0.129562 61.7438H20.989C21.0234 61.7438 21.0563 61.7573 21.0806 61.7813C21.1049 61.8053 21.1186 61.8379 21.1186 61.8719C21.1186 61.9059 21.1049 61.9385 21.0806 61.9625C21.0563 61.9865 21.0234 62 20.989 62Z" fill="#3F3D56"/>
</g>
<defs>
<clipPath id="clip0_10_453">
<rect width="99" height="62" fill="white"/>
</clipPath>
</defs>
</svg>
