<svg width="109" height="63" viewBox="0 0 109 63" fill="none" xmlns="http://www.w3.org/2000/svg">
<g clip-path="url(#clip0_10_320)">
<path d="M10.089 49.213C10.0026 49.217 9.91703 49.1942 9.84393 49.1478C9.77083 49.1014 9.71372 49.0336 9.68035 48.9536C9.64697 48.8735 9.63894 48.7851 9.65734 48.7004C9.67573 48.6156 9.71968 48.5385 9.78321 48.4797C9.79385 48.4373 9.80148 48.4068 9.81212 48.3644C9.80831 48.3552 9.80448 48.346 9.80063 48.3367C9.71356 48.1305 9.56766 47.9547 9.38126 47.8314C9.19485 47.708 8.97626 47.6427 8.75293 47.6435C8.5296 47.6443 8.31149 47.7113 8.126 47.836C7.94052 47.9608 7.79592 48.1377 7.71039 48.3445C7.36851 49.1701 6.93325 49.9971 6.82608 50.8701C6.77888 51.2559 6.79879 51.6471 6.88493 52.0261C6.08197 50.2698 5.66501 48.361 5.66233 46.4289C5.66216 45.9441 5.68902 45.4597 5.74279 44.9779C5.78723 44.5829 5.84889 44.1907 5.92775 43.8013C6.35812 41.6887 7.28214 39.7086 8.62393 38.0236C9.27336 37.6683 9.79856 37.1219 10.1288 36.4581C10.2484 36.2195 10.3329 35.9647 10.3798 35.7018C10.3065 35.7115 10.232 35.7175 10.1588 35.7223C10.136 35.7235 10.1119 35.7247 10.0891 35.7259L10.0805 35.7263C10 35.7299 9.92016 35.7101 9.8506 35.6693C9.78105 35.6285 9.72474 35.5684 9.68846 35.4962C9.65218 35.4241 9.63747 35.3429 9.64611 35.2626C9.65476 35.1822 9.68637 35.1061 9.73716 35.0434C9.76879 35.0043 9.80044 34.9653 9.83211 34.9263C9.88015 34.8661 9.92939 34.8071 9.97743 34.7469C9.98297 34.7412 9.98818 34.7351 9.99304 34.7288C10.0483 34.6602 10.1035 34.5927 10.1588 34.5241C10.0579 34.3672 9.9223 34.2357 9.76246 34.14C9.20881 33.8148 8.44498 34.04 8.04505 34.5422C7.64393 35.0443 7.56827 35.7488 7.70758 36.3762C7.84458 36.91 8.0712 37.4166 8.37773 37.8742C8.3477 37.9128 8.31647 37.9501 8.28645 37.9886C7.7376 38.6963 7.25924 39.4562 6.85822 40.2574C6.95574 39.3598 6.83935 38.4518 6.51862 37.6081C6.19355 36.8218 5.58427 36.1596 5.04773 35.4798C4.40325 34.6634 3.08169 35.0197 2.96815 36.0547C2.96705 36.0647 2.96598 36.0748 2.96493 36.0848C3.04462 36.1298 3.12263 36.1777 3.19896 36.2283C3.29485 36.2926 3.36915 36.3843 3.41212 36.4916C3.4551 36.5989 3.46475 36.7168 3.4398 36.8296C3.41486 36.9425 3.35649 37.0453 3.27233 37.1243C3.18818 37.2034 3.08217 37.2551 2.9682 37.2727L2.95653 37.2745C2.98492 37.5625 3.0351 37.8479 3.10664 38.1283C3.31395 38.911 3.68029 39.6423 4.18269 40.2764C4.68509 40.9105 5.31271 41.4337 6.02621 41.8132C6.07305 41.8373 6.1187 41.8614 6.16553 41.8842C5.76263 43.0291 5.50991 44.2216 5.41372 45.4318C5.35926 46.1458 5.36248 46.8631 5.42333 47.5765L5.41973 47.5512C5.26599 46.7579 4.8439 46.042 4.22475 45.5246C3.30515 44.7671 2.00593 44.4882 1.01385 43.8793C0.908415 43.8115 0.78582 43.7752 0.660525 43.7749C0.535231 43.7746 0.412462 43.8103 0.306698 43.8776C0.200935 43.945 0.116588 44.0413 0.0636065 44.1551C0.0106252 44.269 -0.00878191 44.3956 0.00767564 44.5202C0.0090062 44.529 0.010359 44.5379 0.0117332 44.5467C0.159623 44.6071 0.303618 44.6767 0.44288 44.7551C0.522575 44.8002 0.600586 44.848 0.676914 44.8986C0.772802 44.9629 0.847102 45.0546 0.890078 45.1619C0.933053 45.2692 0.942701 45.3871 0.917757 45.5C0.892813 45.6128 0.83444 45.7156 0.750287 45.7946C0.666134 45.8737 0.560125 45.9254 0.44615 45.943L0.434471 45.9448C0.426063 45.946 0.418859 45.9472 0.410464 45.9485C0.663155 46.5534 1.01781 47.1103 1.45891 47.5946C2.00381 48.1809 2.66239 48.6494 3.39428 48.9714C4.12617 49.2934 4.91594 49.4621 5.71517 49.4671H5.71637C5.93333 50.4125 6.24767 51.3326 6.65434 52.2127H10.0051C10.0171 52.1754 10.0279 52.1369 10.0387 52.0995C9.72854 52.1191 9.41717 52.1005 9.11152 52.0442C9.36013 51.7383 9.60873 51.43 9.85733 51.1241C9.86288 51.1184 9.86809 51.1124 9.87295 51.1061C9.99905 50.9495 10.1264 50.7942 10.2525 50.6376L10.2525 50.6374C10.2592 50.1576 10.2042 49.6788 10.089 49.213Z" fill="#F2F2F2"/>
<path d="M51.3561 52.2581C51.3562 52.2764 51.3526 52.2946 51.3456 52.3115C51.3387 52.3284 51.3284 52.3438 51.3155 52.3568C51.3026 52.3697 51.2873 52.38 51.2704 52.387C51.2535 52.394 51.2354 52.3975 51.2171 52.3975H0.14886C0.112003 52.3975 0.0766539 52.3828 0.0505916 52.3567C0.0245292 52.3305 0.0098877 52.2951 0.0098877 52.2581C0.0098877 52.2212 0.0245292 52.1857 0.0505916 52.1596C0.0766539 52.1335 0.112003 52.1188 0.14886 52.1188H51.2171C51.2354 52.1187 51.2535 52.1223 51.2704 52.1293C51.2873 52.1363 51.3026 52.1465 51.3155 52.1595C51.3284 52.1724 51.3387 52.1878 51.3456 52.2047C51.3526 52.2217 51.3562 52.2398 51.3561 52.2581Z" fill="#CCCCCC"/>
<path d="M24.1002 33.8775C24.219 33.9173 24.3277 33.9828 24.4186 34.0693C24.5095 34.1558 24.5804 34.2613 24.6262 34.3782C24.672 34.4952 24.6918 34.6208 24.684 34.7462C24.6762 34.8716 24.641 34.9938 24.581 35.1041L25.8103 36.6334L25.0657 37.6092L23.3599 35.425C23.1817 35.3117 23.0512 35.1368 22.9931 34.9334C22.935 34.73 22.9532 34.5123 23.0445 34.3216C23.1357 34.1308 23.2936 33.9802 23.4882 33.8984C23.6827 33.8165 23.9005 33.8091 24.1002 33.8775Z" fill="#A0616A"/>
<path d="M24.6498 38.0429L23.9555 36.311L25.2399 35.3965L25.8403 36.4753L26.7169 37.0749L27.8814 38.1118C28.197 37.8519 30.619 35.9057 31.3938 36.7331C31.488 36.826 31.561 36.9383 31.6078 37.0621C31.6546 37.186 31.6741 37.3186 31.665 37.4508C31.6166 38.0806 30.9504 38.6093 30.9253 38.6288L29.4548 40.0132C29.4 40.107 28.8221 41.0713 28.1616 41.2391C28.0674 41.265 27.9689 41.271 27.8723 41.2567C27.7757 41.2425 27.6831 41.2082 27.6003 41.1562C26.0972 40.2307 25.1362 39.32 24.7832 38.4935C24.7203 38.3494 24.6756 38.1981 24.6498 38.0429Z" fill="#FBBC05"/>
<path d="M23.922 60.7087L22.7911 60.7617L22.0491 56.4131L23.7183 56.3349L23.922 60.7087Z" fill="#A0616A"/>
<path d="M24.5284 62.8381L23.7259 62.8757L23.5472 62.1228L23.2158 62.8997L21.0874 62.9995C20.9854 63.0042 20.8845 62.9762 20.7995 62.9194C20.7145 62.8627 20.6498 62.7802 20.6149 62.6839C20.58 62.5877 20.5767 62.4828 20.6054 62.3845C20.6342 62.2862 20.6935 62.1998 20.7748 62.1377L22.4195 60.881L22.3837 60.113L24.1764 60.1362L24.5284 62.8381Z" fill="white"/>
<path d="M12.1145 51.3717L11.7025 50.3144L15.574 48.2178L17.5297 49.4503L12.1145 51.3717Z" fill="#A0616A"/>
<path d="M10.2966 52.6292L10.0042 51.8789L10.6585 51.4682L9.8184 51.402L9.04296 49.4121C9.00578 49.3167 8.99999 49.2119 9.02642 49.113C9.05285 49.0141 9.11013 48.9262 9.18988 48.8622C9.26964 48.7983 9.3677 48.7615 9.46975 48.7574C9.5718 48.7533 9.67249 48.782 9.75713 48.8393L11.4709 49.9995L12.1851 49.7197L12.737 51.4302L10.2966 52.6292Z" fill="white"/>
<path d="M34.3551 48.2248C34.3551 48.2248 33.8854 51.2313 31.6652 51.454C29.445 51.6766 27.3984 50.6736 27.3984 50.6736L21.1817 48.7539C21.1817 48.7539 14.5694 50.6377 13.4593 50.9345C13.4593 50.9345 12.6936 49.1918 12.7192 49.0793C12.9553 48.0436 13.2629 48.7442 13.2629 48.7442L20.2936 45.6275C20.2936 45.6275 21.4037 45.3307 23.328 46.147C25.2522 46.9633 30.4071 48.9309 30.4071 48.9309L34.3551 48.2248Z" fill="white"/>
<path d="M34.3295 48.0404C34.3295 48.0404 34.6997 51.6422 32.537 52.1924C30.4811 52.7155 27.6452 52.1789 27.6452 52.1789L24.2644 51.825C24.2644 51.825 24.1164 56.1806 24.1164 58.3326C23.4295 58.4262 22.7373 58.4758 22.0442 58.481C21.8961 58.481 21.8863 58.4033 21.8863 58.4033L21.5997 50.8754C21.5796 50.5481 21.628 50.2202 21.7419 49.9128C21.8558 49.6055 22.0326 49.3254 22.2609 49.0906C22.4892 48.8559 22.764 48.6716 23.0677 48.5498C23.3713 48.428 23.697 48.3712 24.0238 48.3832C24.1834 48.3893 24.3508 48.4006 24.526 48.4172C26.6058 48.6172 29.1878 48.1921 29.1878 48.1921L34.3295 48.0404Z" fill="white"/>
<path d="M28.3305 42.8154C28.3305 42.8154 27.4525 48.1393 28.0459 48.5643C28.6392 48.9893 29.4529 48.9909 29.4529 48.9909L29.6422 46.0514L28.3305 42.8154Z" fill="#FBBC05"/>
<path d="M29.7949 36.2769L28.621 37.3955C28.0753 37.9154 27.7136 38.5995 27.5908 39.3441C27.4679 40.0887 27.5905 40.8532 27.9401 41.5216L28.5013 42.5947L29.7949 36.2769Z" fill="#FBBC05"/>
<path d="M30.0574 36.465L28.4667 38.2817C28.1176 38.6805 27.9013 39.1785 27.8479 39.7063C27.8236 39.946 27.8334 40.188 27.8768 40.4249L28.4763 43.6926L28.9269 48.4115C28.9269 48.4115 32.4055 49.4683 32.7616 47.8364C33.1176 46.2045 30.0574 36.465 30.0574 36.465Z" fill="#1153FC"/>
<path d="M29.1505 46.8674L28.6419 45.6944L28.2103 42.6366C28.1868 42.4587 28.6698 39.5474 29.3691 36.4239L30.219 35.2309L30.7092 34.7803L32.1057 35.6982C32.6094 35.9654 33.7109 39.4528 33.0329 41.9207C32.7997 42.7696 33.2074 43.8265 33.2702 44.6066L34.2381 46.9912L34.4673 48.3703L34.4323 48.3837C34.3974 48.397 33.8373 48.4729 31.5506 48.855C29.6559 49.1716 30.6934 47.6138 29.1505 46.8674Z" fill="#FBBC05"/>
<path d="M24.6744 45.586C24.7439 45.4814 24.8354 45.3934 24.9425 45.3281C25.0496 45.2629 25.1697 45.222 25.2942 45.2083C25.4188 45.1945 25.5449 45.2084 25.6635 45.2488C25.7822 45.2892 25.8906 45.3553 25.981 45.4422L27.7751 44.6536L28.519 45.6299L25.9698 46.708C25.814 46.8506 25.6114 46.9311 25.4005 46.934C25.1895 46.937 24.9848 46.8622 24.8251 46.7239C24.6654 46.5856 24.5619 46.3934 24.5341 46.1837C24.5063 45.9739 24.5562 45.7613 24.6744 45.586Z" fill="#A0616A"/>
<path d="M28.8274 46.146L26.9786 46.3639L26.4351 44.8813L27.6308 44.5832L28.4376 43.8921L29.7408 43.0371C29.5734 42.6635 28.3352 39.8098 29.3346 39.2769C29.4487 39.2102 29.5759 39.169 29.7074 39.1562C29.8389 39.1433 29.9716 39.1592 30.0964 39.2027C30.6899 39.4146 31.0241 40.1978 31.0363 40.2273L31.9833 42.013C32.0591 42.0906 32.8358 42.9026 32.8241 43.5857C32.8244 43.6836 32.8043 43.7805 32.7653 43.8703C32.7262 43.96 32.669 44.0406 32.5972 44.1071C31.3125 45.319 30.1841 46.0102 29.2961 46.1351C29.1409 46.1581 28.9835 46.1618 28.8274 46.146Z" fill="#FBBC05"/>
<path d="M30.0287 34.6302C31.2507 34.4834 32.1199 33.3489 31.9703 32.0963C31.8206 30.8437 30.7086 29.9473 29.4867 30.0941C28.2647 30.2409 27.3954 31.3754 27.5451 32.628C27.6947 33.8805 28.8067 34.777 30.0287 34.6302Z" fill="#A0616A"/>
<path d="M35.5608 30.6672C35.1322 30.2726 34.8837 29.7106 34.5233 29.2474C34.163 28.7841 33.5864 28.4 33.0475 28.5826C32.6761 28.7085 32.4219 29.081 32.3177 29.4748C32.2136 29.8686 32.2352 30.2864 32.2576 30.6956C32.1671 29.86 31.5221 29.1169 30.735 28.9414C30.3362 28.8629 29.9229 28.9133 29.5545 29.0854C29.1861 29.2575 28.8817 29.5423 28.685 29.8989C28.4549 29.7313 28.1715 29.6542 27.8885 29.6822C27.6054 29.7101 27.3425 29.8413 27.1494 30.0507C26.9651 30.2784 26.8632 30.5619 26.8603 30.8551C26.8573 31.1483 26.9535 31.4339 27.1331 31.6652C27.3181 31.8825 27.5758 32.0246 27.8579 32.0648C28.1399 32.1051 28.4269 32.0407 28.665 31.8838L28.8597 32.0245C28.835 32.2029 28.8735 32.3843 28.9686 32.5371C29.0638 32.6899 29.2094 32.8043 29.3802 32.8603C29.6538 32.9346 30.0201 32.8728 30.1506 33.1357C30.2418 33.3194 30.1387 33.5395 30.0206 33.7033C29.9026 33.867 29.7597 34.0386 29.7677 34.2446C29.7799 34.5555 30.123 34.733 30.4192 34.7633C30.7813 34.7917 31.1436 34.7112 31.4597 34.5319C31.7759 34.3527 32.0315 34.0829 32.1938 33.7572C32.2002 33.7444 32.2071 33.7315 32.2148 33.7185C32.4052 33.4031 32.5295 33.052 32.5801 32.6868C32.6307 32.3216 32.6065 31.9499 32.509 31.5944C32.4694 31.4549 32.4795 31.3463 32.5733 31.3009C32.9786 31.1045 34.1996 31.2678 34.591 31.5009C34.9825 31.7341 35.3132 32.0651 35.6936 32.3176C36.0741 32.5702 36.5412 32.7441 36.97 32.6114C37.1414 32.5478 37.2984 32.4504 37.4316 32.325C37.5648 32.1996 37.6716 32.0487 37.7457 31.8811C37.8971 31.5393 37.9973 31.177 38.0434 30.8059C37.6752 31.0685 37.229 31.1979 36.7779 31.1727C36.3268 31.1475 35.8976 30.9693 35.5608 30.6672Z" fill="#E1BF8F"/>
<path d="M35.8981 45.5341L35.8967 45.5322L35.8981 45.536V45.5341Z" fill="white"/>
<path d="M21.4019 34.8657C20.443 35.0131 19.4621 34.8721 18.5831 34.4606C17.7041 34.049 16.9666 33.3853 16.4638 32.5535C15.961 31.7216 15.7155 30.7589 15.7583 29.7872C15.8011 28.8154 16.1304 27.8782 16.7045 27.0941C17.2785 26.31 18.0716 25.7141 18.9834 25.382C19.8951 25.0498 20.8847 24.9961 21.8268 25.2279C22.769 25.4596 23.6215 25.9662 24.2765 26.6837C24.9315 27.4013 25.3596 28.2974 25.5066 29.2589C25.6043 29.8973 25.5756 30.5487 25.4221 31.176C25.2687 31.8032 24.9935 32.394 24.6124 32.9147C24.2312 33.4353 23.7515 33.8756 23.2007 34.2103C22.6498 34.5451 22.0386 34.7678 21.4019 34.8657ZM19.9503 25.3746C19.0371 25.515 18.1859 25.9238 17.5044 26.5493C16.8229 27.1748 16.3416 27.9889 16.1216 28.8886C15.9015 29.7883 15.9524 30.7333 16.2679 31.604C16.5834 32.4747 17.1494 33.232 17.8942 33.7802C18.6389 34.3284 19.5291 34.6428 20.4521 34.6837C21.3751 34.7247 22.2895 34.4902 23.0796 34.0101C23.8697 33.5299 24.5001 32.8256 24.891 31.9862C25.2819 31.1468 25.4158 30.2101 25.2758 29.2944C25.1828 28.6864 24.9713 28.1027 24.6533 27.5767C24.3354 27.0507 23.9172 26.5926 23.4227 26.2286C22.9282 25.8646 22.367 25.6018 21.7712 25.4553C21.1754 25.3088 20.5567 25.2814 19.9503 25.3746Z" fill="#3F3D56"/>
<path d="M38.6359 16.2226C37.677 16.3701 36.696 16.2291 35.817 15.8175C34.9381 15.406 34.2005 14.7423 33.6977 13.9104C33.1949 13.0786 32.9494 12.1159 32.9923 11.1441C33.0351 10.1724 33.3644 9.23518 33.9384 8.45106C34.5125 7.66693 35.3055 7.0711 36.2173 6.73892C37.1291 6.40673 38.1186 6.3531 39.0608 6.58482C40.003 6.81654 40.8555 7.32319 41.5105 8.04071C42.1655 8.75822 42.5936 9.65438 42.7406 10.6158C42.8382 11.2542 42.8095 11.9057 42.6561 12.5329C42.5026 13.1602 42.2275 13.751 41.8463 14.2716C41.4652 14.7923 40.9855 15.2325 40.4346 15.5673C39.8838 15.9021 39.2726 16.1247 38.6359 16.2226ZM37.1843 6.73156C36.2711 6.87198 35.4199 7.28079 34.7384 7.90628C34.0568 8.53176 33.5756 9.34584 33.3555 10.2456C33.1354 11.1453 33.1864 12.0902 33.5019 12.9609C33.8174 13.8316 34.3833 14.589 35.1281 15.1372C35.8729 15.6853 36.7631 15.9998 37.6861 16.0407C38.6091 16.0816 39.5234 15.8472 40.3136 15.367C41.1037 14.8869 41.7341 14.1826 42.125 13.3432C42.5159 12.5038 42.6498 11.567 42.5097 10.6513C42.3219 9.42345 41.6554 8.32065 40.6566 7.58555C39.6579 6.85044 38.4089 6.54325 37.1843 6.73156Z" fill="#3F3D56"/>
<path d="M58.5119 27.3647C57.553 27.5121 56.5721 27.3711 55.6931 26.9596C54.8141 26.548 54.0766 25.8843 53.5738 25.0525C53.071 24.2206 52.8255 23.2579 52.8683 22.2862C52.9111 21.3144 53.2404 20.3772 53.8145 19.5931C54.3885 18.809 55.1816 18.2131 56.0934 17.8809C57.0051 17.5488 57.9947 17.4951 58.9369 17.7268C59.879 17.9586 60.7315 18.4652 61.3865 19.1827C62.0415 19.9003 62.4696 20.7964 62.6166 21.7579C62.7143 22.3963 62.6856 23.0477 62.5321 23.675C62.3787 24.3022 62.1035 24.893 61.7224 25.4137C61.3412 25.9343 60.8615 26.3746 60.3107 26.7093C59.7598 27.0441 59.1486 27.2668 58.5119 27.3647ZM57.0603 17.8736C56.1471 18.014 55.2959 18.4228 54.6144 19.0483C53.9329 19.6738 53.4517 20.4879 53.2316 21.3876C53.0115 22.2873 53.0624 23.2323 53.3779 24.103C53.6934 24.9737 54.2594 25.731 55.0042 26.2792C55.7489 26.8274 56.6391 27.1418 57.5621 27.1827C58.4851 27.2236 59.3995 26.9892 60.1896 26.509C60.9797 26.0289 61.6101 25.3246 62.001 24.4852C62.3919 23.6458 62.5258 22.7091 62.3858 21.7934C62.198 20.5655 61.5314 19.4627 60.5327 18.7276C59.534 17.9925 58.2849 17.6853 57.0603 17.8736Z" fill="#3F3D56"/>
<path d="M82.0745 9.7801C81.1156 9.92755 80.1346 9.78657 79.2556 9.375C78.3767 8.96344 77.6391 8.29976 77.1363 7.4679C76.6335 6.63604 76.388 5.67337 76.4309 4.7016C76.4737 3.72984 76.803 2.79264 77.377 2.00852C77.9511 1.2244 78.7441 0.628569 79.6559 0.296382C80.5677 -0.0358048 81.5572 -0.0894307 82.4994 0.142286C83.4416 0.374002 84.2941 0.880653 84.9491 1.59817C85.6041 2.31569 86.0322 3.21184 86.1792 4.17331C86.2768 4.81171 86.2481 5.46313 86.0947 6.09039C85.9412 6.71766 85.6661 7.30848 85.2849 7.82911C84.9038 8.34975 84.4241 8.79002 83.8732 9.12477C83.3224 9.45952 82.7112 9.6822 82.0745 9.7801ZM80.6229 0.289024C79.7097 0.429449 78.8585 0.838254 78.177 1.46374C77.4954 2.08923 77.0142 2.90331 76.7941 3.80303C76.574 4.70275 76.625 5.64771 76.9405 6.5184C77.256 7.3891 77.8219 8.14643 78.5667 8.69462C79.3115 9.24282 80.2017 9.55725 81.1247 9.59817C82.0477 9.63908 82.962 9.40463 83.7522 8.92448C84.5423 8.44433 85.1727 7.74003 85.5636 6.90065C85.9545 6.06126 86.0884 5.1245 85.9483 4.20881C85.7605 2.98092 85.094 1.87811 84.0952 1.14301C83.0965 0.407907 81.8475 0.10072 80.6229 0.289024Z" fill="#3F3D56"/>
<path d="M104.41 18.3108C103.451 18.4582 102.47 18.3173 101.591 17.9057C100.712 17.4941 99.9743 16.8305 99.4715 15.9986C98.9687 15.1667 98.7232 14.2041 98.766 13.2323C98.8089 12.2605 99.1382 11.3233 99.7122 10.5392C100.286 9.75509 101.079 9.15927 101.991 8.82708C102.903 8.4949 103.892 8.44127 104.835 8.67299C105.777 8.9047 106.629 9.41136 107.284 10.1289C107.939 10.8464 108.367 11.7425 108.514 12.704C108.712 13.9933 108.39 15.3083 107.62 16.3598C106.85 17.4113 105.696 18.1131 104.41 18.3108ZM102.958 8.81972C102.045 8.96015 101.194 9.36895 100.512 9.99444C99.8306 10.6199 99.3494 11.434 99.1293 12.3337C98.9092 13.2334 98.9602 14.1784 99.2757 15.0491C99.5912 15.9198 100.157 16.6771 100.902 17.2253C101.647 17.7735 102.537 18.088 103.46 18.1289C104.383 18.1698 105.297 17.9353 106.087 17.4552C106.877 16.975 107.508 16.2707 107.899 15.4313C108.29 14.592 108.424 13.6552 108.284 12.7395C108.096 11.5116 107.429 10.4088 106.43 9.67371C105.432 8.93861 104.183 8.63142 102.958 8.81972Z" fill="#3F3D56"/>
<path d="M40.4592 9.60402L41.0186 9.39952C41.0186 9.39952 40.617 10.0181 40.53 10.067C40.539 10.1839 40.5568 10.3 40.5831 10.4142C40.2043 15.3533 35.7957 13.8751 35.7957 13.8751C37.2901 13.6809 37.3233 13.0479 37.3233 13.0479C36.4381 13.0537 36.1782 12.5132 36.1782 12.5132C36.2621 12.5423 36.3538 12.5394 36.4358 12.5049C36.5177 12.4705 36.5841 12.4069 36.6222 12.3264C35.65 12.2271 35.6371 11.2932 35.6371 11.2932C35.8222 11.3883 36.0286 11.434 36.2364 11.4262C36.113 11.3148 35.0746 10.3964 35.5224 9.7708C35.5224 9.7708 36.3459 10.8288 38.0587 10.6721L38.1706 10.6312C38.1382 10.5508 38.1173 10.4663 38.1086 10.3801C38.0593 10.0578 38.1397 9.72902 38.3321 9.46615C38.5246 9.20328 38.8133 9.02783 39.1347 8.9784C39.9428 8.85415 40.1867 9.29051 40.1867 9.29051L40.7108 8.85452C40.6993 8.8563 40.7301 9.4439 40.4592 9.60402Z" fill="#3F3D56"/>
<path d="M58.7211 19.8955C59.0442 19.8468 59.3734 19.9282 59.6368 20.1221C59.9001 20.316 60.0763 20.6065 60.1268 20.9301L60.5006 23.3741C60.5492 23.698 60.4679 24.0281 60.2746 24.2922C60.0812 24.5563 59.7915 24.7329 59.4687 24.7836L57.0313 25.1584C56.7082 25.207 56.3791 25.1256 56.1157 24.9317C55.8523 24.7378 55.6761 24.4473 55.6256 24.1237L55.2518 21.6797C55.2033 21.3558 55.2845 21.0257 55.4779 20.7616C55.6712 20.4975 55.9609 20.3209 56.2837 20.2702L58.7211 19.8955ZM58.6463 19.4067L56.209 19.7815C55.7571 19.8523 55.3515 20.0996 55.0808 20.4693C54.8101 20.8391 54.6964 21.3012 54.7644 21.7547L55.1382 24.1986C55.2088 24.6518 55.4554 25.0585 55.8242 25.3299C56.1929 25.6013 56.6538 25.7153 57.1061 25.6471L59.5434 25.2723C59.9954 25.2015 60.401 24.9542 60.6716 24.5845C60.9423 24.2147 61.0561 23.7526 60.988 23.2991L60.6143 20.8552C60.5436 20.402 60.297 19.9954 59.9282 19.724C59.5595 19.4526 59.0987 19.3385 58.6463 19.4067Z" fill="#3F3D56"/>
<path d="M59.2736 21.0613C59.1769 21.076 59.0784 21.0515 58.9996 20.9934C58.9209 20.9352 58.8684 20.848 58.8537 20.7511C58.839 20.6541 58.8633 20.5553 58.9212 20.4763C58.9791 20.3973 59.066 20.3446 59.1627 20.3297C59.2593 20.3149 59.3579 20.3391 59.4368 20.3971C59.5157 20.4551 59.5683 20.5421 59.5832 20.6391C59.5982 20.736 59.5741 20.8349 59.5163 20.914C59.4586 20.9931 59.3718 21.046 59.2752 21.0611L59.2736 21.0613Z" fill="#3F3D56"/>
<path d="M57.7267 21.5493C57.9195 21.5196 58.1168 21.548 58.2936 21.6307C58.4703 21.7135 58.6187 21.847 58.7198 22.0143C58.8209 22.1816 58.8703 22.3752 58.8617 22.5706C58.853 22.766 58.7868 22.9545 58.6714 23.1122C58.5559 23.2699 58.3964 23.3897 58.2131 23.4565C58.0297 23.5233 57.8307 23.5341 57.6412 23.4875C57.4517 23.4409 57.2803 23.339 57.1486 23.1947C57.0168 23.0504 56.9308 22.8702 56.9012 22.6768C56.8815 22.5485 56.8873 22.4174 56.9182 22.2913C56.949 22.1652 57.0044 22.0463 57.081 21.9416C57.1577 21.8369 57.2542 21.7484 57.3649 21.6811C57.4757 21.6137 57.5986 21.569 57.7267 21.5493ZM57.6519 21.0605C57.3627 21.105 57.0931 21.2345 56.8772 21.4326C56.6614 21.6307 56.5089 21.8885 56.4392 22.1735C56.3695 22.4585 56.3857 22.7578 56.4856 23.0336C56.5855 23.3093 56.7648 23.5492 57.0007 23.7228C57.2366 23.8965 57.5185 23.9961 57.8109 24.009C58.1032 24.022 58.3928 23.9477 58.6431 23.7956C58.8933 23.6436 59.093 23.4205 59.2168 23.1546C59.3406 22.8888 59.383 22.5921 59.3387 22.302C59.2792 21.9131 59.0681 21.5638 58.7517 21.331C58.4354 21.0982 58.0398 21.0009 57.6519 21.0605Z" fill="#3F3D56"/>
<path d="M103.354 10.275C102.624 10.3873 101.955 10.7481 101.459 11.2968C100.963 11.8454 100.67 12.5485 100.63 13.288C100.59 14.0274 100.805 14.7582 101.239 15.3575C101.673 15.9569 102.299 16.3882 103.013 16.5792C102.962 16.3361 102.943 16.0873 102.956 15.8392C102.978 15.5709 103.099 14.0388 103.099 14.0388C103.005 13.8907 102.944 13.7243 102.92 13.5507C102.848 13.0782 103.066 12.6834 103.407 12.631C103.696 12.5865 103.869 12.7828 103.909 13.0433C103.953 13.335 103.834 13.7991 103.801 14.2179C103.793 14.2956 103.804 14.3741 103.832 14.4469C103.861 14.5197 103.906 14.5848 103.964 14.637C104.022 14.6892 104.091 14.727 104.166 14.7473C104.242 14.7676 104.32 14.7699 104.397 14.754C104.999 14.6614 105.286 13.8234 105.145 12.9041C105.038 12.2053 104.489 11.7553 103.636 11.8864C102.672 12.0346 102.181 12.8487 102.304 13.6542C102.329 13.8828 102.438 14.0938 102.609 14.2466C102.638 14.2637 102.66 14.2895 102.673 14.3202C102.687 14.3509 102.69 14.385 102.682 14.4175C102.675 14.4783 102.663 14.6244 102.656 14.6837C102.656 14.7014 102.652 14.7187 102.643 14.7344C102.635 14.75 102.624 14.7635 102.609 14.7736C102.595 14.7838 102.578 14.7904 102.561 14.7929C102.543 14.7954 102.526 14.7937 102.509 14.7879C102.037 14.674 101.755 14.2192 101.671 13.6698C101.533 12.7647 102.129 11.5617 103.639 11.3295C104.853 11.1429 105.786 11.9009 105.931 12.8459C106.122 14.0968 105.571 15.1371 104.549 15.2942C104.206 15.347 103.855 15.2102 103.712 15.0166C103.712 15.0166 103.64 15.7793 103.622 15.9277C103.585 16.1808 103.513 16.4274 103.407 16.6599C103.864 16.7222 104.329 16.6851 104.771 16.5513C105.212 16.4175 105.62 16.1901 105.966 15.8844C106.312 15.5787 106.589 15.202 106.777 14.7797C106.965 14.3574 107.061 13.8995 107.057 13.437C107.053 12.9745 106.95 12.5182 106.755 12.0991C106.56 11.68 106.277 11.3079 105.926 11.008C105.575 10.7081 105.163 10.4874 104.72 10.361C104.276 10.2345 103.81 10.2052 103.354 10.275Z" fill="#3F3D56"/>
<path d="M83.8522 2.57245L79.5701 1.93979C79.46 1.91801 79.3458 1.94097 79.2526 2.00361C79.1595 2.06626 79.0949 2.16346 79.0732 2.27383L79.0728 2.27568L78.4405 6.57886C78.4264 6.69507 78.4573 6.81225 78.5268 6.90631C78.5963 7.00036 78.6991 7.06413 78.8141 7.08449L83.0949 7.71697C83.2082 7.72919 83.3218 7.69615 83.4109 7.62501C83.5001 7.55387 83.5577 7.45037 83.5713 7.33692L84.2037 3.03375C84.2208 2.92942 84.1959 2.82254 84.1344 2.73663C84.073 2.65071 83.98 2.5928 83.8759 2.57563C83.8681 2.57434 83.8602 2.57328 83.8522 2.57245ZM80.092 6.39836L79.3569 6.28976L79.6937 3.99818L80.4287 4.10678L80.092 6.39836ZM80.1378 3.70783L80.1326 3.70705C80.0269 3.69074 79.932 3.63311 79.8686 3.54677C79.8053 3.46044 79.7787 3.35244 79.7946 3.24646C79.8105 3.14047 79.8677 3.04513 79.9536 2.98132C80.0395 2.91752 80.1471 2.89046 80.2528 2.90606C80.3586 2.92167 80.4539 2.97868 80.5178 3.06459C80.5817 3.15051 80.609 3.25832 80.5938 3.36441C80.5786 3.47051 80.522 3.56622 80.4366 3.63059C80.3511 3.69496 80.2437 3.72274 80.1378 3.70783ZM82.7783 6.79527L82.0433 6.68667L82.2274 5.43368C82.2716 5.13349 82.1947 4.91259 81.9288 4.8733C81.8455 4.86167 81.7607 4.87624 81.686 4.91499C81.6113 4.95374 81.5505 5.01477 81.5119 5.08966C81.4838 5.145 81.4661 5.2051 81.4599 5.26689L81.268 6.57213L80.533 6.46353L80.8698 4.17195L81.6048 4.28055L81.5579 4.59946C81.6419 4.49327 81.7529 4.41173 81.8792 4.36341C82.0055 4.31509 82.1424 4.30178 82.2756 4.32486C82.7581 4.39615 83.0762 4.76898 82.9752 5.45651L82.7783 6.79527Z" fill="#3F3D56"/>
<path fill-rule="evenodd" clip-rule="evenodd" d="M23.8307 29.5361C23.7377 28.9289 23.4731 28.361 23.0683 27.8998C22.6635 27.4386 22.1353 27.1034 21.5464 26.9339C20.9574 26.7643 20.3323 26.7675 19.7452 26.9431C19.158 27.1186 18.6332 27.4592 18.2331 27.9245C17.833 28.3898 17.5742 28.9603 17.4873 29.5685C17.4005 30.1767 17.4893 30.7971 17.7432 31.3563C17.9971 31.9154 18.4055 32.3899 18.92 32.7236C19.4345 33.0573 20.0335 33.2362 20.6463 33.2391L20.3067 31.0185L19.5017 31.1423L19.3612 30.2234L20.1661 30.0996L20.059 29.3993C19.9372 28.603 20.3432 28.09 21.067 27.9787C21.3053 27.9455 21.5456 27.9298 21.7861 27.9317L21.9057 28.7139L21.5059 28.7754C21.1124 28.8359 21.0268 29.0997 21.0652 29.3513L21.1564 29.9475L22.0354 29.8123L22.0355 30.7528L21.297 30.8664L21.6366 33.0871C22.3641 32.854 22.9847 32.3684 23.3869 31.7174C23.7891 31.0665 23.9465 30.293 23.8307 29.5361Z" fill="#3F3D56"/>
<path d="M82.9728 50.0534L84.1455 50.3622L85.8916 45.9732L84.1606 45.5175L82.9728 50.0534Z" fill="#FFB6B6"/>
<path d="M82.6102 51.2693L86.2167 52.2189L86.2287 52.1732C86.3264 51.7999 86.2723 51.4029 86.0782 51.0697C85.8841 50.7364 85.5659 50.4941 85.1936 50.396L84.666 49.7214L83.3056 49.8989L82.9908 49.816L82.6102 51.2693Z" fill="white"/>
<path d="M88.9851 50.9332H90.1975L90.7744 46.2434L88.9848 46.2435L88.9851 50.9332Z" fill="#FFB6B6"/>
<path d="M88.9423 52.2015L92.6711 52.2014V52.1541C92.6711 51.7682 92.5182 51.398 92.246 51.1251C91.9738 50.8522 91.6047 50.6989 91.2198 50.6989L90.5386 50.1808L89.2678 50.699L88.9423 50.699L88.9423 52.2015Z" fill="white"/>
<path d="M85.9522 28.4912C85.6593 28.8583 85.8058 30.1065 85.8058 30.1065C85.8058 30.1065 85.2932 34.1449 85.5129 34.5121C85.7326 34.8792 85.3664 35.1729 85.1467 35.6869C84.927 36.2009 84.7074 37.4491 84.7074 37.4491C83.4625 38.477 83.5357 43.1763 83.5357 43.1763L83.0963 47.3615C83.2428 47.8021 85.2932 47.8755 85.5861 47.8021C85.879 47.7287 88.7349 37.3757 88.7349 37.3757C88.7349 37.3757 88.5885 47.3615 88.5885 47.8021C88.5885 48.2426 90.5656 48.0224 91.005 48.0224C91.4444 48.0224 94.227 30.0331 94.227 30.0331V29.0051L93.8609 28.4912C93.8609 28.4912 86.2451 28.124 85.9522 28.4912Z" fill="white"/>
<path d="M89.1743 15.0543C90.428 15.0543 91.4444 14.0352 91.4444 12.7781C91.4444 11.521 90.428 10.5019 89.1743 10.5019C87.9206 10.5019 86.9042 11.521 86.9042 12.7781C86.9042 14.0352 87.9206 15.0543 89.1743 15.0543Z" fill="#FFB6B6"/>
<path d="M86.1244 30.115L86.112 30.0976C85.4507 29.1693 86.4453 26.9386 86.5953 26.6153C86.4172 26.5573 86.2646 26.4392 86.1636 26.2811C86.0625 26.1231 86.0192 25.9347 86.0411 25.7482L86.1058 25.1971L86.1732 24.6565L85.6903 24.1723L85.6889 24.1602L85.4111 21.7221L85.007 20.1028C84.8548 19.4906 84.8678 18.8489 85.0446 18.2434C85.2215 17.6379 85.5558 17.0905 86.0134 16.6574L86.9473 16.5087L88.0824 15.4121H89.9127L90.5403 16.0134C91.7742 17.0275 92.0671 16.5869 93.4584 18.496L92.4622 21.1277L93.0191 25.0092L93.0194 25.7116L93.3094 26.0348C93.4139 26.1512 93.4898 26.2905 93.5311 26.4415C93.5724 26.5925 93.578 26.7512 93.5474 26.9047L93.5092 27.0959C93.6566 27.1593 93.7867 27.2571 93.8886 27.3813C93.9905 27.5055 94.0612 27.6523 94.0948 27.8096L94.1967 28.2861C94.2839 28.4014 94.8591 29.1705 94.8591 29.3807C94.8591 29.4123 94.8358 29.4428 94.786 29.4767C94.394 29.7428 92.2273 30.2854 91.2683 29.9007C90.2469 29.4911 86.1864 30.1055 86.1455 30.1118L86.1244 30.115Z" fill="#3F3D56"/>
<path d="M84.9711 20.8817L86.8586 20.5112C87.5567 21.5564 87.9314 24.4146 87.9314 24.4146L90.0183 28.7541C90.1466 28.8323 90.2519 28.9431 90.3235 29.0753C90.3952 29.2076 90.4306 29.3565 90.4262 29.5069C90.4218 29.6573 90.3777 29.8039 90.2984 29.9317C90.2191 30.0594 90.1075 30.1639 89.9749 30.2343C89.8423 30.3047 89.6934 30.3387 89.5434 30.3326C89.3934 30.3266 89.2478 30.2808 89.1212 30.2C88.9946 30.1191 88.8916 30.0061 88.8228 29.8724C88.754 29.7386 88.7217 29.589 88.7293 29.4387L86.0075 24.2972L84.9711 20.8817Z" fill="#FFB6B6"/>
<path d="M84.9606 21.3307L84.9069 18.5177L85.7951 17.3262C85.9704 17.0929 86.2072 16.9134 86.4788 16.808C86.7504 16.7026 87.0461 16.6755 87.3323 16.7297C87.7197 16.8058 88.0639 17.0266 88.2953 17.3474C88.5266 17.6682 88.6278 18.0652 88.5784 18.458C88.4276 19.6491 88.0853 21.1397 87.3109 21.4769L87.3031 21.4803L88.1057 24.2948L85.1293 24.7117L84.9606 21.3307Z" fill="#3F3D56"/>
<path d="M97.1391 18.9527C97.1391 18.9527 94.3227 18.3738 93.1093 18.6937L92.8417 20.6035L96.2773 20.9092L102.141 19.8405C102.28 19.8957 102.432 19.913 102.58 19.8906C102.728 19.8682 102.868 19.8068 102.985 19.7128C103.102 19.6188 103.192 19.4955 103.246 19.3553C103.299 19.2152 103.316 19.0632 103.292 18.9148C103.268 18.7664 103.206 18.6269 103.111 18.5105C103.017 18.3941 102.893 18.3049 102.753 18.2519C102.613 18.1989 102.461 18.1841 102.313 18.2089C102.165 18.2337 102.027 18.2972 101.911 18.3931L97.1391 18.9527Z" fill="#FFB6B6"/>
<path d="M93.7288 21.0507L90.9398 20.7423L89.8756 19.7058C89.6674 19.5016 89.5203 19.243 89.451 18.9594C89.3816 18.6757 89.3928 18.3783 89.4832 18.1007C89.6083 17.7252 89.871 17.4113 90.218 17.2225C90.5651 17.0338 90.9707 16.9842 91.3528 17.0838C92.5115 17.3869 93.6709 17.1042 93.9049 17.9176L94.3224 17.7806L97.0648 18.3044L97.0944 21.3177L93.7288 21.0507Z" fill="#3F3D56"/>
<path d="M86.5994 11.2825C86.8543 10.8871 87.3326 10.6236 87.7964 10.6976C87.8395 10.4009 87.963 10.1217 88.1535 9.89047C88.3439 9.65925 88.594 9.48486 88.8764 9.38627C89.1589 9.28768 89.4629 9.26869 89.7554 9.33134C90.0478 9.394 90.3175 9.53592 90.5351 9.74164C90.6067 9.69112 90.6901 9.65998 90.7771 9.65124C90.8642 9.6425 90.9521 9.65646 91.0322 9.69175C91.1918 9.76452 91.3307 9.87627 91.436 10.0168C91.7021 10.3495 91.8733 10.7483 91.9312 11.1709C91.9892 11.5934 91.9318 12.0237 91.7652 12.4161C91.8218 12.2095 91.6154 12.0152 91.4067 11.9688C91.1981 11.9225 90.9793 11.9663 90.7678 11.9362C90.4966 11.8975 90.2529 11.7398 89.9813 11.7043C89.751 11.6892 89.52 11.719 89.301 11.7919C89.082 11.8648 88.8514 11.8959 88.621 11.8835C88.3924 11.8563 88.098 12.7248 88.1019 13.3365C88.1027 13.4525 88.0789 13.6013 87.9659 13.6259C87.8267 13.6562 87.7461 13.4636 87.6137 13.4112C87.5526 13.3936 87.4872 13.4005 87.4311 13.4304C87.3751 13.4603 87.3328 13.5109 87.3131 13.5714C87.2965 13.633 87.2947 13.6976 87.3079 13.76C87.3212 13.8224 87.3491 13.8807 87.3894 13.9301C87.4708 14.028 87.5675 14.112 87.6756 14.179L87.6211 14.2245C87.5693 14.2794 87.5001 14.3144 87.4253 14.3238C87.3506 14.3331 87.2749 14.316 87.2113 14.2755C87.0863 14.1906 86.985 14.075 86.9172 13.9397C86.6616 13.5433 86.4788 13.1043 86.3776 12.6433C86.2778 12.1779 86.357 11.6918 86.5994 11.2825Z" fill="#B56262"/>
<path d="M105.645 50.35L104.744 48.8992L104.564 49.7282C104.533 49.8734 104.501 50.021 104.472 50.1673C104.216 49.9484 103.944 49.7458 103.678 49.5514C102.86 48.9565 102.043 48.3609 101.227 47.7645L101.482 49.2516C101.64 50.1673 101.805 51.1018 102.195 51.939C102.238 52.0339 102.285 52.1276 102.335 52.2189H106.135C106.166 52.1341 106.187 52.0461 106.198 51.9566C106.199 51.9508 106.199 51.9449 106.199 51.939C106.259 51.3711 105.946 50.836 105.645 50.35Z" fill="#F0F0F0"/>
<path d="M108.861 52.3615L76.6579 52.3975C76.6396 52.3975 76.6215 52.394 76.6046 52.387C76.5876 52.38 76.5723 52.3697 76.5593 52.3568C76.5463 52.3438 76.5361 52.3284 76.5291 52.3115C76.522 52.2946 76.5184 52.2764 76.5184 52.2581C76.5184 52.2397 76.522 52.2215 76.5291 52.2046C76.5361 52.1877 76.5463 52.1723 76.5593 52.1593C76.5723 52.1464 76.5876 52.1361 76.6046 52.1291C76.6215 52.1221 76.6396 52.1186 76.6579 52.1186L108.861 52.0826C108.898 52.0826 108.933 52.0973 108.959 52.1235C108.985 52.1496 109 52.1851 109 52.2221C109 52.259 108.985 52.2945 108.959 52.3207C108.933 52.3468 108.898 52.3615 108.861 52.3615Z" fill="#CACACA"/>
</g>
<defs>
<clipPath id="clip0_10_320">
<rect width="109" height="63" fill="white"/>
</clipPath>
</defs>
</svg>
