<svg width="96" height="64" viewBox="0 0 96 64" fill="none" xmlns="http://www.w3.org/2000/svg">
<g clip-path="url(#clip0_10_286)">
<path d="M88.8941 63.932L88.9993 63.7354C87.589 62.9646 85.8338 62.0053 84.917 60.4311C84.0133 58.8792 83.993 56.7719 84.8641 54.9315C85.6054 53.3652 86.9671 51.9619 88.802 50.8733C89.164 50.6586 89.5439 50.4551 89.9114 50.2583C90.7995 49.7826 91.7179 49.2907 92.4751 48.5928C93.5181 47.6316 94.3072 46.0186 93.7191 44.5818C93.5256 44.1232 93.2088 43.7286 92.8047 43.4428C92.4005 43.157 91.9251 42.9915 91.4325 42.965L91.42 43.1882C91.8713 43.2124 92.3068 43.3639 92.6772 43.6256C93.0475 43.8873 93.3379 44.2487 93.5153 44.6687C94.0619 46.0039 93.312 47.519 92.3261 48.4277C91.5896 49.1065 90.6837 49.5916 89.8078 50.0608C89.4383 50.2587 89.0561 50.4634 88.6901 50.6806C86.817 51.7918 85.425 53.2284 84.6646 54.835C83.7622 56.7416 83.7859 58.9294 84.7264 60.5445C85.6744 62.1723 87.4596 63.148 88.8941 63.932Z" fill="#F1F1F1"/>
<path d="M90.0308 44.143C91.0996 44.143 91.966 43.7177 91.966 43.1931C91.966 42.6685 91.0996 42.2432 90.0308 42.2432C88.962 42.2432 88.0956 42.6685 88.0956 43.1931C88.0956 43.7177 88.962 44.143 90.0308 44.143Z" fill="#F1F1F1"/>
<path d="M88.4827 50.4013C89.5514 50.4013 90.4178 49.976 90.4178 49.4514C90.4178 48.9268 89.5514 48.5015 88.4827 48.5015C87.4139 48.5015 86.5475 48.9268 86.5475 49.4514C86.5475 49.976 87.4139 50.4013 88.4827 50.4013Z" fill="#F1F1F1"/>
<path d="M92.0213 51.4071C93.0901 51.4071 93.9565 50.9818 93.9565 50.4572C93.9565 49.9326 93.0901 49.5073 92.0213 49.5073C90.9525 49.5073 90.0861 49.9326 90.0861 50.4572C90.0861 50.9818 90.9525 51.4071 92.0213 51.4071Z" fill="#F1F1F1"/>
<path d="M86.4922 56.6596C87.5609 56.6596 88.4274 56.2343 88.4274 55.7097C88.4274 55.1851 87.5609 54.7598 86.4922 54.7598C85.4234 54.7598 84.557 55.1851 84.557 55.7097C84.557 56.2343 85.4234 56.6596 86.4922 56.6596Z" fill="#F1F1F1"/>
<path d="M82.6218 56.6596C83.6906 56.6596 84.557 56.2343 84.557 55.7097C84.557 55.1851 83.6906 54.7598 82.6218 54.7598C81.553 54.7598 80.6866 55.1851 80.6866 55.7097C80.6866 56.2343 81.553 56.6596 82.6218 56.6596Z" fill="#F1F1F1"/>
<path d="M65.3256 38.9427C65.4542 38.9284 65.5781 38.8858 65.6886 38.8178C65.7991 38.7499 65.8935 38.6583 65.9652 38.5495C66.0369 38.4406 66.0841 38.3173 66.1035 38.188C66.123 38.0588 66.1141 37.9268 66.0776 37.8014L68.6363 35.9543L67.1114 35.3609L64.9154 37.2059C64.711 37.2819 64.5412 37.431 64.4383 37.625C64.3354 37.819 64.3065 38.0444 64.3571 38.2585C64.4077 38.4726 64.5342 38.6605 64.7127 38.7866C64.8912 38.9127 65.1093 38.9683 65.3256 38.9427Z" fill="#FFB7B7"/>
<path d="M66.7461 37.7262L65.8973 36.2611L65.9153 36.2403L69.3401 32.2999L71.9993 27.7171L74.3083 28.0145L74.3424 28.7199L74.3355 28.7304L70.6669 34.3036L70.663 34.307L66.7461 37.7262Z" fill="#3F3D56"/>
<path d="M66.0312 38.8889L61.4433 41.513L58.0859 35.5178L62.6737 32.8937L66.0312 38.8889Z" fill="#E5E5E5"/>
<path d="M62.5469 35.1755L60.0868 36.5826L60.3261 37.0098L62.7862 35.6027L62.5469 35.1755Z" fill="#BB0002"/>
<path d="M63.169 36.2862L60.7089 37.6933L60.9481 38.1205L63.4082 36.7134L63.169 36.2862Z" fill="#BB0002"/>
<path d="M63.791 37.3969L61.3309 38.804L61.5701 39.2312L64.0302 37.8241L63.791 37.3969Z" fill="#BB0002"/>
<path d="M78.0617 62.5188H76.7559L76.1347 57.4285L78.0619 57.4286L78.0617 62.5188Z" fill="#FFB7B7"/>
<path d="M78.3947 63.798L74.1842 63.7978V63.744C74.1842 63.3048 74.3569 62.8835 74.6642 62.5729C74.9715 62.2623 75.3884 62.0878 75.823 62.0878L78.3948 62.0879L78.3947 63.798Z" fill="#2F2E41"/>
<path d="M66.8232 62.4756L65.5531 62.1691L66.1186 57.0723L67.993 57.5246L66.8232 62.4756Z" fill="#FFB7B7"/>
<path d="M66.8532 63.798L62.7578 62.8097L62.7702 62.7574C62.8711 62.3301 63.1359 61.9609 63.5062 61.7309C63.8765 61.501 64.322 61.4291 64.7448 61.531L67.2462 62.1347L66.8532 63.798Z" fill="#2F2E41"/>
<path d="M71.8982 25.3899V23.1685C71.898 22.7775 71.974 22.3902 72.1219 22.0289C72.2698 21.6675 72.4868 21.3392 72.7603 21.0626C73.0338 20.786 73.3586 20.5665 73.7161 20.4168C74.0735 20.2671 74.4567 20.1901 74.8436 20.1901C75.2306 20.1901 75.6137 20.2671 75.9712 20.4168C76.3287 20.5665 76.6534 20.786 76.927 21.0626C77.2005 21.3392 77.4174 21.6675 77.5653 22.0289C77.7133 22.3902 77.7893 22.7775 77.789 23.1685V25.3899C77.7889 25.4959 77.7472 25.5975 77.673 25.6725C77.5988 25.7475 77.4983 25.7896 77.3934 25.7898H72.2939C72.189 25.7896 72.0884 25.7475 72.0143 25.6725C71.9401 25.5975 71.8984 25.4959 71.8982 25.3899Z" fill="#2F2E41"/>
<path d="M74.1167 25.756C75.3094 25.756 76.2762 24.7789 76.2762 23.5736C76.2762 22.3683 75.3094 21.3913 74.1167 21.3913C72.9241 21.3913 71.9573 22.3683 71.9573 23.5736C71.9573 24.7789 72.9241 25.756 74.1167 25.756Z" fill="#FFB7B7"/>
<path d="M71.2014 23.3462C71.2021 22.722 71.4478 22.1235 71.8846 21.682C72.3214 21.2406 72.9137 20.9923 73.5314 20.9916H73.971C74.5887 20.9923 75.1809 21.2406 75.6177 21.682C76.0545 22.1235 76.3002 22.722 76.3009 23.3462V23.3907H75.3719L75.055 22.494L74.9916 23.3907H74.5115L74.3516 22.9382L74.3197 23.3907H71.2014V23.3462Z" fill="#2F2E41"/>
<path d="M75.3763 35.092L69.878 34.8805L69.5706 31.2452C69.3336 30.5798 69.3298 30.0085 69.5593 29.5472C69.7566 29.1683 70.0882 28.8787 70.4878 28.7362L71.6909 27.2677C71.8457 27.0789 72.0401 26.9272 72.26 26.8236C72.4799 26.72 72.7198 26.6671 72.9624 26.6687L76.0882 26.6903C76.1636 26.6445 76.6206 26.4098 77.522 26.8046C78.4997 27.233 78.2726 28.7206 78.2702 28.7356L78.268 28.7495L78.2572 28.7587L76.1779 30.5283L75.3763 35.092Z" fill="#3F3D56"/>
<path d="M69.9218 34.4898L67.321 39.2819L65.3492 61.0834L67.577 61.771L71.5206 44.7166L76.0972 61.2871L78.7677 61.3547L76.9494 42.2321L75.3604 34.8285L69.9218 34.4898Z" fill="#2F2E41"/>
<path d="M76.8703 42.2478C76.9665 42.1605 77.0427 42.0529 77.0933 41.9326C77.144 41.8123 77.168 41.6823 77.1635 41.5516C77.1591 41.421 77.1264 41.2929 77.0676 41.1764C77.0089 41.0599 76.9256 40.9578 76.8237 40.8774L77.839 37.8698L76.2575 38.2851L75.5358 41.0775C75.4134 41.2596 75.3614 41.4807 75.3896 41.6989C75.4177 41.9172 75.5242 42.1174 75.6886 42.2617C75.8531 42.4059 76.0643 42.4842 76.2821 42.4816C76.4998 42.4791 76.7091 42.3959 76.8703 42.2478Z" fill="#FFB7B7"/>
<path d="M77.3238 40.4227L75.7894 39.7315L76.305 34.485L75.8252 29.1946L77.8736 28.0771L78.3078 28.6304L78.3082 28.643L78.5383 35.3327L78.5371 35.3378L77.3238 40.4227Z" fill="#3F3D56"/>
<path d="M55.0879 24.3808H-1.90735e-06V-7.62939e-06H55.0879L55.0879 24.3808Z" fill="white"/>
<path d="M55.0879 24.3808H-1.90735e-06V-7.62939e-06H55.0879L55.0879 24.3808ZM0.532897 23.8422H54.555V0.538543H0.532897V23.8422Z" fill="#E5E5E5"/>
<path d="M27.5665 19.6289L18.1085 12.4696L8.77979 19.531L8.56625 19.243L18.1085 12.02L27.5214 19.1452L36.8753 8.80029L36.9129 8.78498L46.3483 4.94294L46.4814 5.27675L37.0835 9.10337L27.5665 19.6289Z" fill="#3F3D56"/>
<path d="M8.673 20.4665C9.26293 20.4665 9.74116 19.9832 9.74116 19.387C9.74116 18.7908 9.26293 18.3075 8.673 18.3075C8.08307 18.3075 7.60483 18.7908 7.60483 19.387C7.60483 19.9832 8.08307 20.4665 8.673 20.4665Z" fill="#BB0002"/>
<path d="M18.1085 13.4498C18.6984 13.4498 19.1766 12.9665 19.1766 12.3703C19.1766 11.7741 18.6984 11.2908 18.1085 11.2908C17.5185 11.2908 17.0403 11.7741 17.0403 12.3703C17.0403 12.9665 17.5185 13.4498 18.1085 13.4498Z" fill="#BB0002"/>
<path d="M27.5439 20.4665C28.1339 20.4665 28.6121 19.9832 28.6121 19.387C28.6121 18.7908 28.1339 18.3075 27.5439 18.3075C26.954 18.3075 26.4758 18.7908 26.4758 19.387C26.4758 19.9832 26.954 20.4665 27.5439 20.4665Z" fill="#BB0002"/>
<path d="M36.9794 10.0314C37.5693 10.0314 38.0476 9.54808 38.0476 8.95189C38.0476 8.3557 37.5693 7.87239 36.9794 7.87239C36.3895 7.87239 35.9112 8.3557 35.9112 8.95189C35.9112 9.54808 36.3895 10.0314 36.9794 10.0314Z" fill="#BB0002"/>
<path d="M46.4149 6.07323C47.0048 6.07323 47.483 5.58992 47.483 4.99373C47.483 4.39754 47.0048 3.91423 46.4149 3.91423C45.8249 3.91423 45.3467 4.39754 45.3467 4.99373C45.3467 5.58992 45.8249 6.07323 46.4149 6.07323Z" fill="#BB0002"/>
<path d="M95.8894 64H53.7576C53.7283 64 53.7001 63.9882 53.6794 63.9673C53.6587 63.9463 53.647 63.9179 53.647 63.8882C53.647 63.8586 53.6587 63.8302 53.6794 63.8092C53.7001 63.7883 53.7283 63.7765 53.7576 63.7765H95.8894C95.9187 63.7765 95.9469 63.7883 95.9676 63.8092C95.9883 63.8302 96 63.8586 96 63.8882C96 63.9179 95.9883 63.9463 95.9676 63.9673C95.9469 63.9882 95.9187 64 95.8894 64Z" fill="#CBCBCB"/>
</g>
<defs>
<clipPath id="clip0_10_286">
<rect width="96" height="64" fill="white"/>
</clipPath>
</defs>
</svg>
