<svg width="57" height="68" viewBox="0 0 57 68" fill="none" xmlns="http://www.w3.org/2000/svg">
<g clip-path="url(#clip0_10_203)">
<path d="M52.905 5.75641H7.94324C6.29389 5.75641 4.95271 7.08013 4.95271 8.70801V39.118C4.95271 40.7459 6.29389 42.0696 7.94324 42.0696H52.905C54.5544 42.0696 55.8956 40.7459 55.8956 39.118V8.70801C55.8956 7.08013 54.5544 5.75641 52.905 5.75641Z" fill="#F2F2F2"/>
<path d="M48.0271 8.09877H3.06528C1.41592 8.09877 0.0747375 9.42249 0.0747375 11.0504V41.4603C0.0747375 43.0882 1.41592 44.412 3.06528 44.412H48.0271C49.6764 44.412 51.0176 43.0882 51.0176 41.4603V11.0504C51.0176 9.42249 49.6764 8.09877 48.0271 8.09877ZM50.7031 32.5099C50.7031 38.9118 45.4449 44.1016 38.9586 44.1016H3.06528C1.58732 44.1016 0.3892 42.9191 0.3892 41.4603V11.0504C0.3892 9.59166 1.58731 8.40914 3.06527 8.40914H48.0271C49.505 8.40914 50.7031 9.59166 50.7031 11.0504V32.5099Z" fill="#3F3D56"/>
<path d="M6.49703 37.8217L6.23093 37.6563C6.4039 37.385 6.5824 37.122 6.76128 36.8746L7.01724 37.0549C6.84182 37.2974 6.66685 37.5553 6.49703 37.8217Z" fill="#CCCCCC"/>
<path d="M8.23094 35.6098L8.00584 35.3931C8.48568 34.9078 8.99069 34.4911 9.50676 34.1548L9.68011 34.4138C9.1827 34.7379 8.69511 35.1404 8.23094 35.6098ZM16.0761 33.6508C15.7006 33.6508 15.3585 33.6034 15.1024 33.562L15.1532 33.2557C15.4127 33.2976 15.7252 33.3404 16.0761 33.3404C16.3859 33.3404 16.6905 33.3069 17.0071 33.2377L17.075 33.5408C16.7358 33.6148 16.409 33.6508 16.0761 33.6508ZM11.3707 33.6097L11.2761 33.3138C11.6139 33.2086 11.9639 33.1298 12.3162 33.0794C12.6188 33.0362 12.908 33.0152 13.2005 33.0152H13.2198V33.3256H13.2005C12.9232 33.3256 12.6488 33.3455 12.3613 33.3866C12.0257 33.4345 11.6923 33.5096 11.3707 33.6097ZM18.8661 32.7128L18.6652 32.4741C19.0991 32.1183 19.4101 31.6882 19.7394 31.2327L19.8708 31.0515L20.126 31.2329L19.9954 31.413C19.6539 31.8853 19.3313 32.3314 18.8661 32.7128ZM21.388 29.867L21.1945 29.6223C21.6184 29.2959 22.0973 29.0313 22.6585 28.8136C22.7541 28.7765 22.8454 28.7434 22.9331 28.7139L23.0346 29.0076C22.9512 29.0357 22.8645 29.0672 22.7736 29.1025C22.2409 29.3091 21.7877 29.5592 21.388 29.867ZM25.1843 28.789C25.0785 28.789 24.9782 28.788 24.8818 28.787L24.8855 28.4766C24.984 28.4777 25.0869 28.478 25.1958 28.4786C25.5658 28.4786 26.0812 28.4683 26.7881 28.3875L26.8244 28.6957C26.0941 28.7792 25.5706 28.7879 25.1843 28.789ZM28.7372 28.3826L28.6749 28.0784C29.2397 27.9656 29.8968 27.8315 30.5472 27.6658L30.6259 27.9663C29.968 28.1339 29.306 28.269 28.7372 28.3826ZM32.4782 27.3779L32.3606 27.0901C32.9911 26.8392 33.5386 26.5563 34.0344 26.225L34.2107 26.482C33.6963 26.8257 33.1296 27.1188 32.4782 27.3779ZM35.6555 25.1602L35.4003 24.9788C35.488 24.8586 35.5639 24.7414 35.6372 24.628C35.8537 24.2934 36.0777 23.9474 36.6108 23.5226L36.6482 23.4931L36.843 23.7366L36.8084 23.764C36.315 24.1571 36.1146 24.467 35.9022 24.7951C35.8266 24.912 35.7483 25.033 35.6555 25.1602ZM38.4765 22.8324L38.3618 22.5434C38.9222 22.3266 39.5552 22.1521 40.2432 22.0247L40.3012 22.3298C39.6326 22.4536 39.0187 22.6227 38.4765 22.8324Z" fill="#CCCCCC"/>
<path d="M42.2233 22.1018L42.2037 21.7921C42.5092 21.7732 42.8287 21.7608 43.1532 21.755L43.1589 22.0654C42.839 22.071 42.5242 22.0833 42.2233 22.1018Z" fill="#CCCCCC"/>
<path d="M10.0036 11.4618H5.59167C5.36998 11.4618 5.18916 11.6403 5.18916 11.8591C5.18916 12.0794 5.36998 12.2579 5.59167 12.2579H10.0036C10.2253 12.2579 10.4061 12.0794 10.4061 11.8591C10.4061 11.6403 10.2253 11.4618 10.0036 11.4618Z" fill="#E6E6E6"/>
<path d="M17.3934 11.4618H12.9815C12.7598 11.4618 12.579 11.6403 12.579 11.8591C12.579 12.0794 12.7598 12.2579 12.9815 12.2579H17.3934C17.6151 12.2579 17.796 12.0794 17.796 11.8591C17.796 11.6403 17.6151 11.4618 17.3934 11.4618Z" fill="#E6E6E6"/>
<path d="M24.7833 11.4618H20.3714C20.1497 11.4618 19.9689 11.6403 19.9689 11.8591C19.9689 12.0794 20.1497 12.2579 20.3714 12.2579H24.7833C25.005 12.2579 25.1858 12.0794 25.1858 11.8591C25.1858 11.6403 25.005 11.4618 24.7833 11.4618Z" fill="#E6E6E6"/>
<path d="M45.2787 37.5838H5.18475V37.8942H45.2787V37.5838Z" fill="#E6E6E6"/>
<path d="M43.1608 14.9269C40.307 14.9998 38.1781 15.8285 36.8291 17.3866C36.3307 17.9638 36.1278 18.4185 35.914 18.8996C35.7017 19.3745 35.4847 19.8633 34.98 20.5011V19.9735C35.2929 19.5203 35.4612 19.1417 35.6263 18.7739C35.8495 18.2711 36.0618 17.7962 36.5901 17.1864C37.9989 15.5569 40.2064 14.6926 43.1513 14.6165L43.1608 14.9269Z" fill="#CCCCCC"/>
<path d="M35.914 18.8996C35.7017 19.3745 35.4848 19.8633 34.98 20.5011C34.9203 20.5771 34.8558 20.6563 34.7866 20.7385C32.9659 22.8754 30.5335 23.5769 28.5776 24.1417C28.4549 24.1774 28.3354 24.21 28.2191 24.2411C26.4801 24.7066 25.5273 24.6895 24.8182 24.6787C24.1059 24.6663 23.6358 24.6585 22.7946 25.1334C21.2522 26.0008 20.6201 27.2703 20.0085 28.4978C19.378 29.761 18.7837 30.9543 17.268 31.5146C16.2161 31.9025 15.4771 31.7101 14.6957 31.5083C14.0243 31.333 12.8143 27.0167 11.7429 26.3873C9.53062 26.8451 8.18629 33.9804 6.50863 37.8011L6.21933 37.6769C7.94101 33.7601 9.35923 26.5642 11.6768 26.0831C12.7098 25.8689 14.0699 31.0242 14.7758 31.2073C15.5085 31.3982 16.1988 31.5766 17.1579 31.2228C18.5572 30.7076 19.0981 29.6198 19.7255 28.3612C20.3292 27.1508 21.0132 25.7789 22.6374 24.8633C23.5541 24.3466 24.0871 24.3559 24.8229 24.3683C25.5242 24.3807 26.4707 24.3962 28.2191 23.9198C28.3071 23.895 28.3968 23.8702 28.4895 23.8438C30.4046 23.2913 32.7867 22.6039 34.5445 20.5399C34.7175 20.3366 34.8605 20.1488 34.98 19.9735C35.2929 19.5203 35.4612 19.1417 35.6263 18.7739C35.8495 18.2711 36.1278 18.4185 35.914 18.8996Z" fill="#FBBC05"/>
<path d="M19.1469 54.4028C19.0225 53.975 18.8093 53.6101 18.5556 53.3499L17.6336 49.2018L15.624 49.6877L16.7756 53.8432C16.6999 54.1948 16.7151 54.6145 16.8395 55.0423C17.1239 56.0195 17.8709 56.6685 18.5081 56.4919C19.1453 56.3153 19.4313 55.38 19.1469 54.4028Z" fill="#FFB6B6"/>
<path d="M18.8689 27.1925C18.8689 27.1925 15.6953 27.1284 14.8884 29.4094C14.1539 31.4856 13.2831 37.1897 13.7538 37.5193L15.7574 51.5612L18.6144 51.1737L17.8811 34.3255L18.8689 27.1925Z" fill="#FBBC05"/>
<path d="M33.565 53.2575L33.0021 68H25.5336L25.2317 61.3938L23.9047 68H15.9L16.8985 56.6436L17.9299 54.2553L18.628 52.6367L33.565 53.2575Z" fill="#2F2E41"/>
<path d="M27.5902 24.3931L22.4015 24.0828L20.672 26.2554L16.8985 27.652L18.628 44.2568L17.8418 54.1886C17.8418 54.1886 28.848 62.8789 33.565 53.2575L32.3071 41.6186L32.6216 28.1176L29.0053 26.5657L27.5902 24.3931Z" fill="#FBBC05"/>
<path d="M37.5791 20.6161C37.6354 21.1542 37.5639 21.6601 37.3993 22.0658L38.2636 27.1577L35.7967 27.4927L35.1855 22.2914C34.9404 21.9275 34.7656 21.4467 34.7093 20.9087C34.5807 19.6796 35.1189 18.6177 35.9114 18.5369C36.7038 18.4562 37.4505 19.387 37.5791 20.6161Z" fill="#FFB6B6"/>
<path d="M33.2822 28.7006C32.4318 27.2659 30.3223 27.1307 29.3775 28.5066C29.1192 28.8827 29.1911 29.3055 29.1295 29.8135C28.8677 31.97 33.0546 38.3424 35.9518 39.0762C36.3319 39.1724 36.5485 39.5772 36.9322 39.6586C38.0689 39.8997 39.1273 39.0092 39.0659 37.8633L38.279 23.1661L34.9728 24.2791L35.1844 31.9096L33.2822 28.7006Z" fill="#FBBC05"/>
<path d="M25.5343 23.6812C28.0584 23.6812 30.1047 21.6616 30.1047 19.1703C30.1047 16.6791 28.0584 14.6595 25.5343 14.6595C23.0102 14.6595 20.964 16.6791 20.964 19.1703C20.964 21.6616 23.0102 23.6812 25.5343 23.6812Z" fill="#FFB6B6"/>
<path d="M29.7914 15.858C29.7521 15.8673 30.393 15.2507 30.4203 15.2373C31.0493 14.9269 30.403 17.9607 29.9486 17.8754C28.8307 17.6659 28.348 17.25 27.9141 18.2882C27.793 18.5768 27.7175 18.9027 27.4817 19.1091C27.1578 19.39 26.6201 19.3667 26.3559 19.7019C26.1436 19.9719 26.205 20.3692 26.3622 20.6734C26.5194 20.9791 26.7584 21.2382 26.9015 21.5502C27.0619 21.9009 26.3779 23.0167 26.1169 23.6436V23.6452L26.1154 23.6488C26.046 23.8133 25.8812 23.3396 25.7072 23.2923C25.499 23.2357 25.1923 23.7209 24.8606 23.6327C24.8591 23.6327 24.8575 23.6312 24.8559 23.6312C24.5399 23.5443 24.1877 23.4512 23.8386 23.3581H23.8371C22.8544 23.0943 22.6059 23.4729 22.5588 23.462L21.9487 22.832C21.7394 22.6815 21.763 22.1958 21.6154 22.0654C21.4947 21.9587 21.1937 22.2052 21.105 22.1027C20.67 21.5999 20.5699 21.0969 20.3135 20.1038C20.0792 19.196 19.5934 16.4787 20.5918 16.3561C21.5336 16.2397 20.845 14.9455 21.7931 14.9936C21.7365 14.7577 21.8418 14.5048 22.0132 14.331C22.183 14.1556 22.4094 14.047 22.6374 13.9539C23.7616 13.5007 23.5745 13.1112 24.76 13.375C24.8779 13.2121 26.5902 13.3207 26.804 13.375C26.8197 13.3781 26.2741 13.507 27.1185 13.375C27.087 13.5659 27.6216 13.6497 27.5902 13.8406C27.7081 13.6839 28.9754 14.5839 29.0053 14.7717C29.0446 15.006 28.6861 14.8865 28.9251 14.9222C29.0666 14.944 29.3087 15.2279 29.2851 15.3692C29.3873 15.2326 29.4895 15.0976 29.5933 14.961C29.6122 14.9626 29.6295 14.9657 29.6483 14.9688C30.1263 15.0588 29.5783 16.601 29.598 16.1203C29.6342 15.2373 30.2678 15.754 29.7914 15.858Z" fill="#2F2E41"/>
<path d="M47.3006 39.8668C47.3359 39.9524 47.4574 39.9524 47.4926 39.8668C47.7381 39.2694 48.0876 38.6005 48.4678 38.0892C48.5287 38.0074 48.4448 37.898 48.348 37.9325L47.5331 38.2235V33.2442H47.2602V38.2235L46.445 37.9325C46.3482 37.898 46.2643 38.0073 46.3252 38.0892C46.7054 38.6004 47.055 39.2694 47.3006 39.8668Z" fill="#3F3D56"/>
<path d="M52.645 44.9937C52.6187 45.0824 52.7138 45.157 52.7954 45.1115C53.364 44.7944 54.0593 44.4851 54.6791 44.3181C54.7784 44.2914 54.7816 44.1542 54.6841 44.1219L53.8625 43.8495L57 39.9503L56.7864 39.7828L53.6488 43.6821L53.1938 42.9537C53.1398 42.8673 53.0052 42.9014 53.0013 43.0029C52.9769 43.6366 52.8291 44.3751 52.645 44.9937Z" fill="#3F3D56"/>
<path d="M50.0927 48.3166H44.7906C44.4614 48.3166 44.1936 48.0522 44.1936 47.7273C43.4926 45.705 43.5065 43.7234 44.1936 41.7802C44.1936 41.4553 44.4614 41.191 44.7906 41.191H50.0927C50.4219 41.191 50.6897 41.4553 50.6897 41.7802V47.7273C50.6897 48.0522 50.4219 48.3166 50.0927 48.3166Z" fill="#E6E6E6"/>
<path d="M45.9266 41.3665C45.0678 41.3665 44.3715 42.0537 44.3715 42.9014V47.6012C44.3715 47.8993 44.6164 48.141 44.9185 48.141H47.8505C49.3203 48.141 50.5118 46.965 50.5118 45.5144V41.9064C50.5118 41.6082 50.2669 41.3665 49.9648 41.3665H45.9266Z" fill="white"/>
<path d="M48.6764 43.0948H46.1941C46.1315 43.0948 46.0806 43.0445 46.0806 42.9828C46.0806 42.921 46.1315 42.8708 46.1941 42.8708H48.6764C48.739 42.8708 48.7899 42.921 48.7899 42.9828C48.7899 43.0445 48.739 43.0948 48.6764 43.0948Z" fill="#E6E6E6"/>
<path d="M48.6764 45.4835H46.1941C46.1315 45.4835 46.0806 45.4332 46.0806 45.3714C46.0806 45.3097 46.1315 45.2594 46.1941 45.2594H48.6764C48.739 45.2594 48.7899 45.3097 48.7899 45.3714C48.7899 45.4332 48.739 45.4835 48.6764 45.4835Z" fill="#E6E6E6"/>
<path d="M50.0085 44.2899H44.862C44.7994 44.2899 44.7485 44.2397 44.7485 44.1779C44.7485 44.1161 44.7994 44.0659 44.862 44.0659H50.0085C50.0711 44.0659 50.122 44.1161 50.122 44.1779C50.122 44.2397 50.0711 44.2899 50.0085 44.2899Z" fill="#E6E6E6"/>
<path d="M50.0692 46.4547H47.9217C47.8592 46.4547 47.8082 46.4045 47.8082 46.3427C47.8082 46.2809 47.8592 46.2307 47.9217 46.2307H50.0692C50.1318 46.2307 50.1827 46.2809 50.1827 46.3427C50.1827 46.4045 50.1318 46.4547 50.0692 46.4547Z" fill="#E6E6E6"/>
<path d="M1.95961 3.83654C3.04188 3.83654 3.91923 2.98885 3.91923 1.94318C3.91923 0.897505 3.04188 0.0498199 1.95961 0.0498199C0.877349 0.0498199 0 0.897505 0 1.94318C0 2.98885 0.877349 3.83654 1.95961 3.83654Z" fill="#FBBC05"/>
<path d="M17.669 1.29546H7.12118C6.75933 1.29546 6.46491 1.00487 6.46491 0.647728C6.46491 0.290582 6.75933 0 7.12118 0H17.669C18.0309 0 18.3253 0.290582 18.3253 0.647728C18.3253 1.00487 18.0309 1.29546 17.669 1.29546Z" fill="#F2F2F2"/>
<path d="M25.9006 3.48776H7.12118C6.75933 3.48776 6.46491 3.19718 6.46491 2.84003C6.46491 2.48289 6.75933 2.19231 7.12118 2.19231H25.9006C26.2624 2.19231 26.5569 2.48289 26.5569 2.84003C26.5569 3.19718 26.2624 3.48776 25.9006 3.48776Z" fill="#F2F2F2"/>
</g>
<defs>
<clipPath id="clip0_10_203">
<rect width="57" height="68" fill="white"/>
</clipPath>
</defs>
</svg>
