<svg width="128" height="27" viewBox="0 0 128 27" fill="none" xmlns="http://www.w3.org/2000/svg">
<path d="M6.94752 9.98974e-05C7.33152 9.98974e-05 7.73952 0.0241003 8.17152 0.0721011C8.62752 0.1201 9.05952 0.1921 9.46752 0.2881C9.89952 0.360101 10.2835 0.444101 10.6195 0.540099C10.9795 0.6121 11.2555 0.6961 11.4475 0.7921V4.7881H11.1235C11.1235 3.6361 10.7275 2.7361 9.93552 2.0881C9.14352 1.4161 8.18352 1.0801 7.05552 1.0801C5.73552 1.0801 4.66752 1.5001 3.85152 2.3401C3.03552 3.1561 2.62752 4.1161 2.62752 5.2201C2.62752 5.6761 2.72352 6.2161 2.91552 6.8401C3.13152 7.4401 3.51552 8.0041 4.06752 8.5321L11.1595 15.0841C11.8795 15.7561 12.3595 16.4761 12.5995 17.2441C12.8395 18.0121 12.9595 18.7561 12.9595 19.4761C12.9595 21.4681 12.3475 23.0881 11.1235 24.3361C9.92352 25.5841 8.29152 26.2081 6.22752 26.2081C5.65152 26.2081 4.96752 26.1481 4.17552 26.0281C3.40752 25.9081 2.65152 25.7041 1.90752 25.4161C1.18752 25.1041 0.587522 24.7081 0.107522 24.2281C0.035522 23.8441 -0.000478014 23.3641 -0.000478014 22.7881C-0.000478014 22.2121 0.047522 21.6121 0.143522 20.9881C0.239522 20.3401 0.371522 19.7521 0.539522 19.2241H0.863522C0.743522 20.4481 0.899522 21.5161 1.33152 22.4281C1.76352 23.3401 2.38752 24.0361 3.20352 24.5161C4.04352 24.9721 4.99152 25.1761 6.04752 25.1281C7.36752 25.0561 8.49552 24.6001 9.43152 23.7601C10.3915 22.8961 10.8715 21.7441 10.8715 20.3041C10.8715 19.6081 10.7515 18.9841 10.5115 18.4321C10.2715 17.8561 9.92352 17.3641 9.46752 16.9561L2.55552 10.5481C1.83552 9.8761 1.33152 9.1441 1.04352 8.3521C0.755522 7.5361 0.611522 6.7801 0.611522 6.0841C0.611522 5.0761 0.851522 4.1041 1.33152 3.1681C1.81152 2.2321 2.51952 1.4761 3.45552 0.900101C4.41552 0.3001 5.57952 9.98974e-05 6.94752 9.98974e-05ZM11.4475 0.3601V1.1161H8.71152V0.3601H11.4475ZM27.1019 3.6001L37.0019 25.4881H34.1579L26.4899 6.8041L27.1019 3.6001ZM20.1539 23.0761C19.8899 23.7961 19.9259 24.3601 20.2619 24.7681C20.5979 25.1521 20.9819 25.3441 21.4139 25.3441H21.7019V25.7041H14.8259V25.3441C14.8259 25.3441 14.8739 25.3441 14.9699 25.3441C15.0659 25.3441 15.1139 25.3441 15.1139 25.3441C15.6179 25.3441 16.1339 25.1761 16.6619 24.8401C17.1899 24.4801 17.6459 23.8921 18.0299 23.0761H20.1539ZM27.1019 3.6001L27.3539 6.0841L19.1099 25.5961H16.8419L25.3739 7.3081C25.3739 7.3081 25.4339 7.1641 25.5539 6.8761C25.6979 6.5881 25.8539 6.2401 26.0219 5.8321C26.2139 5.4001 26.3819 4.9801 26.5259 4.5721C26.6699 4.1641 26.7539 3.8401 26.7779 3.6001H27.1019ZM31.3499 17.3161V18.3961H21.8099V17.3161H31.3499ZM33.1859 23.0761H35.9219C36.2819 23.8921 36.7259 24.4801 37.2539 24.8401C37.7819 25.1761 38.2859 25.3441 38.7659 25.3441C38.7659 25.3441 38.8139 25.3441 38.9099 25.3441C39.0059 25.3441 39.0539 25.3441 39.0539 25.3441V25.7041H31.6739V25.3441H31.9619C32.3699 25.3441 32.7419 25.1521 33.0779 24.7681C33.4139 24.3601 33.4499 23.7961 33.1859 23.0761ZM45.609 4.1041H50.253C51.381 4.1041 52.389 4.2361 53.277 4.5001C54.189 4.7641 54.957 5.1481 55.581 5.6521C56.229 6.1561 56.721 6.7681 57.057 7.4881C57.393 8.2081 57.561 9.0241 57.561 9.9361C57.561 10.9441 57.321 11.8801 56.841 12.7441C56.361 13.6081 55.689 14.3161 54.825 14.8681C53.985 15.4201 53.025 15.7561 51.945 15.8761C52.353 16.0441 52.821 16.4161 53.349 16.9921C53.901 17.5681 54.369 18.1321 54.753 18.6841C54.753 18.6841 54.909 18.9001 55.221 19.3321C55.533 19.7401 55.929 20.2561 56.409 20.8801C56.913 21.4801 57.405 22.0561 57.885 22.6081C58.389 23.1601 58.845 23.6401 59.253 24.0481C59.685 24.4561 60.141 24.7801 60.621 25.0201C61.125 25.2361 61.701 25.3441 62.349 25.3441V25.7041H61.233C59.913 25.7041 58.821 25.5361 57.957 25.2001C57.117 24.8641 56.433 24.4561 55.905 23.9761C55.377 23.4721 54.921 22.9921 54.537 22.5361C54.441 22.4161 54.213 22.1161 53.853 21.6361C53.517 21.1321 53.145 20.5921 52.737 20.0161C52.329 19.4401 51.957 18.9241 51.621 18.4681C51.285 17.9881 51.081 17.7001 51.009 17.6041C50.529 16.9801 49.977 16.4281 49.353 15.9481C48.729 15.4441 48.069 15.1921 47.373 15.1921V14.8321C47.373 14.8321 47.565 14.8441 47.949 14.8681C48.333 14.8681 48.825 14.8561 49.425 14.8321C50.097 14.8081 50.769 14.7601 51.441 14.6881C52.113 14.5921 52.737 14.3281 53.313 13.8961C53.913 13.4641 54.381 12.7441 54.717 11.7361C54.813 11.4721 54.885 11.1601 54.933 10.8001C54.981 10.4401 54.993 10.0681 54.969 9.6841C54.945 9.0121 54.813 8.4121 54.573 7.8841C54.357 7.3561 54.033 6.9001 53.601 6.5161C53.193 6.1321 52.701 5.8321 52.125 5.6161C51.549 5.4001 50.901 5.2801 50.181 5.2561C49.053 5.2081 48.069 5.1961 47.229 5.2201C46.389 5.2441 45.969 5.2441 45.969 5.2201C45.969 5.1961 45.933 5.1001 45.861 4.9321C45.813 4.7401 45.753 4.5601 45.681 4.3921C45.633 4.2001 45.609 4.1041 45.609 4.1041ZM46.041 4.1041V25.7041H43.737V4.1041H46.041ZM43.845 23.4001L44.277 25.7041H41.217V25.3441C41.217 25.3441 41.301 25.3441 41.469 25.3441C41.637 25.3441 41.721 25.3441 41.721 25.3441C42.297 25.3441 42.777 25.1521 43.161 24.7681C43.545 24.3841 43.749 23.9281 43.773 23.4001H43.845ZM43.845 6.3721H43.773C43.749 5.8201 43.545 5.3641 43.161 5.0041C42.777 4.6441 42.297 4.4641 41.721 4.4641C41.721 4.4641 41.637 4.4641 41.469 4.4641C41.301 4.4641 41.217 4.4641 41.217 4.4641V4.1041H44.277L43.845 6.3721ZM45.933 23.4001H46.041C46.065 23.9281 46.269 24.3841 46.653 24.7681C47.037 25.1521 47.517 25.3441 48.093 25.3441C48.093 25.3441 48.165 25.3441 48.309 25.3441C48.477 25.3441 48.561 25.3441 48.561 25.3441L48.597 25.7041H45.501L45.933 23.4001ZM74.2633 3.6001L84.1633 25.4881H81.3193L73.6513 6.8041L74.2633 3.6001ZM67.3153 23.0761C67.0513 23.7961 67.0873 24.3601 67.4233 24.7681C67.7593 25.1521 68.1433 25.3441 68.5753 25.3441H68.8633V25.7041H61.9873V25.3441C61.9873 25.3441 62.0353 25.3441 62.1313 25.3441C62.2273 25.3441 62.2753 25.3441 62.2753 25.3441C62.7793 25.3441 63.2953 25.1761 63.8233 24.8401C64.3513 24.4801 64.8073 23.8921 65.1913 23.0761H67.3153ZM74.2633 3.6001L74.5153 6.0841L66.2713 25.5961H64.0033L72.5353 7.3081C72.5353 7.3081 72.5953 7.1641 72.7153 6.8761C72.8593 6.5881 73.0153 6.2401 73.1833 5.8321C73.3753 5.4001 73.5433 4.9801 73.6873 4.5721C73.8313 4.1641 73.9153 3.8401 73.9393 3.6001H74.2633ZM78.5113 17.3161V18.3961H68.9713V17.3161H78.5113ZM80.3473 23.0761H83.0833C83.4433 23.8921 83.8873 24.4801 84.4153 24.8401C84.9433 25.1761 85.4473 25.3441 85.9273 25.3441C85.9273 25.3441 85.9753 25.3441 86.0713 25.3441C86.1673 25.3441 86.2153 25.3441 86.2153 25.3441V25.7041H78.8353V25.3441H79.1233C79.5313 25.3441 79.9033 25.1521 80.2393 24.7681C80.5753 24.3601 80.6113 23.7961 80.3473 23.0761ZM88.528 4.1401L95.188 15.9841L93.712 17.2441L85.396 4.1401H88.528ZM95.728 16.4161V25.7041H93.388V16.4161H95.728ZM101.776 4.1401H104.044L95.476 17.1721L94.144 16.7761L101.776 4.1401ZM100.408 6.4081C100.672 5.9281 100.684 5.4841 100.444 5.0761C100.204 4.6681 99.82 4.4641 99.292 4.4641C99.292 4.4641 99.22 4.4641 99.076 4.4641C98.932 4.4641 98.86 4.4641 98.86 4.4641V4.1041H106.384V4.4641H105.952C105.28 4.4641 104.644 4.6561 104.044 5.0401C103.468 5.4001 103.012 5.8201 102.676 6.3001L100.408 6.4081ZM89.788 6.3721L86.728 6.2641C86.344 5.7121 85.864 5.2801 85.288 4.9681C84.736 4.6321 84.112 4.4641 83.416 4.4641H82.984V4.1041H91.336V4.4641C91.336 4.4641 91.264 4.4641 91.12 4.4641C90.976 4.4641 90.904 4.4641 90.904 4.4641C90.376 4.4641 89.992 4.6801 89.752 5.1121C89.536 5.5201 89.548 5.9401 89.788 6.3721ZM93.496 23.4001V25.7041H90.868V25.3441C90.892 25.3441 90.964 25.3441 91.084 25.3441C91.228 25.3441 91.3 25.3441 91.3 25.3441C91.876 25.3441 92.356 25.1521 92.74 24.7681C93.148 24.3841 93.364 23.9281 93.388 23.4001H93.496ZM95.62 23.4001H95.728C95.752 23.9281 95.956 24.3841 96.34 24.7681C96.748 25.1521 97.24 25.3441 97.816 25.3441C97.816 25.3441 97.888 25.3441 98.032 25.3441C98.176 25.3441 98.248 25.3441 98.248 25.3441V25.7041H95.62V23.4001ZM115.413 3.6001L125.313 25.4881H122.469L114.801 6.8041L115.413 3.6001ZM108.465 23.0761C108.201 23.7961 108.237 24.3601 108.573 24.7681C108.909 25.1521 109.293 25.3441 109.725 25.3441H110.013V25.7041H103.137V25.3441C103.137 25.3441 103.185 25.3441 103.281 25.3441C103.377 25.3441 103.425 25.3441 103.425 25.3441C103.929 25.3441 104.445 25.1761 104.973 24.8401C105.501 24.4801 105.957 23.8921 106.341 23.0761H108.465ZM115.413 3.6001L115.665 6.0841L107.421 25.5961H105.153L113.685 7.3081C113.685 7.3081 113.745 7.1641 113.865 6.8761C114.009 6.5881 114.165 6.2401 114.333 5.8321C114.525 5.4001 114.693 4.9801 114.837 4.5721C114.981 4.1641 115.065 3.8401 115.089 3.6001H115.413ZM119.661 17.3161V18.3961H110.121V17.3161H119.661ZM121.497 23.0761H124.233C124.593 23.8921 125.037 24.4801 125.565 24.8401C126.093 25.1761 126.597 25.3441 127.077 25.3441C127.077 25.3441 127.125 25.3441 127.221 25.3441C127.317 25.3441 127.365 25.3441 127.365 25.3441V25.7041H119.985V25.3441H120.273C120.681 25.3441 121.053 25.1521 121.389 24.7681C121.725 24.3601 121.761 23.7961 121.497 23.0761Z" fill="black"/>
</svg>
