<svg width="139" height="221" viewBox="0 0 139 221" fill="none" xmlns="http://www.w3.org/2000/svg">
<path d="M133.106 52.6958C121.111 20.013 56.5905 4.78723 47.2053 2.73255C46.4607 2.56954 45.8671 2.09155 45.5262 1.40982C45.2285 0.814373 45.6762 0.130395 46.3329 0.239758C57.2421 2.05656 123.882 14.6352 136.954 52.6958C151.782 95.868 65.6947 144.1 69.7221 174.305C72.2121 192.981 95.8679 219.127 95.8679 219.127C95.8679 219.127 73.0422 200.451 67.232 174.305C60.5918 144.425 149.153 96.4221 133.106 52.6958Z" fill="white"/>
<path d="M50.4174 52.6959C62.4939 19.7899 116.539 6.74829 123.716 5.15059C124.242 5.03355 124.707 4.77724 125.088 4.3964C125.706 3.77826 125.215 2.75805 124.353 2.90613C111.899 5.04685 59.1122 16.1763 46.5691 52.6959C31.741 95.8681 117.409 146.777 113.299 175.551C110.986 191.736 75.9476 220.372 75.9476 220.372C75.9476 220.372 111.362 195.471 115.789 175.551C122.152 146.915 34.3698 96.4222 50.4174 52.6959Z" fill="white"/>
<path d="M27.7014 41.0859L30.1915 37.3508C30.1915 37.3508 28.0952 35.8246 26.4564 33.6157C22.7213 28.5814 22.7213 24.9004 22.7213 24.9004C22.7213 24.9004 22.2778 28.0214 22.7213 31.1256C23.1647 34.2298 23.9663 34.8607 23.9663 34.8607C23.9663 34.8607 22.7213 34.8607 21.4762 32.3706C20.6922 30.8026 20.2312 27.3905 20.2312 27.3905C20.2312 27.3905 18.9861 32.3706 21.4762 36.1057C23.7047 39.4484 27.7014 41.0859 27.7014 41.0859Z" fill="white"/>
<path d="M29.1403 34.1943C30.3853 22.9899 38.5962 8.9096 41.0863 6.4179C43.5764 3.92621 44.8214 5.17462 43.5764 6.41934C43.5764 6.41934 33.616 22.6034 32.371 35.0538C31.126 47.5042 2.65201 52.869 3.89705 57.8491C5.14209 62.8293 12.6123 62.8293 13.8574 67.8094C15.1024 72.7896 4.98015 75.0876 6.22519 78.8227C7.47023 82.5578 9.96031 82.1244 9.96031 83.8028C9.96031 85.0479 7.63217 85.2397 7.47023 88.783C7.33352 91.7745 12.6123 92.7102 12.6123 97.6904C12.6123 102.671 6.7515 106.496 7.47023 110.809C8.30026 115.789 14.315 118.529 22.5726 117.611C33.778 116.366 46.5045 117.535 51.2085 120.101C64.904 127.571 73.6192 146.248 73.6192 146.248C73.6192 146.248 62.8151 128.25 48.7184 122.591C36.4605 117.671 21.1657 123.259 10.1222 118.856C7.32741 117.742 3.73512 114.544 3.73512 109.563C3.73512 104.583 11.5461 98.0879 7.63217 93.9565C6.13672 92.3779 2.49008 90.0281 2.49008 88.783C2.49008 87.538 4.98015 85.0479 5.14209 83.995C5.51164 81.5921 2.49008 80.0665 2.49008 77.5776C2.49008 75.0888 7.63217 72.7896 8.87721 71.5446C10.1223 70.2995 12.6123 69.0545 8.8772 66.5644C5.14209 64.0743 -1.08311 60.3392 0.161939 55.3591C1.40699 50.3789 27.8952 45.3988 29.1403 34.1943Z" fill="white"/>
</svg>
