<svg width="69" height="60" viewBox="0 0 69 60" fill="none" xmlns="http://www.w3.org/2000/svg">
<g clip-path="url(#clip0_10_410)">
<path d="M57.4843 14.2142H57.1564V5.211C57.1564 3.82896 56.6085 2.50352 55.6333 1.52627C54.658 0.549015 53.3353 9.12333e-07 51.9562 0H32.9206C32.2377 0 31.5615 0.134786 30.9305 0.396663C30.2996 0.658541 29.7264 1.04238 29.2435 1.52627C28.7606 2.01015 28.3775 2.58461 28.1162 3.21684C27.8549 3.84906 27.7204 4.52668 27.7204 5.211V54.604C27.7204 55.986 28.2682 57.3114 29.2435 58.2887C30.2187 59.2659 31.5414 59.815 32.9206 59.815H51.9561C53.3353 59.8149 54.658 59.2659 55.6332 58.2887C56.6084 57.3114 57.1563 55.986 57.1563 54.604V20.6228H57.4842L57.4843 14.2142Z" fill="#E6E6E6"/>
<path d="M52.166 1.35522H49.6814C49.7957 1.63597 49.8393 1.94057 49.8084 2.24218C49.7775 2.5438 49.6731 2.83317 49.5043 3.08481C49.3355 3.33646 49.1076 3.54264 48.8405 3.68519C48.5735 3.82775 48.2755 3.90231 47.973 3.9023H37.0677C36.7652 3.90228 36.4672 3.82771 36.2002 3.68514C35.9332 3.54257 35.7053 3.33638 35.5365 3.08475C35.3677 2.83311 35.2633 2.54375 35.2324 2.24214C35.2016 1.94054 35.2452 1.63596 35.3594 1.35522H33.0387C32.0087 1.35522 31.021 1.76522 30.2927 2.49503C29.5644 3.22483 29.1552 4.21465 29.1552 5.24675V54.568C29.1552 55.6001 29.5644 56.5899 30.2927 57.3197C31.021 58.0495 32.0087 58.4595 33.0387 58.4595H52.166C53.1959 58.4595 54.1837 58.0495 54.912 57.3197C55.6403 56.5899 56.0494 55.6001 56.0494 54.568V5.24667C56.0494 4.21458 55.6403 3.22478 54.912 2.495C54.1837 1.76521 53.1959 1.35522 52.166 1.35522Z" fill="white"/>
<path d="M36.8167 12.8595C36.713 12.8604 36.6103 12.8394 36.5153 12.798C36.4203 12.7565 36.335 12.6955 36.2651 12.6188C36.1821 12.5226 36.1198 12.4102 36.0823 12.2887C36.0447 12.1673 36.0326 12.0393 36.0468 11.9129C36.0665 11.6722 36.1672 11.4453 36.3324 11.2694C36.4117 11.1835 36.5077 11.1147 36.6145 11.0673C36.7213 11.0199 36.8366 10.9948 36.9534 10.9937C37.062 10.9932 37.1695 11.0156 37.2689 11.0595C37.3682 11.1034 37.4573 11.1678 37.5302 11.2484C37.6129 11.3421 37.6754 11.4519 37.7136 11.571C37.7519 11.6901 37.7651 11.8158 37.7524 11.9402C37.7369 12.1956 37.627 12.436 37.4441 12.6145C37.2738 12.7734 37.0493 12.861 36.8167 12.8595ZM36.9534 11.3046C36.6497 11.3046 36.3872 11.5838 36.3559 11.9402C36.3456 12.0236 36.3525 12.1083 36.3762 12.1889C36.4 12.2695 36.44 12.3444 36.4939 12.4088C36.5347 12.4538 36.5846 12.4895 36.6402 12.5136C36.6959 12.5377 36.756 12.5496 36.8167 12.5485C37.1007 12.5485 37.4046 12.352 37.4432 11.9129C37.4522 11.8314 37.4442 11.749 37.4198 11.6708C37.3953 11.5926 37.355 11.5203 37.3013 11.4584C37.2574 11.4098 37.2037 11.3709 37.1437 11.3444C37.0838 11.3179 37.0189 11.3044 36.9534 11.3046Z" fill="#3F3D56"/>
<path d="M36.8267 13.7924C36.5867 13.7963 36.3486 13.749 36.1282 13.6537C35.9077 13.5583 35.7101 13.4171 35.5483 13.2394C35.3865 13.0617 35.2642 12.8515 35.1897 12.6228C35.1151 12.3941 35.0899 12.1522 35.1158 11.913C35.1667 11.411 35.3996 10.9451 35.7704 10.6037C36.1412 10.2623 36.6241 10.0691 37.1276 10.0608C37.6862 10.0608 38.1458 10.2406 38.4568 10.5809C38.7517 10.9035 38.8897 11.3578 38.8456 11.8599C38.8038 12.3355 38.6024 12.5832 38.4408 12.7073C38.3695 12.7656 38.2871 12.8087 38.1986 12.8341C38.1101 12.8595 38.0174 12.8667 37.926 12.8551C37.6706 12.8098 37.3881 12.5773 37.4326 12.0713L37.5148 11.136C37.5186 11.0951 37.5384 11.0573 37.5699 11.031C37.6014 11.0047 37.6421 10.9919 37.6829 10.9955C37.7238 10.9991 37.7615 11.0188 37.788 11.0502C37.8144 11.0817 37.8273 11.1223 37.8239 11.1633L37.7417 12.0986C37.7196 12.3501 37.8088 12.5185 37.9802 12.5489C38.0789 12.5566 38.1767 12.5248 38.2521 12.4604C38.3642 12.3743 38.5046 12.1955 38.5364 11.8326C38.5734 11.4124 38.4667 11.0522 38.2279 10.7909C37.9773 10.5167 37.5968 10.3717 37.1276 10.3717C36.7016 10.3798 36.2933 10.5438 35.9797 10.8327C35.6661 11.1216 35.4688 11.5155 35.4249 11.9401C35.4028 12.1363 35.4228 12.335 35.4835 12.5229C35.5443 12.7107 35.6443 12.8834 35.7771 13.0293C35.9098 13.1752 36.0721 13.2911 36.2531 13.369C36.4342 13.447 36.6297 13.4853 36.8267 13.4814C37.0698 13.4946 37.3125 13.4505 37.5355 13.3526C37.5734 13.3369 37.616 13.3368 37.6539 13.3524C37.6919 13.368 37.7221 13.3981 37.738 13.436C37.7539 13.4739 37.7542 13.5166 37.7387 13.5547C37.7233 13.5928 37.6934 13.6232 37.6557 13.6393C37.3947 13.7532 37.1111 13.8055 36.8267 13.7924Z" fill="#3F3D56"/>
<path d="M35.1885 36.0168C35.1578 36.0168 35.1278 36.0077 35.1023 35.9906C35.0768 35.9735 35.0569 35.9493 35.0451 35.9209C35.0334 35.8924 35.0303 35.8612 35.0363 35.831C35.0423 35.8009 35.0571 35.7732 35.0788 35.7514L36.0873 34.7408C36.1165 34.712 36.1558 34.6959 36.1968 34.696C36.2377 34.6962 36.277 34.7125 36.3059 34.7416C36.3349 34.7706 36.3512 34.8099 36.3514 34.8509C36.3515 34.892 36.3355 34.9314 36.3067 34.9607L35.2982 35.9713C35.2838 35.9858 35.2667 35.9972 35.2479 36.005C35.229 36.0129 35.2089 36.0169 35.1885 36.0168ZM37.7486 35.6281C37.718 35.6281 37.688 35.619 37.6624 35.6019C37.6369 35.5848 37.617 35.5606 37.6053 35.5321C37.5936 35.5037 37.5905 35.4725 37.5965 35.4423C37.6025 35.4122 37.6172 35.3845 37.6389 35.3627L38.4923 34.5075C38.5215 34.4787 38.5608 34.4627 38.6018 34.4628C38.6427 34.4629 38.682 34.4793 38.7109 34.5083C38.7399 34.5374 38.7562 34.5767 38.7564 34.6177C38.7565 34.6588 38.7405 34.6982 38.7117 34.7274L37.8584 35.5826C37.844 35.597 37.8269 35.6085 37.808 35.6163C37.7892 35.6241 37.769 35.6282 37.7486 35.6281ZM37.2832 35.6281C37.2628 35.6282 37.2426 35.6241 37.2238 35.6163C37.2049 35.6085 37.1878 35.597 37.1734 35.5826L36.5528 34.9607C36.5382 34.9462 36.5266 34.9291 36.5187 34.9102C36.5108 34.8913 36.5066 34.871 36.5066 34.8505C36.5065 34.83 36.5105 34.8096 36.5183 34.7907C36.5261 34.7717 36.5376 34.7545 36.552 34.74C36.5665 34.7255 36.5837 34.714 36.6026 34.7062C36.6215 34.6984 36.6418 34.6944 36.6623 34.6945C36.6828 34.6945 36.703 34.6987 36.7219 34.7066C36.7407 34.7146 36.7579 34.7262 36.7722 34.7408L37.3929 35.3627C37.4146 35.3845 37.4293 35.4122 37.4353 35.4423C37.4413 35.4725 37.4382 35.5037 37.4265 35.5321C37.4148 35.5606 37.3949 35.5848 37.3694 35.6019C37.3438 35.619 37.3138 35.6281 37.2832 35.6281Z" fill="#3F3D56"/>
<path d="M38.8348 34.773C38.7581 34.773 38.6831 34.7502 38.6193 34.7075C38.5555 34.6647 38.5058 34.604 38.4764 34.533C38.447 34.462 38.4394 34.3838 38.4543 34.3084C38.4693 34.233 38.5062 34.1638 38.5605 34.1094C38.6147 34.055 38.6838 34.018 38.7591 34.003C38.8343 33.988 38.9123 33.9957 38.9832 34.0251C39.0541 34.0546 39.1147 34.1044 39.1573 34.1683C39.1999 34.2322 39.2227 34.3074 39.2227 34.3843C39.2226 34.4873 39.1817 34.5861 39.1089 34.659C39.0362 34.7319 38.9376 34.7728 38.8348 34.773ZM38.8348 34.3065C38.8194 34.3065 38.8044 34.3111 38.7917 34.3196C38.7789 34.3282 38.769 34.3403 38.7631 34.3545C38.7572 34.3687 38.7557 34.3843 38.7587 34.3994C38.7617 34.4145 38.7691 34.4284 38.7799 34.4392C38.7908 34.4501 38.8046 34.4575 38.8196 34.4605C38.8347 34.4635 38.8503 34.462 38.8645 34.4561C38.8786 34.4502 38.8908 34.4402 38.8993 34.4274C38.9078 34.4147 38.9124 34.3996 38.9124 34.3843C38.9123 34.3636 38.9041 34.3439 38.8896 34.3293C38.8751 34.3147 38.8553 34.3065 38.8348 34.3065Z" fill="#3F3D56"/>
<path d="M37.5159 36.0946C37.4392 36.0946 37.3642 36.0718 37.3004 36.0291C37.2366 35.9864 37.1869 35.9257 37.1575 35.8546C37.1282 35.7836 37.1205 35.7054 37.1354 35.63C37.1504 35.5546 37.1874 35.4854 37.2416 35.431C37.2959 35.3767 37.365 35.3396 37.4402 35.3246C37.5155 35.3096 37.5935 35.3173 37.6643 35.3468C37.7352 35.3762 37.7958 35.426 37.8384 35.4899C37.8811 35.5538 37.9038 35.629 37.9038 35.7059C37.9037 35.8089 37.8628 35.9077 37.7901 35.9806C37.7173 36.0535 37.6187 36.0945 37.5159 36.0946ZM37.5159 35.6281C37.5006 35.6281 37.4856 35.6327 37.4728 35.6412C37.46 35.6498 37.4501 35.6619 37.4442 35.6761C37.4383 35.6903 37.4368 35.706 37.4398 35.721C37.4428 35.7361 37.4502 35.75 37.461 35.7609C37.4719 35.7717 37.4857 35.7791 37.5008 35.7821C37.5158 35.7851 37.5314 35.7836 37.5456 35.7777C37.5598 35.7718 37.5719 35.7619 37.5804 35.7491C37.5889 35.7363 37.5935 35.7213 37.5935 35.7059C37.5935 35.6853 37.5853 35.6655 37.5707 35.6509C37.5562 35.6364 37.5365 35.6282 37.5159 35.6281Z" fill="#3F3D56"/>
<path d="M36.4298 35.0062C36.353 35.0062 36.278 34.9834 36.2143 34.9407C36.1505 34.898 36.1007 34.8372 36.0714 34.7662C36.042 34.6952 36.0343 34.617 36.0493 34.5416C36.0643 34.4662 36.1012 34.397 36.1555 34.3426C36.2097 34.2882 36.2788 34.2512 36.3541 34.2362C36.4293 34.2212 36.5073 34.2289 36.5782 34.2583C36.6491 34.2878 36.7097 34.3376 36.7523 34.4015C36.7949 34.4654 36.8177 34.5406 36.8177 34.6175C36.8176 34.7205 36.7767 34.8193 36.7039 34.8922C36.6312 34.9651 36.5326 35.0061 36.4298 35.0062ZM36.4298 34.5397C36.4144 34.5397 36.3994 34.5443 36.3867 34.5528C36.3739 34.5614 36.364 34.5735 36.3581 34.5877C36.3522 34.6019 36.3507 34.6176 36.3537 34.6326C36.3567 34.6477 36.3641 34.6616 36.3749 34.6724C36.3858 34.6833 36.3996 34.6907 36.4146 34.6937C36.4297 34.6967 36.4453 34.6952 36.4595 34.6893C36.4736 34.6834 36.4858 34.6734 36.4943 34.6607C36.5028 34.6479 36.5074 34.6328 36.5074 34.6175C36.5073 34.5969 36.4991 34.5771 36.4846 34.5625C36.4701 34.5479 36.4503 34.5397 36.4298 34.5397Z" fill="#3F3D56"/>
<path d="M34.9557 36.4833C34.879 36.4833 34.804 36.4605 34.7402 36.4178C34.6764 36.3751 34.6267 36.3144 34.5974 36.2433C34.568 36.1723 34.5603 36.0941 34.5753 36.0187C34.5902 35.9433 34.6272 35.8741 34.6814 35.8197C34.7357 35.7654 34.8048 35.7283 34.8801 35.7133C34.9553 35.6983 35.0333 35.706 35.1042 35.7355C35.1751 35.7649 35.2356 35.8147 35.2783 35.8786C35.3209 35.9425 35.3436 36.0177 35.3436 36.0946C35.3435 36.1976 35.3026 36.2964 35.2299 36.3693C35.1572 36.4422 35.0586 36.4832 34.9557 36.4833ZM34.9557 36.0168C34.9404 36.0168 34.9254 36.0214 34.9126 36.0299C34.8999 36.0385 34.8899 36.0506 34.8841 36.0648C34.8782 36.079 34.8766 36.0947 34.8796 36.1097C34.8826 36.1248 34.89 36.1387 34.9009 36.1496C34.9117 36.1604 34.9255 36.1678 34.9406 36.1708C34.9556 36.1738 34.9712 36.1723 34.9854 36.1664C34.9996 36.1605 35.0117 36.1506 35.0202 36.1378C35.0288 36.125 35.0333 36.11 35.0333 36.0946C35.0333 36.074 35.0251 36.0542 35.0106 36.0396C34.996 36.0251 34.9763 36.0169 34.9557 36.0168Z" fill="#3F3D56"/>
<path d="M49.6812 48.4736H46.4228C46.2788 48.4734 46.1407 48.416 46.0389 48.314C45.9371 48.212 45.8799 48.0737 45.8797 47.9294V45.5971C45.8799 45.4529 45.9371 45.3145 46.0389 45.2125C46.1407 45.1105 46.2788 45.0531 46.4228 45.0529H49.6812C49.8251 45.0531 49.9632 45.1105 50.065 45.2125C50.1668 45.3145 50.2241 45.4529 50.2242 45.5971V47.9294C50.2241 48.0737 50.1668 48.212 50.065 48.314C49.9632 48.416 49.8251 48.4734 49.6812 48.4736ZM46.4228 45.3639C46.3611 45.364 46.3019 45.3886 46.2583 45.4323C46.2146 45.476 46.1901 45.5353 46.19 45.5971V47.9294C46.1901 47.9912 46.2146 48.0505 46.2583 48.0942C46.3019 48.138 46.3611 48.1626 46.4228 48.1626H49.6812C49.7429 48.1626 49.802 48.138 49.8457 48.0942C49.8893 48.0505 49.9138 47.9912 49.9139 47.9294V45.5971C49.9138 45.5353 49.8893 45.476 49.8457 45.4323C49.802 45.3886 49.7429 45.364 49.6812 45.3639L46.4228 45.3639Z" fill="#3F3D56"/>
<path d="M48.052 47.0743C48.0175 47.0743 47.9839 47.0627 47.9567 47.0415L46.5603 45.9531C46.5442 45.9406 46.5307 45.925 46.5206 45.9072C46.5106 45.8895 46.5041 45.8699 46.5015 45.8497C46.499 45.8294 46.5005 45.8088 46.5059 45.7892C46.5113 45.7695 46.5205 45.751 46.533 45.7349C46.5455 45.7188 46.5611 45.7053 46.5788 45.6952C46.5965 45.6851 46.616 45.6786 46.6363 45.6761C46.6565 45.6736 46.677 45.675 46.6967 45.6805C46.7163 45.6859 46.7347 45.6951 46.7508 45.7077L48.052 46.7218L49.3532 45.7077C49.3692 45.6951 49.3876 45.6859 49.4073 45.6805C49.4269 45.675 49.4475 45.6736 49.4677 45.6761C49.4879 45.6786 49.5074 45.6851 49.5251 45.6952C49.5428 45.7053 49.5584 45.7188 49.5709 45.7349C49.5834 45.751 49.5926 45.7695 49.598 45.7892C49.6034 45.8088 49.6049 45.8294 49.6024 45.8497C49.5999 45.8699 49.5934 45.8895 49.5833 45.9072C49.5732 45.925 49.5598 45.9406 49.5437 45.9531L48.1472 47.0415C48.12 47.0627 48.0865 47.0743 48.052 47.0743Z" fill="#3F3D56"/>
<path d="M65.553 50.6261L47.6043 50.6332C47.5815 50.6332 47.5597 50.6242 47.5436 50.608C47.5275 50.5919 47.5185 50.57 47.5185 50.5472C47.5185 50.5244 47.5275 50.5025 47.5436 50.4864C47.5597 50.4703 47.5815 50.4612 47.6043 50.4612L65.553 50.4541C65.5757 50.4541 65.5976 50.4632 65.6137 50.4793C65.6298 50.4954 65.6388 50.5173 65.6388 50.5401C65.6388 50.5629 65.6298 50.5848 65.6137 50.6009C65.5976 50.617 65.5757 50.6261 65.553 50.6261Z" fill="#CCCCCC"/>
<path d="M65.3141 51.7441C65.9777 51.7441 66.5156 51.205 66.5156 50.5401C66.5156 49.8752 65.9777 49.3361 65.3141 49.3361C64.6505 49.3361 64.1126 49.8752 64.1126 50.5401C64.1126 51.205 64.6505 51.7441 65.3141 51.7441Z" fill="white"/>
<path d="M65.1239 27.5784L47.0035 27.5855C46.9808 27.5855 46.9589 27.5764 46.9428 27.5603C46.9268 27.5442 46.9177 27.5223 46.9177 27.4995C46.9177 27.4767 46.9268 27.4548 46.9428 27.4387C46.9589 27.4226 46.9808 27.4135 47.0035 27.4135L65.1239 27.4064C65.1466 27.4064 65.1685 27.4154 65.1846 27.4316C65.2007 27.4477 65.2097 27.4696 65.2097 27.4924C65.2097 27.5152 65.2007 27.5371 65.1846 27.5532C65.1685 27.5693 65.1466 27.5784 65.1239 27.5784Z" fill="#CCCCCC"/>
<path d="M65.3141 28.7824C65.9777 28.7824 66.5156 28.2433 66.5156 27.5784C66.5156 26.9134 65.9777 26.3744 65.3141 26.3744C64.6505 26.3744 64.1126 26.9134 64.1126 27.5784C64.1126 28.2433 64.6505 28.7824 65.3141 28.7824Z" fill="white"/>
<path d="M18.7319 15.7965L36.8523 15.8036C36.875 15.8036 36.8969 15.7946 36.913 15.7784C36.9291 15.7623 36.9381 15.7404 36.9381 15.7176C36.9381 15.6948 36.9291 15.673 36.913 15.6568C36.8969 15.6407 36.875 15.6316 36.8523 15.6316L18.7319 15.6245C18.7092 15.6245 18.6873 15.6336 18.6713 15.6497C18.6552 15.6658 18.6461 15.6877 18.6461 15.7105C18.6461 15.7333 18.6552 15.7552 18.6713 15.7713C18.6873 15.7874 18.7092 15.7965 18.7319 15.7965Z" fill="#CCCCCC"/>
<path d="M18.5417 17.0005C19.2053 17.0005 19.7432 16.4615 19.7432 15.7965C19.7432 15.1316 19.2053 14.5925 18.5417 14.5925C17.8781 14.5925 17.3402 15.1316 17.3402 15.7965C17.3402 16.4615 17.8781 17.0005 18.5417 17.0005Z" fill="white"/>
<path d="M18.7319 39.1022L36.8523 39.1094C36.875 39.1094 36.8969 39.1003 36.913 39.0842C36.9291 39.0681 36.9381 39.0462 36.9381 39.0234C36.9381 39.0006 36.9291 38.9787 36.913 38.9626C36.8969 38.9464 36.875 38.9374 36.8523 38.9374L18.7319 38.9302C18.7092 38.9302 18.6873 38.9393 18.6713 38.9554C18.6552 38.9716 18.6461 38.9934 18.6461 39.0162C18.6461 39.039 18.6552 39.0609 18.6713 39.0771C18.6873 39.0932 18.7092 39.1022 18.7319 39.1022Z" fill="#CCCCCC"/>
<path d="M18.5417 40.3062C19.2053 40.3062 19.7432 39.7672 19.7432 39.1022C19.7432 38.4373 19.2053 37.8983 18.5417 37.8983C17.8781 37.8983 17.3402 38.4373 17.3402 39.1022C17.3402 39.7672 17.8781 40.3062 18.5417 40.3062Z" fill="white"/>
<path d="M48.052 50.6332C47.2881 50.6332 46.5415 50.4063 45.9064 49.981C45.2713 49.5558 44.7763 48.9514 44.484 48.2442C44.1917 47.5371 44.1152 46.759 44.2642 46.0083C44.4132 45.2576 44.7811 44.568 45.3212 44.0268C45.8613 43.4856 46.5494 43.117 47.2985 42.9677C48.0477 42.8183 48.8242 42.895 49.5299 43.1879C50.2355 43.4808 50.8387 43.9768 51.263 44.6132C51.6874 45.2496 51.9139 45.9979 51.9139 46.7633C51.9127 47.7893 51.5055 48.7729 50.7815 49.4985C50.0575 50.224 49.0759 50.6321 48.052 50.6332ZM48.052 43.0653C47.3221 43.0653 46.6086 43.2822 46.0017 43.6885C45.3949 44.0949 44.9219 44.6724 44.6426 45.3481C44.3633 46.0238 44.2902 46.7674 44.4326 47.4847C44.575 48.202 44.9264 48.8609 45.4425 49.3781C45.9586 49.8953 46.6162 50.2475 47.332 50.3902C48.0479 50.5329 48.7899 50.4596 49.4642 50.1797C50.1385 49.8998 50.7148 49.4259 51.1203 48.8177C51.5258 48.2096 51.7423 47.4947 51.7423 46.7633C51.7412 45.7828 51.352 44.8429 50.6602 44.1496C49.9684 43.4564 49.0303 43.0664 48.052 43.0653Z" fill="#CCCCCC"/>
<path d="M36.8953 39.1094C36.1314 39.1094 35.3848 38.8824 34.7497 38.4572C34.1146 38.0319 33.6196 37.4275 33.3273 36.7204C33.035 36.0132 32.9585 35.2351 33.1075 34.4844C33.2565 33.7337 33.6243 33.0442 34.1645 32.5029C34.7046 31.9617 35.3927 31.5931 36.1418 31.4438C36.891 31.2945 37.6675 31.3711 38.3732 31.664C39.0788 31.9569 39.682 32.453 40.1063 33.0894C40.5307 33.7258 40.7572 34.474 40.7572 35.2394C40.756 36.2654 40.3488 37.2491 39.6248 37.9746C38.9008 38.7001 37.9191 39.1082 36.8953 39.1094ZM36.8953 31.5414C36.1654 31.5414 35.4519 31.7583 34.845 32.1647C34.2382 32.571 33.7652 33.1485 33.4859 33.8243C33.2066 34.5 33.1335 35.2435 33.2759 35.9608C33.4183 36.6782 33.7697 37.3371 34.2858 37.8542C34.8019 38.3714 35.4595 38.7236 36.1753 38.8663C36.8912 39.009 37.6332 38.9358 38.3075 38.6559C38.9818 38.376 39.5581 37.902 39.9636 37.2939C40.3691 36.6858 40.5855 35.9708 40.5855 35.2394C40.5844 34.259 40.1953 33.319 39.5035 32.6258C38.8116 31.9325 37.8736 31.5426 36.8953 31.5414Z" fill="#CCCCCC"/>
<path d="M47.2796 27.5855C46.5158 27.5855 45.7691 27.3585 45.134 26.9333C44.4989 26.5081 44.0039 25.9036 43.7116 25.1965C43.4193 24.4894 43.3428 23.7112 43.4918 22.9605C43.6409 22.2098 44.0087 21.5203 44.5488 20.9791C45.0889 20.4378 45.777 20.0693 46.5261 19.9199C47.2753 19.7706 48.0518 19.8473 48.7575 20.1402C49.4632 20.4331 50.0663 20.9291 50.4907 21.5655C50.915 22.2019 51.1415 22.9501 51.1415 23.7155C51.1404 24.7416 50.7331 25.7252 50.0091 26.4507C49.2851 27.1762 48.3035 27.5843 47.2796 27.5855ZM47.2796 20.0176C46.5497 20.0176 45.8362 20.2345 45.2294 20.6408C44.6225 21.0471 44.1495 21.6247 43.8702 22.3004C43.5909 22.9761 43.5178 23.7196 43.6602 24.437C43.8026 25.1543 44.154 25.8132 44.6701 26.3304C45.1862 26.8476 45.8438 27.1998 46.5596 27.3424C47.2755 27.4851 48.0175 27.4119 48.6918 27.132C49.3661 26.8521 49.9425 26.3781 50.3479 25.77C50.7534 25.1619 50.9699 24.4469 50.9699 23.7155C50.9688 22.7351 50.5796 21.7952 49.8878 21.1019C49.196 20.4086 48.258 20.0187 47.2796 20.0176Z" fill="#CCCCCC"/>
<path d="M36.9811 15.7965C36.2172 15.7965 35.4706 15.5696 34.8355 15.1443C34.2004 14.7191 33.7054 14.1147 33.4131 13.4075C33.1208 12.7004 33.0443 11.9223 33.1933 11.1716C33.3423 10.4209 33.7102 9.73132 34.2503 9.1901C34.7904 8.64887 35.4785 8.28029 36.2276 8.13097C36.9768 7.98165 37.7533 8.05829 38.459 8.35119C39.1646 8.6441 39.7678 9.14012 40.1922 9.77653C40.6165 10.4129 40.843 11.1612 40.843 11.9266C40.8418 12.9526 40.4346 13.9362 39.7106 14.6618C38.9866 15.3873 38.005 15.7954 36.9811 15.7965ZM36.9811 8.22861C36.2512 8.22861 35.5377 8.44549 34.9308 8.85183C34.324 9.25816 33.851 9.83571 33.5717 10.5114C33.2924 11.1871 33.2193 11.9307 33.3617 12.648C33.5041 13.3653 33.8555 14.0242 34.3716 14.5414C34.8877 15.0586 35.5453 15.4108 36.2611 15.5535C36.977 15.6962 37.719 15.6229 38.3933 15.343C39.0676 15.0631 39.6439 14.5892 40.0494 13.981C40.4549 13.3729 40.6714 12.658 40.6714 11.9266C40.6703 10.9461 40.2811 10.0062 39.5893 9.31294C38.8975 8.61968 37.9595 8.22972 36.9811 8.22861Z" fill="#CCCCCC"/>
<path d="M12.7446 42.0173C12.639 41.9367 12.5516 41.8346 12.488 41.7179C12.4244 41.6011 12.386 41.4722 12.3754 41.3396C12.373 41.3087 12.3723 41.2777 12.3732 41.2467L8.3767 38.5496C8.2459 38.4604 8.14736 38.3313 8.09576 38.1814C8.04416 38.0315 8.04226 37.869 8.09034 37.718L10.0004 32.9626C10.0826 32.7579 10.2424 32.5942 10.4448 32.5073C10.6472 32.4204 10.8758 32.4174 11.0803 32.4989C11.2849 32.5805 11.449 32.74 11.5365 32.9425C11.624 33.145 11.6278 33.3739 11.5472 33.5793L10.0051 37.5086L13.117 40.341C13.1581 40.3317 13.1998 40.3252 13.2417 40.3217C13.4821 40.3026 13.7206 40.3763 13.9085 40.5277C14.0963 40.6792 14.2192 40.8969 14.2519 41.1363C14.2847 41.3757 14.2248 41.6185 14.0846 41.815C13.9443 42.0116 13.7344 42.1469 13.4978 42.1933C13.4371 42.205 13.3754 42.2109 13.3135 42.211C13.1078 42.2111 12.9077 42.143 12.7446 42.0173Z" fill="#A0616A"/>
<path d="M8.37833 35.7627C8.35494 35.7079 8.34362 35.6488 8.34512 35.5893C8.34662 35.5298 8.36092 35.4713 8.38703 35.4179L9.29885 33.5503C9.39085 33.26 9.59397 33.0182 9.86366 32.8777C10.1334 32.7373 10.4476 32.7097 10.7375 32.8011C11.0275 32.8925 11.2694 33.0954 11.4103 33.3652C11.5512 33.6351 11.5795 33.9499 11.4891 34.2407L11.1562 36.2997C11.1467 36.3585 11.1247 36.4145 11.0917 36.4639C11.0586 36.5134 11.0153 36.5551 10.9647 36.5863C10.9141 36.6175 10.8574 36.6374 10.7984 36.6446C10.7394 36.6518 10.6796 36.6462 10.623 36.6282L8.63321 35.9946C8.57658 35.9766 8.52449 35.9465 8.4805 35.9065C8.43651 35.8665 8.40166 35.8174 8.37833 35.7627Z" fill="white"/>
<path d="M14.6675 58.819H15.7196L16.2202 54.7523L14.6673 54.7524L14.6675 58.819Z" fill="#A0616A"/>
<path d="M14.3991 58.4748L16.4711 58.4747H16.4712C16.6446 58.4747 16.8163 58.5089 16.9765 58.5754C17.1367 58.6419 17.2823 58.7394 17.4049 58.8623C17.5275 58.9851 17.6248 59.131 17.6912 59.2916C17.7575 59.4521 17.7917 59.6242 17.7917 59.7979V59.8409L14.3991 59.8411L14.3991 58.4748Z" fill="#2F2E41"/>
<path d="M4.37901 58.072L5.39805 58.3344L6.89305 54.5205L5.38904 54.1333L4.37901 58.072Z" fill="#A0616A"/>
<path d="M4.20459 57.6717L6.21142 58.1885L6.21151 58.1885C6.37946 58.2317 6.53726 58.3077 6.67591 58.4121C6.81456 58.5164 6.93133 58.6471 7.01957 58.7967C7.1078 58.9463 7.16577 59.1119 7.19016 59.2839C7.21455 59.4559 7.20488 59.6311 7.16171 59.7994L7.15103 59.8411L3.86525 58.9949L4.20459 57.6717Z" fill="#2F2E41"/>
<path d="M11.7587 30.9202C12.9229 30.9202 13.8666 29.9745 13.8666 28.808C13.8666 27.6414 12.9229 26.6957 11.7587 26.6957C10.5946 26.6957 9.65088 27.6414 9.65088 28.808C9.65088 29.9745 10.5946 30.9202 11.7587 30.9202Z" fill="#A0616A"/>
<path d="M10.6926 37.5937C10.1911 37.0765 9.76534 36.4906 9.42797 35.8536C9.24853 35.5043 9.14407 35.1213 9.1213 34.7291C9.09853 34.3369 9.15797 33.9444 9.29578 33.5766C9.4365 33.2007 9.65422 32.8584 9.93492 32.5719C10.2156 32.2854 10.5531 32.0609 10.9256 31.913C11.5788 31.6473 12.3077 31.6363 12.9686 31.8822C13.6296 32.128 14.1747 32.6129 14.4968 33.2413C15.0242 34.2757 15.2309 35.2869 15.1111 36.2472C14.8822 38.0829 14.7481 39.0317 14.7127 39.0672L14.7009 39.079L10.7798 39.2536L10.6926 37.5937Z" fill="white"/>
<path d="M10.9255 38.7456L14.4345 38.5706C14.5231 38.5661 14.61 38.5963 14.6769 38.6546C14.7438 38.713 14.7856 38.795 14.7935 38.8836L16.4076 57.0149C16.4119 57.0631 16.406 57.1116 16.3903 57.1573C16.3746 57.2031 16.3495 57.245 16.3165 57.2803C16.2836 57.3157 16.2436 57.3436 16.1991 57.3624C16.1546 57.3812 16.1067 57.3904 16.0584 57.3894L14.6875 57.3601C14.6121 57.3585 14.5394 57.3321 14.4805 57.2849C14.4216 57.2377 14.3798 57.1724 14.3617 57.0991L11.7427 46.5244C11.7256 46.4553 11.6874 46.3931 11.6335 46.3466C11.5796 46.3001 11.5126 46.2715 11.4418 46.2648C11.371 46.2581 11.2998 46.2736 11.2382 46.3092C11.1766 46.3448 11.1275 46.3987 11.0977 46.4634L6.13473 57.2648C6.10102 57.3382 6.04262 57.3973 5.96977 57.4319C5.89691 57.4664 5.81425 57.4742 5.73626 57.4538L4.35663 57.0932C4.27124 57.071 4.19767 57.0166 4.15124 56.9414C4.10481 56.8663 4.08908 56.7761 4.10733 56.6896C4.56126 54.5423 7.28027 42.2456 10.7037 38.8419C10.7632 38.7835 10.8422 38.7492 10.9255 38.7456Z" fill="#2F2E41"/>
<path d="M17.5704 40.7814C17.4435 40.7421 17.3263 40.6766 17.2264 40.589C17.1265 40.5014 17.0461 40.3936 16.9904 40.2728C16.9776 40.2447 16.9662 40.2159 16.9564 40.1865L12.2765 39.0373C12.123 38.9988 11.986 38.9117 11.886 38.7889C11.7859 38.666 11.7282 38.5141 11.7213 38.3557L11.8762 33.2321C11.8829 33.0116 11.9764 32.8026 12.1365 32.6511C12.2965 32.4996 12.5099 32.4177 12.73 32.4235C12.9501 32.4293 13.159 32.5222 13.3108 32.682C13.4627 32.8417 13.5452 33.0553 13.5403 33.2758L13.4462 37.497L17.3426 39.0792C17.3779 39.0562 17.4148 39.0358 17.4529 39.0179C17.592 38.9532 17.7448 38.9235 17.898 38.9313C18.0512 38.939 18.2002 38.984 18.3321 39.0624C18.464 39.1408 18.575 39.2501 18.6553 39.3811C18.7356 39.512 18.7829 39.6605 18.7931 39.8139C18.8033 39.9672 18.7762 40.1208 18.7139 40.2612C18.6517 40.4017 18.5562 40.5249 18.4359 40.6201C18.3155 40.7154 18.1738 40.7798 18.023 40.8079C17.8722 40.836 17.7169 40.8269 17.5704 40.7814Z" fill="#A0616A"/>
<path d="M11.377 35.7851C11.3366 35.7415 11.3061 35.6896 11.2876 35.633C11.269 35.5765 11.2629 35.5166 11.2695 35.4574L11.5015 33.3914C11.4907 33.087 11.6008 32.7908 11.8077 32.5677C12.0145 32.3445 12.3012 32.2127 12.6049 32.2011C12.9086 32.1894 13.2046 32.2989 13.4278 32.5056C13.6511 32.7123 13.7834 32.9992 13.7959 33.3035L14.1734 35.3547C14.1841 35.4133 14.1822 35.4735 14.1677 35.5312C14.1531 35.5889 14.1264 35.6428 14.0892 35.6892C14.052 35.7356 14.0052 35.7735 13.9521 35.8001C13.899 35.8268 13.8408 35.8417 13.7814 35.8438L11.6949 35.9176C11.6355 35.9198 11.5764 35.909 11.5215 35.8862C11.4667 35.8633 11.4174 35.8288 11.377 35.7851Z" fill="white"/>
<path d="M8.73837 31.5966L8.95861 30.8833L9.10922 31.6839L10.3462 31.651L10.3405 30.8617L10.8107 31.6407L11.9316 31.3924C11.6921 31.0727 11.4498 30.7479 11.2966 30.371C11.1435 29.9941 11.0877 29.5521 11.2308 29.1706C11.5846 28.2274 12.9259 28.4913 13.6596 28.4833C13.8736 28.481 14.1152 28.4655 14.2554 28.2902C14.3609 28.1582 14.3782 27.9693 14.3729 27.7947C14.3453 26.8956 13.8066 26.0378 13.0451 25.6804C12.6723 25.5084 12.2567 25.452 11.8517 25.5184C11.6405 25.5518 11.4354 25.6166 11.2431 25.7105C11.0717 25.7944 10.8917 25.9942 10.7072 25.9888C10.5521 25.9843 10.3468 25.8224 10.178 25.7947C9.97471 25.7633 9.7673 25.7705 9.56667 25.8161C9.16349 25.9062 8.80004 26.1241 8.53028 26.4376C7.95696 27.1051 7.78662 28.0888 7.88654 28.9944C7.98646 29.9 8.32454 30.7517 8.65885 31.5886" fill="#2F2E41"/>
<path d="M68.9142 60H0.0858209C0.0630598 60 0.0412308 59.9909 0.0251363 59.9748C0.00904175 59.9587 0 59.9368 0 59.914C0 59.8912 0.00904175 59.8693 0.0251363 59.8532C0.0412308 59.8371 0.0630598 59.828 0.0858209 59.828H68.9142C68.9369 59.828 68.9588 59.8371 68.9749 59.8532C68.991 59.8693 69 59.8912 69 59.914C69 59.9368 68.991 59.9587 68.9749 59.9748C68.9588 59.9909 68.9369 60 68.9142 60Z" fill="#E6E6E6"/>
<path d="M67.7531 58.9342C68.015 58.7213 68.2059 58.4334 68.3002 58.1089C68.37 57.7805 68.2304 57.395 67.9183 57.2679C67.5678 57.1323 67.1931 57.3764 66.9095 57.622C66.626 57.8676 66.2997 58.1489 65.9278 58.0961C66.1183 57.9221 66.2605 57.7016 66.3407 57.4561C66.4209 57.2106 66.4362 56.9485 66.3852 56.6954C66.3698 56.5901 66.3254 56.4912 66.2569 56.4098C66.0632 56.2013 65.7098 56.2913 65.4761 56.4555C64.7352 56.9781 64.5286 57.9861 64.5257 58.8942C64.4502 58.5658 64.5129 58.2246 64.5115 57.8947C64.5101 57.5649 64.4174 57.1808 64.1353 57.0066C63.9604 56.9124 63.7639 56.8657 63.5654 56.871C63.232 56.8596 62.8615 56.8924 62.6335 57.1366C62.3485 57.4393 62.424 57.949 62.6706 58.2788C62.9171 58.6087 63.2904 58.8214 63.6338 59.0527C63.9104 59.217 64.1462 59.4421 64.3234 59.7109C64.3444 59.7481 64.3616 59.7873 64.3747 59.828H66.4621C66.9308 59.5899 67.3651 59.2893 67.7531 58.9342Z" fill="#F2F2F2"/>
<path d="M46.0348 25.9891C45.996 25.9889 45.9578 25.979 45.9238 25.9603C45.8898 25.9417 45.8609 25.9148 45.8399 25.8821C45.8188 25.8495 45.8062 25.812 45.8032 25.7733C45.8003 25.7345 45.807 25.6956 45.8228 25.6601L46.0913 25.0597C45.7213 24.7304 45.4856 24.2758 45.4295 23.783C45.3733 23.2903 45.5007 22.7941 45.7871 22.3897C46.0736 21.9852 46.4989 21.701 46.9816 21.5915C47.4643 21.4819 47.9703 21.5548 48.4027 21.7961C48.8351 22.0374 49.1633 22.4302 49.3245 22.8991C49.4857 23.368 49.4685 23.88 49.2762 24.337C49.0839 24.7939 48.73 25.1637 48.2824 25.3753C47.8348 25.5869 47.325 25.6254 46.8507 25.4836L46.1654 25.9485C46.1269 25.9748 46.0814 25.989 46.0348 25.9891ZM47.4204 21.8382C47.0634 21.8379 46.7152 21.949 46.424 22.156C46.1329 22.363 45.9132 22.6556 45.7954 22.9934C45.6776 23.3311 45.6676 23.6971 45.7668 24.0408C45.8659 24.3845 46.0693 24.6887 46.3487 24.9114L46.4333 24.979L46.1444 25.625L46.8074 25.1752L46.8729 25.1972C47.1094 25.2768 47.3603 25.304 47.6084 25.2767C47.8564 25.2495 48.0955 25.1686 48.3092 25.0395C48.5229 24.9105 48.706 24.7364 48.8459 24.5294C48.9858 24.3223 49.079 24.0873 49.1193 23.8406C49.1595 23.5938 49.1457 23.3413 49.0788 23.1004C49.0119 22.8595 48.8936 22.6361 48.732 22.4456C48.5704 22.2552 48.3694 22.1022 48.1429 21.9973C47.9165 21.8924 47.6699 21.8381 47.4204 21.8382Z" fill="#3F3D56"/>
<path d="M47.4204 23.7496C47.5746 23.7496 47.6996 23.6243 47.6996 23.4698C47.6996 23.3154 47.5746 23.1901 47.4204 23.1901C47.2663 23.1901 47.1413 23.3154 47.1413 23.4698C47.1413 23.6243 47.2663 23.7496 47.4204 23.7496Z" fill="#3F3D56"/>
<path d="M46.6296 23.7496C46.7837 23.7496 46.9087 23.6243 46.9087 23.4698C46.9087 23.3154 46.7837 23.1901 46.6296 23.1901C46.4754 23.1901 46.3504 23.3154 46.3504 23.4698C46.3504 23.6243 46.4754 23.7496 46.6296 23.7496Z" fill="#3F3D56"/>
<path d="M48.2113 23.7496C48.3655 23.7496 48.4905 23.6243 48.4905 23.4698C48.4905 23.3154 48.3655 23.1901 48.2113 23.1901C48.0572 23.1901 47.9322 23.3154 47.9322 23.4698C47.9322 23.6243 48.0572 23.7496 48.2113 23.7496Z" fill="#3F3D56"/>
</g>
<defs>
<clipPath id="clip0_10_410">
<rect width="69" height="60" fill="white"/>
</clipPath>
</defs>
</svg>
