<svg width="117" height="54" viewBox="0 0 117 54" fill="none" xmlns="http://www.w3.org/2000/svg">
<g clip-path="url(#clip0_10_110)">
<path d="M24.8124 50.9951C22.011 49.1687 19.9742 45.8856 20.391 42.5665C22.9135 45.1867 26.2811 46.8298 29.8979 47.2051C31.2933 47.3448 32.8598 47.3548 33.8507 48.3475C34.4673 48.9652 34.7293 49.8681 34.7428 50.7409C34.7562 51.6138 34.5466 52.4729 34.3383 53.3207L34.3895 53.5325C31.0481 53.409 27.6138 52.8216 24.8124 50.9951Z" fill="#F0F0F0"/>
<path d="M20.4612 42.5657C21.5091 45.1285 23.3375 47.2958 25.6867 48.7598C26.1869 49.0839 26.735 49.3271 27.3108 49.4805C27.8766 49.6118 28.4672 49.5891 29.0212 49.4148C29.5411 49.2627 30.0553 49.0469 30.603 49.0238C30.8836 49.0162 31.1626 49.068 31.4218 49.1758C31.6809 49.2836 31.9144 49.445 32.1068 49.6494C32.5996 50.1462 32.8845 50.7906 33.1412 51.4304C33.4263 52.1407 33.7111 52.8831 34.2917 53.4092C34.362 53.473 34.259 53.5785 34.1888 53.5148C33.1787 52.5994 33.0675 51.1307 32.2736 50.0687C31.9031 49.5732 31.3811 49.1864 30.743 49.17C30.1849 49.1557 29.6546 49.3778 29.1295 49.5364C28.5915 49.7144 28.0181 49.7578 27.4595 49.663C26.8777 49.5394 26.3211 49.3177 25.8137 49.0073C24.6601 48.3268 23.6207 47.4691 22.7335 46.4655C21.7145 45.3258 20.8979 44.0201 20.3191 42.6049C20.2833 42.5173 20.4256 42.4787 20.4612 42.5657Z" fill="white"/>
<path d="M24.9026 48.3329C24.6036 48.6939 24.186 48.9368 23.7245 49.0182C23.263 49.0996 22.7876 49.0143 22.3832 48.7774C22.3016 48.7292 22.3726 48.6 22.4544 48.6482C22.8306 48.8695 23.2734 48.949 23.703 48.8723C24.1326 48.7956 24.5206 48.5678 24.7971 48.23C24.8572 48.1566 24.9624 48.26 24.9026 48.3329Z" fill="white"/>
<path d="M28.7678 49.5267C28.687 48.5717 28.2494 47.6823 27.5423 47.0358C27.4721 46.9718 27.5751 46.8664 27.6451 46.9303C28.3798 47.6044 28.8333 48.5309 28.9152 49.5248C28.9229 49.6196 28.7755 49.6209 28.7678 49.5267Z" fill="white"/>
<path d="M21.8999 45.2641C22.0447 45.1486 22.1585 44.9989 22.2312 44.8284C22.3039 44.658 22.3331 44.4722 22.3162 44.2876C22.3073 44.193 22.4547 44.1918 22.4635 44.2858C22.4812 44.4897 22.4487 44.6949 22.3689 44.8834C22.289 45.0719 22.1642 45.2379 22.0054 45.3671C21.9915 45.3805 21.973 45.3881 21.9536 45.3883C21.9342 45.3886 21.9155 45.3815 21.9012 45.3684C21.8873 45.3547 21.8794 45.336 21.8792 45.3165C21.8789 45.297 21.8864 45.2782 21.8999 45.2641Z" fill="white"/>
<path d="M29.9467 36.4925C29.954 36.5514 29.9613 36.6103 29.9696 36.6698C30.0713 37.4613 30.2371 38.2433 30.4654 39.0079C30.4821 39.0673 30.4999 39.1272 30.5183 39.186C31.0879 41.0223 31.9933 42.7368 33.1885 44.2424C33.6646 44.8411 34.1856 45.4027 34.7469 45.9223C35.5221 46.6399 36.4198 47.3562 36.8987 48.2614C36.9497 48.3553 36.9949 48.4522 37.0339 48.5517L34.6439 53.4536C34.6328 53.462 34.6229 53.471 34.6119 53.4795L34.5254 53.6796C34.4946 53.6548 34.4631 53.6284 34.4323 53.6036C34.4144 53.5893 34.397 53.574 34.379 53.5597C34.3672 53.5498 34.3555 53.5398 34.3443 53.5316C34.3403 53.5283 34.3364 53.525 34.3336 53.5223C34.3224 53.514 34.3129 53.5052 34.3028 53.4975C34.1267 53.3506 33.9513 53.2023 33.7766 53.0525C33.7755 53.0519 33.7755 53.0519 33.7749 53.0503C32.447 51.9052 31.203 50.6391 30.1907 49.2244C30.1602 49.1818 30.1286 49.1387 30.0993 49.0939C29.6465 48.4537 29.2467 47.7775 28.9041 47.0721C28.7177 46.6853 28.5509 46.2892 28.4046 45.8855C28.0284 44.8416 27.8186 43.7451 27.7831 42.636C27.7124 40.4251 28.3494 38.2162 29.8323 36.6138C29.8702 36.5729 29.9077 36.5329 29.9467 36.4925Z" fill="#F0F0F0"/>
<path d="M30.0036 36.5339C29.298 39.2113 29.4536 42.0431 30.4483 44.627C30.6526 45.1871 30.9438 45.7114 31.3113 46.1808C31.684 46.6264 32.1692 46.964 32.7165 47.1586C33.2231 47.3503 33.7636 47.4876 34.2148 47.7992C34.4434 47.9621 34.635 48.1715 34.7771 48.4136C34.9191 48.6558 35.0084 48.9253 35.039 49.2044C35.1335 49.8979 34.9732 50.584 34.7931 51.2495C34.5932 51.9884 34.3739 52.7527 34.5208 53.5225C34.5386 53.6158 34.3929 53.6379 34.3751 53.5448C34.1196 52.2055 34.9146 50.9659 34.9198 49.6397C34.9222 49.0209 34.7382 48.3976 34.2386 48.0002C33.8016 47.6526 33.2444 47.5105 32.7298 47.3209C32.1931 47.1389 31.7092 46.8282 31.3202 46.416C30.93 45.9669 30.6191 45.4547 30.4007 44.9012C29.8892 43.663 29.5754 42.3521 29.4709 41.0164C29.3432 39.4926 29.477 37.9582 29.8665 36.4796C29.8907 36.3881 30.0275 36.443 30.0036 36.5339Z" fill="white"/>
<path d="M30.0791 43.8139C29.6231 43.922 29.1435 43.8644 28.7261 43.6515C28.3086 43.4385 27.9804 43.084 27.8 42.6513C27.7638 42.5636 27.8983 42.5032 27.9346 42.591C28.1018 42.9943 28.4075 43.3245 28.7967 43.522C29.1858 43.7195 29.6328 43.7713 30.0568 43.6681C30.1489 43.6458 30.1707 43.7917 30.0791 43.8139Z" fill="white"/>
<path d="M32.4468 47.0953C32.957 46.2841 33.1429 45.3104 32.9673 44.3682C32.9498 44.2749 33.0955 44.2527 33.113 44.3459C33.2938 45.3267 33.0984 46.3396 32.5656 47.1825C32.5148 47.2628 32.3963 47.1751 32.4468 47.0953Z" fill="white"/>
<path d="M29.5284 39.555C29.7136 39.55 29.8946 39.499 30.0551 39.4067C30.2157 39.3144 30.3509 39.1836 30.4485 39.0261C30.4982 38.9452 30.6167 39.033 30.5672 39.1134C30.4586 39.2869 30.3092 39.4311 30.132 39.5335C29.9548 39.6359 29.7552 39.6933 29.5507 39.7008C29.5315 39.7031 29.5121 39.698 29.4965 39.6865C29.4809 39.6751 29.4703 39.6581 29.4667 39.6391C29.4639 39.6198 29.4688 39.6001 29.4803 39.5844C29.4919 39.5686 29.5091 39.5581 29.5284 39.555Z" fill="white"/>
<path d="M110.304 50.9951C113.105 49.1687 115.142 45.8856 114.725 42.5665C112.203 45.1867 108.835 46.8298 105.218 47.2051C103.823 47.3448 102.256 47.3548 101.265 48.3475C100.649 48.9652 100.387 49.8681 100.373 50.7409C100.36 51.6138 100.57 52.4729 100.778 53.3207L100.727 53.5325C104.068 53.409 107.502 52.8216 110.304 50.9951Z" fill="#F0F0F0"/>
<path d="M114.655 42.5657C113.607 45.1285 111.779 47.2958 109.429 48.7598C108.929 49.0839 108.381 49.3271 107.805 49.4805C107.24 49.6118 106.649 49.5891 106.095 49.4148C105.575 49.2627 105.061 49.0469 104.513 49.0238C104.233 49.0162 103.954 49.068 103.694 49.1758C103.435 49.2836 103.202 49.445 103.009 49.6494C102.517 50.1462 102.232 50.7906 101.975 51.4304C101.69 52.1407 101.405 52.8831 100.825 53.4092C100.754 53.473 100.857 53.5785 100.927 53.5148C101.937 52.5994 102.049 51.1307 102.843 50.0687C103.213 49.5732 103.735 49.1864 104.373 49.17C104.931 49.1557 105.462 49.3778 105.987 49.5364C106.525 49.7144 107.098 49.7578 107.657 49.663C108.239 49.5394 108.795 49.3177 109.303 49.0073C110.456 48.3268 111.496 47.4691 112.383 46.4655C113.402 45.3258 114.218 44.0201 114.797 42.6049C114.833 42.5173 114.691 42.4787 114.655 42.5657Z" fill="white"/>
<path d="M110.214 48.3329C110.513 48.6939 110.93 48.9368 111.392 49.0182C111.853 49.0996 112.329 49.0143 112.733 48.7774C112.815 48.7292 112.744 48.6 112.662 48.6482C112.286 48.8695 111.843 48.949 111.413 48.8723C110.984 48.7956 110.596 48.5678 110.319 48.23C110.259 48.1566 110.154 48.26 110.214 48.3329Z" fill="white"/>
<path d="M106.348 49.5267C106.429 48.5717 106.867 47.6823 107.574 47.0358C107.644 46.9718 107.541 46.8664 107.471 46.9303C106.736 47.6044 106.283 48.5309 106.201 49.5248C106.193 49.6196 106.341 49.6209 106.348 49.5267Z" fill="white"/>
<path d="M113.216 45.2641C113.072 45.1486 112.958 44.9989 112.885 44.8284C112.812 44.658 112.783 44.4722 112.8 44.2876C112.809 44.193 112.662 44.1918 112.653 44.2858C112.635 44.4897 112.667 44.6949 112.747 44.8834C112.827 45.0719 112.952 45.2379 113.111 45.3671C113.125 45.3805 113.143 45.3881 113.163 45.3883C113.182 45.3886 113.201 45.3815 113.215 45.3684C113.229 45.3547 113.237 45.336 113.237 45.3165C113.237 45.297 113.23 45.2782 113.216 45.2641Z" fill="white"/>
<path d="M105.169 36.4925C105.162 36.5514 105.155 36.6103 105.147 36.6698C105.045 37.4613 104.879 38.2433 104.651 39.0079C104.634 39.0673 104.616 39.1272 104.598 39.186C104.028 41.0223 103.123 42.7368 101.928 44.2424C101.452 44.8411 100.931 45.4027 100.369 45.9223C99.5941 46.6399 98.6965 47.3562 98.2175 48.2614C98.1665 48.3553 98.1213 48.4522 98.0823 48.5517L100.472 53.4536C100.483 53.462 100.493 53.471 100.504 53.4795L100.591 53.6795C100.622 53.6548 100.653 53.6284 100.684 53.6036C100.702 53.5893 100.719 53.574 100.737 53.5597C100.749 53.5498 100.761 53.5398 100.772 53.5316C100.776 53.5283 100.78 53.525 100.783 53.5223C100.794 53.514 100.803 53.5052 100.813 53.4975C100.99 53.3506 101.165 53.2023 101.34 53.0525C101.341 53.0519 101.341 53.0519 101.341 53.0503C102.669 51.9052 103.913 50.6391 104.926 49.2243C104.956 49.1818 104.988 49.1387 105.017 49.0939C105.47 48.4537 105.869 47.7775 106.212 47.0721C106.399 46.6852 106.565 46.2892 106.712 45.8855C107.088 44.8416 107.298 43.7451 107.333 42.636C107.404 40.4251 106.767 38.2162 105.284 36.6138C105.246 36.5729 105.209 36.5329 105.169 36.4925Z" fill="#F0F0F0"/>
<path d="M105.113 36.5339C105.818 39.2113 105.663 42.0431 104.668 44.627C104.464 45.1871 104.172 45.7114 103.805 46.1808C103.432 46.6264 102.947 46.964 102.4 47.1586C101.893 47.3503 101.353 47.4876 100.901 47.7992C100.673 47.9621 100.481 48.1715 100.339 48.4136C100.197 48.6558 100.108 48.9253 100.077 49.2044C99.9828 49.8979 100.143 50.584 100.323 51.2495C100.523 51.9884 100.742 52.7527 100.595 53.5225C100.578 53.6158 100.723 53.6379 100.741 53.5448C100.997 52.2055 100.202 50.9659 100.196 49.6397C100.194 49.0209 100.378 48.3976 100.878 48.0002C101.315 47.6526 101.872 47.5105 102.386 47.3209C102.923 47.1389 103.407 46.8282 103.796 46.416C104.186 45.9669 104.497 45.4547 104.716 44.9012C105.227 43.663 105.541 42.3521 105.645 41.0164C105.773 39.4926 105.639 37.9582 105.25 36.4796C105.226 36.3881 105.089 36.443 105.113 36.5339Z" fill="white"/>
<path d="M105.037 43.8139C105.493 43.922 105.973 43.8644 106.39 43.6515C106.808 43.4385 107.136 43.084 107.316 42.6513C107.352 42.5636 107.218 42.5032 107.182 42.591C107.014 42.9943 106.709 43.3245 106.32 43.522C105.93 43.7195 105.483 43.7713 105.059 43.6681C104.967 43.6458 104.945 43.7917 105.037 43.8139Z" fill="white"/>
<path d="M102.669 47.0953C102.159 46.2841 101.973 45.3104 102.149 44.3682C102.166 44.2749 102.021 44.2527 102.003 44.3459C101.822 45.3267 102.018 46.3396 102.551 47.1825C102.601 47.2628 102.72 47.1751 102.669 47.0953Z" fill="white"/>
<path d="M105.588 39.555C105.403 39.55 105.222 39.499 105.061 39.4067C104.9 39.3144 104.765 39.1836 104.668 39.0261C104.618 38.9452 104.5 39.033 104.549 39.1134C104.658 39.2869 104.807 39.4311 104.984 39.5335C105.161 39.6359 105.361 39.6933 105.565 39.7008C105.585 39.7031 105.604 39.698 105.62 39.6865C105.635 39.6751 105.646 39.6581 105.649 39.6391C105.652 39.6198 105.647 39.6001 105.636 39.5844C105.624 39.5686 105.607 39.5581 105.588 39.555Z" fill="white"/>
<path d="M30.33 34.8884C30.224 34.8246 30.1333 34.7383 30.0642 34.6356C29.9952 34.5329 29.9495 34.4163 29.9303 34.2941C29.9112 34.1718 29.9191 34.0468 29.9534 33.9279C29.9878 33.809 30.0478 33.6991 30.1292 33.606L28.6391 30.993L30.1984 31.0937L31.3744 33.5596C31.5218 33.7069 31.6101 33.903 31.6226 34.111C31.6351 34.319 31.5709 34.5244 31.4421 34.6882C31.3134 34.852 31.1291 34.9628 30.9241 34.9997C30.7191 35.0366 30.5077 34.997 30.33 34.8884Z" fill="#FFB6B6"/>
<path d="M18.8587 52.7016H19.8904L20.3812 48.7206L18.8586 48.7207L18.8587 52.7016Z" fill="#FFB6B6"/>
<path d="M18.5956 52.3647L20.6273 52.3646C20.9706 52.3646 21.3 52.5011 21.5428 52.744C21.7856 52.9869 21.9221 53.3164 21.9221 53.6599V53.702L18.5956 53.7022L18.5956 52.3647Z" fill="#2F2E41"/>
<path d="M25.9272 52.7016H26.9588L27.4496 48.7206L25.927 48.7207L25.9272 52.7016Z" fill="#FFB6B6"/>
<path d="M25.664 52.3647L27.6957 52.3646C28.0391 52.3646 28.3685 52.5011 28.6113 52.744C28.8541 52.9869 28.9905 53.3164 28.9906 53.6599V53.702L25.6641 53.7022L25.664 52.3647Z" fill="#2F2E41"/>
<path d="M28.58 31.1052C28.58 31.1052 28.8637 35.148 28.3049 37.184C27.746 39.22 27.6462 51.5328 27.6462 51.5328H25.7729L24.1493 34.7725L20.4062 51.5919L18.6219 51.4691L19.6004 31.6498L28.58 31.1052Z" fill="#2F2E41"/>
<path d="M20.3745 17.4773L21.8066 16.4318L24.2063 16.9546L24.8559 18.4987L25.9752 19.0539C26.3432 19.2365 26.6614 19.5057 26.9025 19.8385C27.1436 20.1713 27.3003 20.5576 27.3591 20.9643L28.9582 32.0117L19.6004 31.6498L18.4675 18.6394C18.4557 18.5035 18.4712 18.3666 18.5132 18.2368C18.5552 18.107 18.6228 17.9869 18.712 17.8837C18.8012 17.7806 18.9101 17.6963 19.0325 17.636C19.1548 17.5757 19.2879 17.5405 19.424 17.5326L20.3745 17.4773Z" fill="#3F3D56"/>
<path d="M26.5673 19.9169L27.4316 21.0825L31.1961 32.5693L29.4315 33.2761L26.606 27.9235L26.5673 19.9169Z" fill="#3F3D56"/>
<path d="M23.4343 15.886C24.5886 15.886 25.5244 14.9498 25.5244 13.795C25.5244 12.6401 24.5886 11.7039 23.4343 11.7039C22.28 11.7039 21.3443 12.6401 21.3443 13.795C21.3443 14.9498 22.28 15.886 23.4343 15.886Z" fill="#FFB9B9"/>
<path opacity="0.1" d="M18.878 22.3979L22.2887 27.1438L26.1011 29.631L18.878 22.3979Z" fill="black"/>
<path d="M22.3267 15.3066C22.1813 15.0162 22.0317 14.7001 22.0873 14.3801C22.1429 14.0601 22.5099 13.7813 22.7932 13.94C22.9107 13.515 23.431 13.3291 23.869 13.3781C24.307 13.4272 24.7102 13.6385 25.1415 13.7293C25.5728 13.82 26.0965 13.748 26.3296 13.3738L25.7719 13.3642L26.3527 12.6902L25.6795 12.6398C25.9126 12.3881 25.8507 11.9603 25.625 11.7018C25.3992 11.4433 25.0566 11.321 24.7224 11.2437C24.0551 11.0898 23.3634 11.0739 22.6897 11.197C22.3721 11.2459 22.066 11.3525 21.7866 11.5114C21.5235 11.6719 21.3061 11.8975 21.1553 12.1664C20.9926 12.4697 20.9047 12.8076 20.8988 13.1518C20.8889 13.6129 20.9948 14.0691 21.2068 14.4787C21.4188 14.8882 21.7302 15.2379 22.1124 15.4958" fill="#2F2E41"/>
<path d="M100.146 53.7558H35.2843C34.6163 53.7551 33.9759 53.4893 33.5036 53.0168C33.0313 52.5442 32.7656 51.9036 32.7648 51.2353V2.52053C32.7656 1.85227 33.0313 1.2116 33.5036 0.739071C33.9759 0.266543 34.6163 0.000750235 35.2843 0H100.146C100.814 0.000762098 101.455 0.266561 101.927 0.739088C102.399 1.21161 102.665 1.85228 102.666 2.52053V51.2353C102.665 51.9036 102.399 52.5442 101.927 53.0167C101.455 53.4893 100.814 53.7551 100.146 53.7558Z" fill="#E4E4E4"/>
<path d="M83.8219 22.3671H73.8093C73.3145 22.3671 72.84 22.1705 72.4901 21.8205C72.1402 21.4704 71.9437 20.9956 71.9437 20.5006C71.9437 20.0056 72.1402 19.5308 72.4901 19.1808C72.84 18.8307 73.3145 18.6341 73.8093 18.6341H83.8219C84.3167 18.6341 84.7912 18.8307 85.1411 19.1808C85.491 19.5308 85.6875 20.0056 85.6875 20.5006C85.6875 20.9956 85.491 21.4704 85.1411 21.8205C84.7912 22.1705 84.3167 22.3671 83.8219 22.3671Z" fill="white"/>
<path d="M75.0531 27.469H72.6899C72.5085 27.469 72.3345 27.3969 72.2062 27.2685C72.0779 27.1402 72.0059 26.9661 72.0059 26.7846C72.0059 26.6031 72.0779 26.429 72.2062 26.3006C72.3345 26.1723 72.5085 26.1002 72.6899 26.1002H75.0531C75.2346 26.1002 75.4086 26.1723 75.5369 26.3006C75.6651 26.429 75.7372 26.6031 75.7372 26.7846C75.7372 26.9661 75.6651 27.1402 75.5369 27.2685C75.4086 27.3969 75.2346 27.469 75.0531 27.469Z" fill="white"/>
<path d="M84.8791 27.469H82.5159C82.3344 27.469 82.1604 27.3969 82.0321 27.2685C81.9039 27.1402 81.8318 26.9661 81.8318 26.7846C81.8318 26.6031 81.9039 26.429 82.0321 26.3006C82.1604 26.1723 82.3344 26.1002 82.5159 26.1002H84.8791C85.0605 26.1002 85.2345 26.1723 85.3628 26.3006C85.4911 26.429 85.5631 26.6031 85.5631 26.7846C85.5631 26.9661 85.4911 27.1402 85.3628 27.2685C85.2345 27.3969 85.0605 27.469 84.8791 27.469Z" fill="white"/>
<path d="M79.9039 27.469H77.5407C77.3593 27.469 77.1853 27.3969 77.057 27.2685C76.9287 27.1402 76.8566 26.9661 76.8566 26.7846C76.8566 26.6031 76.9287 26.429 77.057 26.3006C77.1853 26.1723 77.3593 26.1002 77.5407 26.1002H79.9039C80.0853 26.1002 80.2593 26.1723 80.3876 26.3006C80.5159 26.429 80.588 26.6031 80.588 26.7846C80.588 26.9661 80.5159 27.1402 80.3876 27.2685C80.2593 27.3969 80.0853 27.469 79.9039 27.469Z" fill="white"/>
<path d="M75.0531 30.0821H72.6899C72.5085 30.0821 72.3345 30.01 72.2062 29.8816C72.0779 29.7533 72.0059 29.5792 72.0059 29.3977C72.0059 29.2162 72.0779 29.0421 72.2062 28.9138C72.3345 28.7854 72.5085 28.7133 72.6899 28.7133H75.0531C75.2346 28.7133 75.4086 28.7854 75.5369 28.9138C75.6651 29.0421 75.7372 29.2162 75.7372 29.3977C75.7372 29.5792 75.6651 29.7533 75.5369 29.8816C75.4086 30.01 75.2346 30.0821 75.0531 30.0821Z" fill="white"/>
<path d="M84.8791 30.0821H82.5159C82.3344 30.0821 82.1604 30.01 82.0321 29.8816C81.9039 29.7533 81.8318 29.5792 81.8318 29.3977C81.8318 29.2162 81.9039 29.0421 82.0321 28.9138C82.1604 28.7854 82.3344 28.7133 82.5159 28.7133H84.8791C85.0605 28.7133 85.2345 28.7854 85.3628 28.9138C85.4911 29.0421 85.5631 29.2162 85.5631 29.3977C85.5631 29.5792 85.4911 29.7533 85.3628 29.8816C85.2345 30.01 85.0605 30.0821 84.8791 30.0821Z" fill="white"/>
<path d="M79.9039 30.0821H77.5407C77.3593 30.0821 77.1853 30.01 77.057 29.8816C76.9287 29.7533 76.8566 29.5792 76.8566 29.3977C76.8566 29.2162 76.9287 29.0421 77.057 28.9138C77.1853 28.7854 77.3593 28.7133 77.5407 28.7133H79.9039C80.0853 28.7133 80.2593 28.7854 80.3876 28.9138C80.5159 29.0421 80.588 29.2162 80.588 29.3977C80.588 29.5792 80.5159 29.7533 80.3876 29.8816C80.2593 30.01 80.0853 30.0821 79.9039 30.0821Z" fill="white"/>
<path d="M75.0531 32.6952H72.6899C72.5085 32.6952 72.3345 32.6231 72.2062 32.4948C72.0779 32.3664 72.0059 32.1923 72.0059 32.0108C72.0059 31.8293 72.0779 31.6553 72.2062 31.5269C72.3345 31.3986 72.5085 31.3264 72.6899 31.3264H75.0531C75.2346 31.3264 75.4086 31.3986 75.5369 31.5269C75.6651 31.6553 75.7372 31.8293 75.7372 32.0108C75.7372 32.1923 75.6651 32.3664 75.5369 32.4948C75.4086 32.6231 75.2346 32.6952 75.0531 32.6952Z" fill="white"/>
<path d="M84.8791 32.6952H82.5159C82.3344 32.6952 82.1604 32.6231 82.0321 32.4948C81.9039 32.3664 81.8318 32.1923 81.8318 32.0108C81.8318 31.8293 81.9039 31.6553 82.0321 31.5269C82.1604 31.3986 82.3344 31.3264 82.5159 31.3264H84.8791C85.0605 31.3264 85.2345 31.3986 85.3628 31.5269C85.4911 31.6553 85.5631 31.8293 85.5631 32.0108C85.5631 32.1923 85.4911 32.3664 85.3628 32.4948C85.2345 32.6231 85.0605 32.6952 84.8791 32.6952Z" fill="white"/>
<path d="M79.9039 32.6952H77.5407C77.3593 32.6952 77.1853 32.6231 77.057 32.4948C76.9287 32.3664 76.8566 32.1923 76.8566 32.0108C76.8566 31.8293 76.9287 31.6553 77.057 31.5269C77.1853 31.3986 77.3593 31.3264 77.5407 31.3264H79.9039C80.0853 31.3264 80.2593 31.3986 80.3876 31.5269C80.5159 31.6553 80.588 31.8293 80.588 32.0108C80.588 32.1923 80.5159 32.3664 80.3876 32.4948C80.2593 32.6231 80.0853 32.6952 79.9039 32.6952Z" fill="white"/>
<path d="M75.0531 35.3084H72.6899C72.5085 35.3084 72.3345 35.2363 72.2062 35.1079C72.0779 34.9796 72.0059 34.8055 72.0059 34.624C72.0059 34.4425 72.0779 34.2684 72.2062 34.14C72.3345 34.0117 72.5085 33.9396 72.6899 33.9396H75.0531C75.2346 33.9396 75.4086 34.0117 75.5369 34.14C75.6651 34.2684 75.7372 34.4425 75.7372 34.624C75.7372 34.8055 75.6651 34.9796 75.5369 35.1079C75.4086 35.2363 75.2346 35.3084 75.0531 35.3084Z" fill="white"/>
<path d="M84.8791 35.3084H82.5159C82.3344 35.3084 82.1604 35.2363 82.0321 35.1079C81.9039 34.9796 81.8318 34.8055 81.8318 34.624C81.8318 34.4425 81.9039 34.2684 82.0321 34.14C82.1604 34.0117 82.3344 33.9396 82.5159 33.9396H84.8791C85.0605 33.9396 85.2345 34.0117 85.3628 34.14C85.4911 34.2684 85.5631 34.4425 85.5631 34.624C85.5631 34.8055 85.4911 34.9796 85.3628 35.1079C85.2345 35.2363 85.0605 35.3084 84.8791 35.3084Z" fill="white"/>
<path d="M79.9039 35.3084H77.5407C77.3593 35.3084 77.1853 35.2363 77.057 35.1079C76.9287 34.9796 76.8566 34.8055 76.8566 34.624C76.8566 34.4425 76.9287 34.2684 77.057 34.14C77.1853 34.0117 77.3593 33.9396 77.5407 33.9396H79.9039C80.0853 33.9396 80.2593 34.0117 80.3876 34.14C80.5159 34.2684 80.588 34.4425 80.588 34.624C80.588 34.8055 80.5159 34.9796 80.3876 35.1079C80.2593 35.2363 80.0853 35.3084 79.9039 35.3084Z" fill="white"/>
<path d="M59.0705 32.5708C62.5738 32.5708 65.4138 29.7295 65.4138 26.2246C65.4138 22.7197 62.5738 19.8784 59.0705 19.8784C55.5672 19.8784 52.7272 22.7197 52.7272 26.2246C52.7272 29.7295 55.5672 32.5708 59.0705 32.5708Z" fill="#CACACA"/>
<path d="M59.0705 34.0018C58.5758 34.0012 58.1016 33.8044 57.7519 33.4545C57.4021 33.1046 57.2054 32.6301 57.2048 32.1353V20.314C57.2046 20.0687 57.2527 19.8258 57.3464 19.5992C57.4401 19.3726 57.5774 19.1666 57.7507 18.9932C57.924 18.8197 58.1297 18.682 58.3562 18.5881C58.5826 18.4943 58.8253 18.4459 59.0705 18.4459C59.3156 18.4459 59.5583 18.4943 59.7848 18.5881C60.0112 18.682 60.217 18.8197 60.3902 18.9932C60.5635 19.1666 60.7009 19.3726 60.7946 19.5992C60.8882 19.8258 60.9364 20.0687 60.9362 20.314V32.1353C60.9356 32.6301 60.7389 33.1046 60.3891 33.4545C60.0393 33.8044 59.5651 34.0012 59.0705 34.0018Z" fill="white"/>
<path d="M75.6422 21.5657H73.9009C73.835 21.5657 73.7717 21.5395 73.725 21.4928C73.6784 21.4461 73.6522 21.3828 73.6522 21.3168C73.6522 21.2508 73.6784 21.1875 73.725 21.1408C73.7717 21.0942 73.835 21.0679 73.9009 21.0679H75.6422C75.7082 21.0679 75.7715 21.0942 75.8181 21.1408C75.8648 21.1875 75.891 21.2508 75.891 21.3168C75.891 21.3828 75.8648 21.4461 75.8181 21.4928C75.7715 21.5395 75.7082 21.5657 75.6422 21.5657Z" fill="#E4E4E4"/>
<path d="M78.3786 21.6279H76.6373C76.5713 21.6279 76.508 21.6016 76.4614 21.555C76.4147 21.5083 76.3885 21.445 76.3885 21.379C76.3885 21.313 76.4147 21.2497 76.4614 21.203C76.508 21.1563 76.5713 21.1301 76.6373 21.1301H78.3786C78.4445 21.1301 78.5078 21.1563 78.5545 21.203C78.6011 21.2497 78.6273 21.313 78.6273 21.379C78.6273 21.445 78.6011 21.5083 78.5545 21.555C78.5078 21.6016 78.4445 21.6279 78.3786 21.6279Z" fill="#E4E4E4"/>
<path d="M81.1149 21.6901H79.3736C79.3076 21.6901 79.2443 21.6639 79.1977 21.6172C79.151 21.5705 79.1248 21.5072 79.1248 21.4412C79.1248 21.3752 79.151 21.3119 79.1977 21.2652C79.2443 21.2186 79.3076 21.1924 79.3736 21.1924H81.1149C81.1809 21.1924 81.2441 21.2186 81.2908 21.2652C81.3374 21.3119 81.3637 21.3752 81.3637 21.4412C81.3637 21.5072 81.3374 21.5705 81.2908 21.6172C81.2441 21.6639 81.1809 21.6901 81.1149 21.6901Z" fill="#E4E4E4"/>
<path d="M83.8512 21.7523H82.1099C82.044 21.7523 81.9807 21.7261 81.934 21.6794C81.8874 21.6328 81.8612 21.5695 81.8612 21.5034C81.8612 21.4374 81.8874 21.3741 81.934 21.3275C81.9807 21.2808 82.044 21.2546 82.1099 21.2546H83.8512C83.9172 21.2546 83.9805 21.2808 84.0271 21.3275C84.0738 21.3741 84.1 21.4374 84.1 21.5034C84.1 21.5695 84.0738 21.6328 84.0271 21.6794C83.9805 21.7261 83.9172 21.7523 83.8512 21.7523Z" fill="#E4E4E4"/>
<path d="M41.0356 46.0718C41.0354 46.38 41.0965 46.6851 41.2152 46.9694C41.3339 47.2537 41.5079 47.5116 41.7271 47.7281H40.6996C40.3965 47.7281 40.0963 47.6683 39.8163 47.5523C39.5362 47.4362 39.2817 47.2661 39.0674 47.0517C38.853 46.8372 38.683 46.5826 38.567 46.3024C38.451 46.0223 38.3913 45.722 38.3913 45.4187V7.97849C38.3913 7.67522 38.451 7.37491 38.567 7.09473C38.683 6.81454 38.853 6.55995 39.0674 6.3455C39.2817 6.13106 39.5362 5.96095 39.8163 5.84489C40.0963 5.72883 40.3965 5.6691 40.6996 5.6691H42.1948C41.8422 5.87427 41.5495 6.16842 41.3461 6.52216C41.1427 6.87589 41.0356 7.27684 41.0356 7.68494L41.0356 46.0718Z" fill="#CACACA"/>
<path d="M116.852 54H0.148095C0.108892 53.9999 0.0713338 53.9842 0.0436531 53.9565C0.0159724 53.9287 0.000427246 53.8911 0.000427246 53.8518C0.000427246 53.8126 0.0159724 53.775 0.0436531 53.7472C0.0713338 53.7194 0.108892 53.7038 0.148095 53.7037H116.852C116.891 53.7037 116.929 53.7193 116.957 53.7471C116.984 53.7749 117 53.8125 117 53.8518C117 53.8911 116.984 53.9288 116.957 53.9566C116.929 53.9844 116.891 54 116.852 54Z" fill="#CACACA"/>
<path d="M40.7868 16.6094C40.0007 16.3892 39.2118 16.1851 38.4199 15.9972C35.712 15.3505 32.9667 14.8718 30.1997 14.5637C29.7307 14.4401 29.2319 14.5069 28.8119 14.7496C28.3919 14.9922 28.0847 15.3909 27.9571 15.8591L26.5753 20.9609C26.4484 21.4312 26.5133 21.9326 26.7556 22.3551C26.9978 22.7776 27.3978 23.0866 27.8676 23.2144L27.8863 23.2182C29.7147 23.426 31.5604 23.7147 33.3962 24.083C33.5604 24.1153 33.7234 24.1489 33.8875 24.1838C34.4759 24.3057 35.0625 24.436 35.6475 24.5745C35.9037 24.6342 36.1587 24.6964 36.4149 24.7599C37.104 24.9316 37.7934 25.1145 38.4834 25.3087C39.2508 25.5252 40.0186 25.7562 40.7868 26.0018C40.8702 26.0267 40.9535 26.0528 41.0356 26.0802V16.6804C40.9535 16.6555 40.8702 16.6318 40.7868 16.6094Z" fill="white"/>
<path d="M40.7868 16.6094C40.0007 16.3892 39.2118 16.1851 38.4199 15.9972C35.712 15.3505 32.9667 14.8718 30.1997 14.5637C29.7307 14.4401 29.2319 14.5069 28.8119 14.7496C28.3919 14.9922 28.0847 15.3909 27.9571 15.8591L26.5753 20.9609C26.4484 21.4312 26.5133 21.9326 26.7556 22.3551C26.9978 22.7776 27.3978 23.0866 27.8676 23.2144L27.8863 23.2182C29.7147 23.426 31.5604 23.7147 33.3962 24.083C33.5604 24.1153 33.7234 24.1489 33.8875 24.1838C34.4759 24.3057 35.0625 24.436 35.6475 24.5745C35.9037 24.6342 36.1587 24.6964 36.4149 24.7599C37.104 24.9316 37.7934 25.1145 38.4834 25.3087C39.2508 25.5252 40.0186 25.7562 40.7868 26.0018C40.8702 26.0267 40.9535 26.0528 41.0356 26.0802V25.8176C40.9522 25.7915 40.8689 25.7653 40.7868 25.7392C40.0804 25.514 39.3747 25.302 38.6699 25.1033C38.4062 25.0274 38.1425 24.954 37.8788 24.8831C37.4037 24.7549 36.9299 24.6321 36.4572 24.5148C36.206 24.4513 35.9551 24.3903 35.7047 24.3318C35.6861 24.3269 35.6661 24.3231 35.6475 24.3182C35.2208 24.2174 34.7934 24.1211 34.3651 24.0295C34.201 23.9946 34.0368 23.9598 33.8726 23.9262C31.8925 23.5156 29.8974 23.1958 27.9235 22.9718C27.5198 22.8593 27.1768 22.5918 26.9693 22.2275C26.7617 21.8633 26.7064 21.4317 26.8154 21.0269L28.1972 15.9238C28.3077 15.5177 28.5748 15.1722 28.9397 14.9629C29.3046 14.7536 29.7377 14.6978 30.1437 14.8076L30.1624 14.8101C32.8942 15.1136 35.6049 15.584 38.2793 16.2187C38.3067 16.2262 38.3341 16.2324 38.3614 16.2386C39.1724 16.4327 39.9809 16.6426 40.7868 16.8682C40.8689 16.8906 40.9522 16.9143 41.0355 16.9392V16.6803C40.9535 16.6555 40.8702 16.6318 40.7868 16.6094Z" fill="#536DFE"/>
<path d="M41.0356 16.8098V25.9482C40.9522 25.9209 40.8702 25.8947 40.7868 25.8686C40.0518 25.6334 39.3142 25.4119 38.5742 25.2041C37.8639 25.0025 37.1512 24.813 36.4361 24.6355C36.1824 24.5732 35.9298 24.5123 35.6761 24.4525C35.6661 24.4077 35.6562 24.3629 35.6475 24.3182C35.6015 24.1041 35.5654 23.8876 35.538 23.6698C35.5256 23.5865 35.5169 23.5031 35.5082 23.4185C35.3773 22.0854 35.5597 20.7401 36.0409 19.49C36.522 18.2399 37.2886 17.1197 38.2794 16.2187C38.3154 16.1838 38.3527 16.1502 38.3901 16.1179C39.1936 16.3095 39.9925 16.5169 40.7868 16.7401C40.8702 16.7612 40.9535 16.7849 41.0356 16.8098Z" fill="#536DFE"/>
<path d="M32.7756 20.5515L29.3166 20.1434C29.1949 20.129 29.0716 20.1387 28.9537 20.172C28.8358 20.2053 28.7256 20.2616 28.6294 20.3375C28.5331 20.4134 28.4528 20.5075 28.393 20.6145C28.3331 20.7215 28.2949 20.8392 28.2806 20.9609C28.2662 21.0827 28.2759 21.206 28.3092 21.324C28.3425 21.442 28.3987 21.5523 28.4746 21.6485C28.5505 21.7448 28.6446 21.8251 28.7515 21.885C28.8584 21.9449 28.9761 21.9831 29.0977 21.9975L32.5567 22.4056C32.8021 22.434 33.0488 22.3639 33.2426 22.2105C33.4364 22.0572 33.5615 21.8333 33.5905 21.5878C33.6195 21.3423 33.55 21.0954 33.3972 20.9011C33.2444 20.7068 33.0209 20.5811 32.7756 20.5515ZM33.3453 21.5594C33.3236 21.7395 33.2314 21.9037 33.089 22.0159C32.9465 22.1281 32.7653 22.1792 32.5853 22.158L29.1263 21.7498C28.9467 21.728 28.783 21.6358 28.6712 21.4934C28.5594 21.3511 28.5086 21.1702 28.5298 20.9904C28.551 20.8107 28.6426 20.6466 28.7845 20.5343C28.9264 20.4219 29.107 20.3704 29.2867 20.391L32.7457 20.7991C32.9258 20.821 33.0899 20.9132 33.2022 21.0556C33.3145 21.1981 33.366 21.3792 33.3453 21.5594Z" fill="#536DFE"/>
<path d="M41.0355 18.95V23.2841C40.9556 23.3321 40.8725 23.3745 40.7868 23.411C40.3404 23.6104 39.8454 23.675 39.3628 23.5967C38.8802 23.5185 38.431 23.3008 38.0704 22.9705C38.0356 22.9394 38.0007 22.9058 37.9671 22.871C37.9336 22.8374 37.9012 22.8013 37.8701 22.7652C37.4947 22.3338 37.2777 21.787 37.255 21.2154C37.2323 20.6438 37.4054 20.0815 37.7455 19.6217C38.0856 19.1618 38.5725 18.8319 39.1255 18.6864C39.6785 18.541 40.2646 18.5888 40.7868 18.8219C40.872 18.8601 40.955 18.9029 41.0355 18.95Z" fill="white"/>
<path d="M40.7868 22.0871C39.808 22.2911 38.8358 22.5172 37.8702 22.7652C37.5095 22.8573 37.15 22.9527 36.7918 23.0514C36.364 23.1696 35.9361 23.292 35.5082 23.4185C34.9622 23.5803 34.417 23.7495 33.8726 23.9262C33.7147 23.9785 33.5555 24.0307 33.3962 24.083C31.8826 24.5882 30.3788 25.1482 28.9 25.7591C28.4293 25.8768 28.0242 26.1757 27.7729 26.5908C27.5215 27.0059 27.4443 27.5035 27.5579 27.9753L28.8055 33.112C28.9209 33.5851 29.2192 33.9931 29.635 34.2464C30.0507 34.4997 30.5499 34.5778 31.0231 34.4633L31.0405 34.4571C33.4725 33.4591 35.9615 32.6065 38.4945 31.9037C39.2508 31.6934 40.0149 31.4952 40.7868 31.3089C40.8702 31.289 40.9522 31.2691 41.0356 31.2504V22.036C40.9522 22.051 40.8702 22.0684 40.7868 22.0871Z" fill="white"/>
<path d="M40.7868 22.0871C39.808 22.2911 38.8358 22.5172 37.8702 22.7652C37.5095 22.8573 37.15 22.9527 36.7918 23.0514C36.364 23.1696 35.9361 23.292 35.5082 23.4185C34.9622 23.5803 34.417 23.7495 33.8726 23.9262C33.7147 23.9785 33.5555 24.0307 33.3962 24.083C31.8826 24.5882 30.3788 25.1482 28.9 25.7591C28.4293 25.8768 28.0242 26.1757 27.7729 26.5908C27.5215 27.0059 27.4443 27.5035 27.5579 27.9753L28.8055 33.112C28.9209 33.5851 29.2192 33.9931 29.635 34.2464C30.0507 34.4997 30.5499 34.5778 31.0231 34.4633L31.0405 34.4571C33.4725 33.4591 35.9615 32.6065 38.4945 31.9037C39.2508 31.6934 40.0149 31.4952 40.7868 31.3089C40.8702 31.289 40.9522 31.2691 41.0356 31.2504V30.9941C40.9522 31.014 40.8702 31.0339 40.7868 31.0538C40.7246 31.0688 40.6612 31.0837 40.599 31.0986C39.8677 31.2766 39.1442 31.4649 38.4286 31.6636C38.4099 31.6685 38.3901 31.6748 38.3714 31.6797C35.8512 32.3809 33.3746 33.2307 30.9547 34.2244C30.5466 34.3201 30.1173 34.2508 29.76 34.0316C29.4027 33.8123 29.1464 33.4608 29.0467 33.0535L27.8005 27.9168C27.7016 27.5078 27.7688 27.0762 27.9875 26.7168C28.2062 26.3573 28.5585 26.0993 28.9671 25.9993L28.9858 25.9931C30.5965 25.3261 32.2358 24.7213 33.8876 24.1838C34.0467 24.1315 34.206 24.0805 34.3651 24.0295C34.7557 23.9063 35.1467 23.7864 35.5381 23.6699C35.951 23.5467 36.3635 23.4281 36.7756 23.314C36.803 23.3065 36.8304 23.2991 36.8577 23.2916C37.2607 23.1808 37.6649 23.0738 38.0704 22.9705C38.9697 22.7416 39.8751 22.5313 40.7868 22.3397C40.8689 22.3222 40.9522 22.3048 41.0356 22.2886V22.036C40.9522 22.051 40.8702 22.0684 40.7868 22.0871Z" fill="#536DFE"/>
<path d="M41.0356 22.1617V31.1222C40.9535 31.1409 40.8702 31.1596 40.7868 31.1795C40.0082 31.3686 39.2329 31.5702 38.461 31.7842C38.4299 31.7494 38.4 31.7145 38.3714 31.6797C37.5654 30.7359 36.9733 29.6287 36.6356 28.4342C36.2978 27.2397 36.2226 25.9862 36.4149 24.7599C36.4211 24.7188 36.4286 24.6765 36.4361 24.6354C36.4423 24.5956 36.4498 24.5546 36.4572 24.5147C36.534 24.1073 36.6404 23.7059 36.7756 23.3139C36.7918 23.2667 36.8079 23.2194 36.8254 23.1721C37.2047 23.0676 37.5853 22.9672 37.9671 22.871C38.9013 22.6296 39.8411 22.4101 40.7868 22.2127C40.8689 22.194 40.9522 22.1779 41.0356 22.1617Z" fill="#536DFE"/>
<path d="M35.2557 30.2786C35.1625 30.0494 34.9821 29.8666 34.7543 29.7702C34.5265 29.6739 34.2698 29.6719 34.0405 29.7647L30.8129 31.0737C30.584 31.167 30.4015 31.3474 30.3054 31.5753C30.2094 31.8031 30.2076 32.0598 30.3005 32.2889C30.3935 32.518 30.5735 32.7009 30.8011 32.7974C31.0287 32.8938 31.2852 32.896 31.5144 32.8034L34.742 31.4943C34.9709 31.4008 35.1535 31.2204 35.2497 30.9925C35.346 30.7647 35.3481 30.508 35.2557 30.2786ZM34.6488 31.2629L31.4211 32.5731C31.2529 32.6412 31.0646 32.6396 30.8976 32.5689C30.7305 32.4981 30.5984 32.3639 30.5302 32.1958C30.462 32.0276 30.4632 31.8392 30.5337 31.672C30.6042 31.5048 30.7382 31.3724 30.9062 31.3039L34.1338 29.9949C34.3019 29.9265 34.4902 29.9278 34.6573 29.9984C34.8245 30.069 34.9567 30.2031 35.025 30.3713C35.0933 30.5394 35.092 30.7278 35.0214 30.895C34.9509 31.0622 34.8168 31.1945 34.6488 31.2629Z" fill="#536DFE"/>
<path d="M41.0356 24.45V29.3291C40.9536 29.35 40.8705 29.3666 40.7868 29.3789C40.2874 29.4489 39.7786 29.367 39.3264 29.1439C38.8741 28.9208 38.4995 28.5667 38.251 28.1277C38.0026 27.6887 37.8919 27.1852 37.9334 26.6824C37.9748 26.1796 38.1664 25.701 38.4834 25.3086C38.512 25.2726 38.5418 25.2377 38.5742 25.2041C38.604 25.1693 38.6363 25.1357 38.6699 25.1033C38.9449 24.8312 39.2791 24.6263 39.6463 24.5045C40.0134 24.3828 40.4038 24.3475 40.7868 24.4015C40.8706 24.4128 40.9537 24.429 41.0356 24.45Z" fill="white"/>
<path d="M40.7868 15.9611V28.381C40.8702 28.3536 40.9535 28.3274 41.0356 28.3026V16.0744C40.9522 16.0358 40.8702 15.9984 40.7868 15.9611ZM40.7868 15.9611V28.381C40.8702 28.3536 40.9535 28.3274 41.0356 28.3026V16.0744C40.9522 16.0358 40.8702 15.9984 40.7868 15.9611ZM40.7868 15.9611V28.381C40.8702 28.3536 40.9535 28.3274 41.0356 28.3026V16.0744C40.9522 16.0358 40.8702 15.9984 40.7868 15.9611ZM40.7868 16.8682V31.1795C40.8702 31.1596 40.9535 31.1409 41.0356 31.1223V16.9392C40.9522 16.9143 40.8689 16.8906 40.7868 16.8682ZM40.7868 16.8682V31.1795C40.8702 31.1596 40.9535 31.1409 41.0356 31.1223V16.9392C40.9522 16.9143 40.8689 16.8906 40.7868 16.8682ZM40.7868 16.8682V31.1795C40.8702 31.1596 40.9535 31.1409 41.0356 31.1223V16.9392C40.9522 16.9143 40.8689 16.8906 40.7868 16.8682ZM40.7868 16.8682V31.1795C40.8702 31.1596 40.9535 31.1409 41.0356 31.1223V16.9392C40.9522 16.9143 40.8689 16.8906 40.7868 16.8682ZM40.7868 16.8682V31.3089C40.8702 31.289 40.9522 31.2691 41.0356 31.2504V16.9392C40.9522 16.9143 40.8689 16.8906 40.7868 16.8682ZM95.047 5.10169H43.3689C42.6845 5.10282 42.0283 5.37535 41.5443 5.85956C41.0604 6.34377 40.7879 7.00017 40.7868 7.68495V46.0719C40.788 46.7565 41.0604 47.4128 41.5444 47.8968C42.0285 48.3808 42.6846 48.6531 43.3689 48.6539H95.047C95.7312 48.653 96.3872 48.3807 96.871 47.8967C97.3549 47.4127 97.627 46.7564 97.6279 46.0719V7.68495C97.6273 7.00022 97.3552 6.34368 96.8714 5.85938C96.3875 5.37508 95.7314 5.10259 95.047 5.10169ZM97.3791 46.0719C97.3785 46.6904 97.1326 47.2835 96.6953 47.7209C96.2581 48.1583 95.6653 48.4044 95.047 48.405H43.3689C42.7505 48.4044 42.1575 48.1585 41.7201 47.7211C41.2826 47.2837 41.0365 46.6906 41.0356 46.0719V7.68495C41.0365 7.06611 41.2826 6.47289 41.72 6.03531C42.1574 5.59772 42.7504 5.35148 43.3689 5.35056H95.047C95.6655 5.35127 96.2585 5.59748 96.6957 6.03515C97.1329 6.47281 97.3787 7.06616 97.3791 7.68495V46.0719ZM40.7868 16.8682V31.0538C40.8702 31.0339 40.9522 31.014 41.0356 30.9941V16.9392C40.9522 16.9143 40.8689 16.8906 40.7868 16.8682ZM40.7868 16.8682V31.1795C40.8702 31.1596 40.9535 31.1409 41.0356 31.1223V16.9392C40.9522 16.9143 40.8689 16.8906 40.7868 16.8682ZM40.7868 16.8682V31.1795C40.8702 31.1596 40.9535 31.1409 41.0356 31.1223V16.9392C40.9522 16.9143 40.8689 16.8906 40.7868 16.8682ZM40.7868 16.8682V31.1795C40.8702 31.1596 40.9535 31.1409 41.0356 31.1223V16.9392C40.9522 16.9143 40.8689 16.8906 40.7868 16.8682ZM40.7868 15.9611V28.381C40.8702 28.3536 40.9535 28.3274 41.0356 28.3026V16.0744C40.9522 16.0358 40.8702 15.9984 40.7868 15.9611ZM40.7868 15.9611V28.381C40.8702 28.3536 40.9535 28.3274 41.0356 28.3026V16.0744C40.9522 16.0358 40.8702 15.9984 40.7868 15.9611Z" fill="#2F2E41"/>
<path d="M29.7079 29.102C29.6592 28.9883 29.5861 28.8866 29.4938 28.8042C29.4015 28.7218 29.2923 28.6606 29.1738 28.625C29.0554 28.5893 28.9305 28.5801 28.8081 28.598C28.6857 28.6159 28.5687 28.6603 28.4653 28.7283L26.0809 26.8954L25.9682 28.4546L28.2498 29.9562C28.3755 30.1223 28.5577 30.2366 28.762 30.2773C28.9662 30.318 29.1783 30.2823 29.3581 30.1771C29.5378 30.0718 29.6727 29.9042 29.7372 29.7061C29.8016 29.5079 29.7912 29.293 29.7079 29.102Z" fill="#FFB6B6"/>
<path d="M20.0995 18.0401L19.3149 17.6691C19.3149 17.6691 18.0509 18.0248 18.665 19.697L22.3813 26.6235L26.9185 29.2811L28.333 28.0272L23.7925 24.433L20.0995 18.0401Z" fill="#3F3D56"/>
</g>
<defs>
<clipPath id="clip0_10_110">
<rect width="117" height="54" fill="white"/>
</clipPath>
</defs>
</svg>
