<svg width="169" height="50" viewBox="0 0 169 50" fill="none" xmlns="http://www.w3.org/2000/svg">
<rect width="169" height="50" rx="15" fill="#5581F1"/>
<path d="M59.2647 40V32.368H56.3127V31.6H63.1047V32.368H60.1527V40H59.2647ZM66.3751 40.06C65.7671 40.06 65.2191 39.924 64.7311 39.652C64.2511 39.372 63.8711 38.992 63.5911 38.512C63.3111 38.024 63.1711 37.468 63.1711 36.844C63.1711 36.212 63.3111 35.656 63.5911 35.176C63.8711 34.696 64.2511 34.32 64.7311 34.048C65.2111 33.776 65.7591 33.64 66.3751 33.64C66.9991 33.64 67.5511 33.776 68.0311 34.048C68.5191 34.32 68.8991 34.696 69.1711 35.176C69.4511 35.656 69.5911 36.212 69.5911 36.844C69.5911 37.468 69.4511 38.024 69.1711 38.512C68.8991 38.992 68.5191 39.372 68.0311 39.652C67.5431 39.924 66.9911 40.06 66.3751 40.06ZM66.3751 39.304C66.8311 39.304 67.2351 39.204 67.5871 39.004C67.9391 38.796 68.2151 38.508 68.4151 38.14C68.6231 37.764 68.7271 37.332 68.7271 36.844C68.7271 36.348 68.6231 35.916 68.4151 35.548C68.2151 35.18 67.9391 34.896 67.5871 34.696C67.2351 34.488 66.8351 34.384 66.3871 34.384C65.9391 34.384 65.5391 34.488 65.1871 34.696C64.8351 34.896 64.5551 35.18 64.3471 35.548C64.1391 35.916 64.0351 36.348 64.0351 36.844C64.0351 37.332 64.1391 37.764 64.3471 38.14C64.5551 38.508 64.8351 38.796 65.1871 39.004C65.5391 39.204 65.9351 39.304 66.3751 39.304ZM73.4425 40.06C72.8505 40.06 72.3945 39.9 72.0745 39.58C71.7545 39.26 71.5945 38.808 71.5945 38.224V32.308H72.4465V38.176C72.4465 38.544 72.5385 38.828 72.7225 39.028C72.9145 39.228 73.1865 39.328 73.5385 39.328C73.9145 39.328 74.2265 39.22 74.4745 39.004L74.7745 39.616C74.6065 39.768 74.4025 39.88 74.1625 39.952C73.9305 40.024 73.6905 40.06 73.4425 40.06ZM70.4665 34.408V33.7H74.3665V34.408H70.4665ZM80.3935 40V38.608L80.3575 38.38V36.052C80.3575 35.516 80.2055 35.104 79.9015 34.816C79.6055 34.528 79.1615 34.384 78.5695 34.384C78.1615 34.384 77.7735 34.452 77.4055 34.588C77.0375 34.724 76.7255 34.904 76.4695 35.128L76.0855 34.492C76.4055 34.22 76.7895 34.012 77.2375 33.868C77.6855 33.716 78.1575 33.64 78.6535 33.64C79.4695 33.64 80.0975 33.844 80.5375 34.252C80.9855 34.652 81.2095 35.264 81.2095 36.088V40H80.3935ZM78.2215 40.06C77.7495 40.06 77.3375 39.984 76.9855 39.832C76.6415 39.672 76.3775 39.456 76.1935 39.184C76.0095 38.904 75.9175 38.584 75.9175 38.224C75.9175 37.896 75.9935 37.6 76.1455 37.336C76.3055 37.064 76.5615 36.848 76.9135 36.688C77.2735 36.52 77.7535 36.436 78.3535 36.436H80.5255V37.072H78.3775C77.7695 37.072 77.3455 37.18 77.1055 37.396C76.8735 37.612 76.7575 37.88 76.7575 38.2C76.7575 38.56 76.8975 38.848 77.1775 39.064C77.4575 39.28 77.8495 39.388 78.3535 39.388C78.8335 39.388 79.2455 39.28 79.5895 39.064C79.9415 38.84 80.1975 38.52 80.3575 38.104L80.5495 38.692C80.3895 39.108 80.1095 39.44 79.7095 39.688C79.3175 39.936 78.8215 40.06 78.2215 40.06ZM83.6436 40V31.096H84.4956V40H83.6436ZM90.4269 40V31.6H93.5709C94.2829 31.6 94.8949 31.716 95.4069 31.948C95.9189 32.172 96.3109 32.5 96.5829 32.932C96.8629 33.356 97.0029 33.872 97.0029 34.48C97.0029 35.072 96.8629 35.584 96.5829 36.016C96.3109 36.44 95.9189 36.768 95.4069 37C94.8949 37.232 94.2829 37.348 93.5709 37.348H90.9189L91.3149 36.928V40H90.4269ZM91.3149 37L90.9189 36.568H93.5469C94.3869 36.568 95.0229 36.388 95.4549 36.028C95.8949 35.66 96.1149 35.144 96.1149 34.48C96.1149 33.808 95.8949 33.288 95.4549 32.92C95.0229 32.552 94.3869 32.368 93.5469 32.368H90.9189L91.3149 31.948V37ZM101.396 40.06C100.788 40.06 100.24 39.924 99.7518 39.652C99.2718 39.372 98.8918 38.992 98.6118 38.512C98.3318 38.024 98.1918 37.468 98.1918 36.844C98.1918 36.212 98.3318 35.656 98.6118 35.176C98.8918 34.696 99.2718 34.32 99.7518 34.048C100.232 33.776 100.78 33.64 101.396 33.64C102.02 33.64 102.572 33.776 103.052 34.048C103.54 34.32 103.92 34.696 104.192 35.176C104.472 35.656 104.612 36.212 104.612 36.844C104.612 37.468 104.472 38.024 104.192 38.512C103.92 38.992 103.54 39.372 103.052 39.652C102.564 39.924 102.012 40.06 101.396 40.06ZM101.396 39.304C101.852 39.304 102.256 39.204 102.608 39.004C102.96 38.796 103.236 38.508 103.436 38.14C103.644 37.764 103.748 37.332 103.748 36.844C103.748 36.348 103.644 35.916 103.436 35.548C103.236 35.18 102.96 34.896 102.608 34.696C102.256 34.488 101.856 34.384 101.408 34.384C100.96 34.384 100.56 34.488 100.208 34.696C99.8558 34.896 99.5758 35.18 99.3678 35.548C99.1598 35.916 99.0558 36.348 99.0558 36.844C99.0558 37.332 99.1598 37.764 99.3678 38.14C99.5758 38.508 99.8558 38.796 100.208 39.004C100.56 39.204 100.956 39.304 101.396 39.304ZM106.471 40V33.7H107.323V40H106.471ZM106.903 32.308C106.727 32.308 106.579 32.248 106.459 32.128C106.339 32.008 106.279 31.864 106.279 31.696C106.279 31.528 106.339 31.388 106.459 31.276C106.579 31.156 106.727 31.096 106.903 31.096C107.079 31.096 107.227 31.152 107.347 31.264C107.467 31.376 107.527 31.516 107.527 31.684C107.527 31.86 107.467 32.008 107.347 32.128C107.235 32.248 107.087 32.308 106.903 32.308ZM113.03 33.64C113.542 33.64 113.99 33.74 114.374 33.94C114.766 34.132 115.07 34.428 115.286 34.828C115.51 35.228 115.622 35.732 115.622 36.34V40H114.77V36.424C114.77 35.76 114.602 35.26 114.266 34.924C113.938 34.58 113.474 34.408 112.874 34.408C112.426 34.408 112.034 34.5 111.698 34.684C111.37 34.86 111.114 35.12 110.93 35.464C110.754 35.8 110.666 36.208 110.666 36.688V40H109.814V33.7H110.63V35.428L110.498 35.104C110.698 34.648 111.018 34.292 111.458 34.036C111.898 33.772 112.422 33.64 113.03 33.64Z" fill="white"/>
<g clip-path="url(#clip0_14_46)">
<mask id="mask0_14_46" style="mask-type:luminance" maskUnits="userSpaceOnUse" x="17" y="8" width="32" height="34">
<path d="M17.1852 8.37928H48.6366V41.5151H17.1852V8.37928Z" fill="white"/>
</mask>
<g mask="url(#mask0_14_46)">
<path d="M36.9078 8.42207C36.4409 8.22681 35.974 8.80071 35.4873 9.30183L34.8349 9.96445L29.5611 15.2074C28.1866 16.5759 25.9915 15.9628 24.226 15.5297L22.4365 15.1263C21.4147 14.9531 19.0133 14.4637 18.3045 14.454C16.4881 14.4272 17.7421 16.3043 18.2921 17.3381L20.6467 21.8896C21.5075 23.5887 21.8252 24.6224 21.7592 25.505C21.6933 26.3999 21.2456 27.099 20.5807 28.1422C20.1285 28.8488 19.586 29.7018 18.9817 30.8482C18.5245 31.7212 17.5269 33.478 17.3097 34.1482C17.0505 34.9379 17.3949 35.3091 18.1896 35.2796C18.6076 35.2652 19.1673 35.1571 19.8988 35.0177L19.9035 35.0149C21.7667 34.6582 24.0918 34.3111 26.0575 34.0052C28.8179 33.5749 29.8325 34.5895 31.4146 36.5353V36.538C31.9254 37.1587 32.4954 37.8509 33.2041 38.5766L34.6829 40.1678C35.1813 40.7129 35.8317 41.5438 36.3702 41.4683C36.9593 41.3879 37.074 40.6009 37.3258 38.9534L38.1838 33.5757C38.8809 29.2515 40.2304 29.3493 43.6603 27.9071C44.6483 27.4913 45.8095 26.9051 46.7996 26.4431L46.8043 26.4404C48.0247 25.8706 48.6331 25.5874 48.6359 25.0863C48.6359 24.8493 48.504 24.6609 48.2398 24.4705C47.8047 24.153 46.0007 23.3117 45.2843 22.9453L40.7172 20.6035C38.1473 19.2859 38.0208 16.5924 37.8393 13.9358C37.8077 13.4711 37.776 12.997 37.732 12.5109C37.6537 11.6215 37.512 10.7239 37.4116 9.85368C37.3134 9.00835 37.2645 8.57118 36.9078 8.42207Z" fill="#FFCF6E"/>
</g>
<path fill-rule="evenodd" clip-rule="evenodd" d="M22.2824 29.9827C22.6268 29.1786 23.5659 27.7558 24.0375 26.6244C24.5071 25.4904 24.512 24.6469 24.2012 23.7108C23.8884 22.7747 23.2621 21.743 22.6901 20.7876C22.118 19.8321 21.6025 18.9544 21.4676 18.417C21.3356 17.8816 21.5852 17.6884 22.1324 18.0726C22.6824 18.4589 23.5288 19.4247 24.272 20.402C25.0152 21.3794 25.6559 22.3698 25.9764 23.1252C26.2966 23.8806 26.2966 24.4009 26.118 25.0586C25.9372 25.7165 25.5804 26.5103 25.0744 27.4177C24.5683 28.3242 23.9152 29.3434 23.4511 29.9869C22.9864 30.6322 22.7128 30.8982 22.4488 30.9374C22.1867 30.9752 21.9372 30.789 22.2824 29.9827ZM38.1205 21.9238C38.8272 21.8529 40.0565 22.3685 41.2404 22.8455C42.4235 23.3218 43.5607 23.7597 44.1691 24.0847C44.7776 24.4099 44.8587 24.6221 44.3375 24.691C43.8171 24.7597 42.6944 24.6861 41.5751 24.5541C40.4553 24.425 39.338 24.2365 38.5851 24.0187C37.8296 23.8016 37.4384 23.5541 37.3332 23.1018C37.2301 22.6495 37.4138 21.9946 38.1205 21.9238ZM31.6434 16.0113C32.2134 15.1879 33.5505 13.7506 34.3302 12.9754C35.1099 12.2008 35.3326 12.088 35.4598 12.1835C35.5842 12.2763 35.611 12.5747 35.433 13.1389C35.2569 13.706 34.8734 14.5369 34.6115 15.2484C34.3495 15.9597 34.2106 16.5509 34.0318 16.9475C33.8532 17.3462 33.6331 17.5489 33.2007 17.5661C32.7654 17.5832 32.1179 17.412 31.6943 17.2237C31.2722 17.0375 31.0743 16.8327 31.6434 16.0113Z" fill="white"/>
<path d="M30.5726 27.085C30.7486 27.085 30.9066 27.1421 31.0384 27.2559C31.1709 27.37 31.2436 27.5196 31.2581 27.6944H31.2591L31.5501 29.6143L31.9828 27.712L31.9847 27.7042L31.9876 27.6973C32.0413 27.5366 32.123 27.4023 32.2415 27.3087C32.3614 27.214 32.5065 27.1712 32.6664 27.171V27.17L35.2562 27.1417H35.2572C35.5021 27.1417 35.7015 27.2419 35.8304 27.4444C35.9521 27.6357 35.9843 27.8468 35.9261 28.0665L35.9242 28.0723L34.5228 32.6387L35.8656 36.6251C35.946 36.8551 35.9227 37.0759 35.7816 37.2667V37.2676C35.6436 37.4533 35.4491 37.5469 35.2152 37.5469H32.7523C32.5915 37.5469 32.4469 37.4898 32.3226 37.3838C32.2001 37.2788 32.1183 37.1467 32.0824 36.9913L32.0814 36.9893V36.9883L31.5824 34.667L31.0013 37.0362L31.0003 37.042C30.9553 37.1998 30.8734 37.3322 30.7513 37.4297L30.7503 37.4288C30.6257 37.5285 30.4776 37.5699 30.3148 37.5596V37.5616L27.8382 37.504H27.8324C27.6352 37.492 27.4652 37.3986 27.3255 37.2422C27.1675 37.065 27.1337 36.8432 27.2015 36.6055L28.4212 32.2579L27.2435 27.9835V27.9825C27.1773 27.7399 27.2057 27.5149 27.3587 27.336H27.3597C27.5026 27.1699 27.691 27.085 27.9124 27.085H30.5726Z" fill="white" stroke="black" stroke-width="0.3"/>
<path d="M40.4664 27.1129L40.983 27.1266C41.4865 27.1527 41.9494 27.2174 42.3707 27.3229C42.9387 27.4648 43.4213 27.7115 43.8141 28.0651L43.9576 28.2057C44.2799 28.5489 44.5079 28.9941 44.6451 29.5338H44.6442C44.7134 29.7738 44.76 30.0742 44.7838 30.4313C44.8077 30.7926 44.805 31.1701 44.776 31.5631C44.7471 31.9591 44.6818 32.3348 44.5797 32.6901C44.4767 33.0482 44.3291 33.3477 44.1344 33.5836L44.1354 33.5846C43.8007 33.998 43.3999 34.3129 42.9342 34.526C42.4762 34.7354 41.9757 34.8762 41.4342 34.9489C40.9453 35.0142 40.4326 35.0562 39.8971 35.0778L39.9371 36.7145C39.9564 36.9139 39.8931 37.0903 39.7487 37.2291C39.6158 37.3566 39.4626 37.4322 39.2916 37.4323L39.2926 37.4333L36.8864 37.4479H36.8854C36.7057 37.4479 36.5524 37.3711 36.4323 37.2331C36.3133 37.0959 36.2546 36.9313 36.2545 36.7467L36.2252 27.8014L36.2379 27.6745C36.254 27.5917 36.2851 27.5126 36.3307 27.4381L36.4098 27.3297C36.5293 27.1875 36.6793 27.0993 36.8571 27.0993L40.4664 27.1129ZM39.8336 31.9118H40.4088C40.717 31.9118 40.9321 31.8386 41.0748 31.7145L41.1744 31.6129C41.2597 31.5085 41.3017 31.3965 41.3073 31.276C41.314 31.1274 41.2502 30.9862 41.0807 30.8483L41.0231 30.8141C40.9968 30.8021 40.9626 30.7903 40.9196 30.778C40.8356 30.7539 40.7262 30.7324 40.5895 30.7165C40.3539 30.6891 40.0902 30.6725 39.7985 30.6618L39.8336 31.9118Z" fill="white" stroke="black" stroke-width="0.3"/>
</g>
<path d="M59.4476 26V15.6L60.3596 16.544H57.0796V14.8H61.5276V26H59.4476ZM68.5814 26.16C67.696 26.16 66.896 25.936 66.1814 25.488C65.4774 25.04 64.9227 24.3893 64.5174 23.536C64.112 22.672 63.9094 21.6267 63.9094 20.4C63.9094 19.1733 64.112 18.1333 64.5174 17.28C64.9227 16.416 65.4774 15.76 66.1814 15.312C66.896 14.864 67.696 14.64 68.5814 14.64C69.4774 14.64 70.2774 14.864 70.9814 15.312C71.6854 15.76 72.24 16.416 72.6454 17.28C73.0614 18.1333 73.2694 19.1733 73.2694 20.4C73.2694 21.6267 73.0614 22.672 72.6454 23.536C72.24 24.3893 71.6854 25.04 70.9814 25.488C70.2774 25.936 69.4774 26.16 68.5814 26.16ZM68.5814 24.352C69.104 24.352 69.5574 24.2133 69.9414 23.936C70.3254 23.648 70.624 23.2107 70.8374 22.624C71.0614 22.0373 71.1734 21.296 71.1734 20.4C71.1734 19.4933 71.0614 18.752 70.8374 18.176C70.624 17.5893 70.3254 17.1573 69.9414 16.88C69.5574 16.592 69.104 16.448 68.5814 16.448C68.08 16.448 67.632 16.592 67.2374 16.88C66.8534 17.1573 66.5494 17.5893 66.3254 18.176C66.112 18.752 66.0054 19.4933 66.0054 20.4C66.0054 21.296 66.112 22.0373 66.3254 22.624C66.5494 23.2107 66.8534 23.648 67.2374 23.936C67.632 24.2133 68.08 24.352 68.5814 24.352ZM79.507 26.16C78.6216 26.16 77.8216 25.936 77.107 25.488C76.403 25.04 75.8483 24.3893 75.443 23.536C75.0376 22.672 74.835 21.6267 74.835 20.4C74.835 19.1733 75.0376 18.1333 75.443 17.28C75.8483 16.416 76.403 15.76 77.107 15.312C77.8216 14.864 78.6216 14.64 79.507 14.64C80.403 14.64 81.203 14.864 81.907 15.312C82.611 15.76 83.1656 16.416 83.571 17.28C83.987 18.1333 84.195 19.1733 84.195 20.4C84.195 21.6267 83.987 22.672 83.571 23.536C83.1656 24.3893 82.611 25.04 81.907 25.488C81.203 25.936 80.403 26.16 79.507 26.16ZM79.507 24.352C80.0296 24.352 80.483 24.2133 80.867 23.936C81.251 23.648 81.5496 23.2107 81.763 22.624C81.987 22.0373 82.099 21.296 82.099 20.4C82.099 19.4933 81.987 18.752 81.763 18.176C81.5496 17.5893 81.251 17.1573 80.867 16.88C80.483 16.592 80.0296 16.448 79.507 16.448C79.0056 16.448 78.5576 16.592 78.163 16.88C77.779 17.1573 77.475 17.5893 77.251 18.176C77.0376 18.752 76.931 19.4933 76.931 20.4C76.931 21.296 77.0376 22.0373 77.251 22.624C77.475 23.2107 77.779 23.648 78.163 23.936C78.5576 24.2133 79.0056 24.352 79.507 24.352ZM90.4326 26.16C89.5473 26.16 88.7473 25.936 88.0326 25.488C87.3286 25.04 86.7739 24.3893 86.3686 23.536C85.9633 22.672 85.7606 21.6267 85.7606 20.4C85.7606 19.1733 85.9633 18.1333 86.3686 17.28C86.7739 16.416 87.3286 15.76 88.0326 15.312C88.7473 14.864 89.5473 14.64 90.4326 14.64C91.3286 14.64 92.1286 14.864 92.8326 15.312C93.5366 15.76 94.0913 16.416 94.4966 17.28C94.9126 18.1333 95.1206 19.1733 95.1206 20.4C95.1206 21.6267 94.9126 22.672 94.4966 23.536C94.0913 24.3893 93.5366 25.04 92.8326 25.488C92.1286 25.936 91.3286 26.16 90.4326 26.16ZM90.4326 24.352C90.9553 24.352 91.4086 24.2133 91.7926 23.936C92.1766 23.648 92.4753 23.2107 92.6886 22.624C92.9126 22.0373 93.0246 21.296 93.0246 20.4C93.0246 19.4933 92.9126 18.752 92.6886 18.176C92.4753 17.5893 92.1766 17.1573 91.7926 16.88C91.4086 16.592 90.9553 16.448 90.4326 16.448C89.9313 16.448 89.4833 16.592 89.0886 16.88C88.7046 17.1573 88.4006 17.5893 88.1766 18.176C87.9633 18.752 87.8566 19.4933 87.8566 20.4C87.8566 21.296 87.9633 22.0373 88.1766 22.624C88.4006 23.2107 88.7046 23.648 89.0886 23.936C89.4833 24.2133 89.9313 24.352 90.4326 24.352Z" fill="white"/>
<defs>
<clipPath id="clip0_14_46">
<rect x="15.8823" y="8.20557" width="33.3529" height="33.3529" rx="16.6765" fill="white"/>
</clipPath>
</defs>
</svg>
